<svg xmlns="http://www.w3.org/2000/svg" width="366.02" height="409.529" viewBox="0 0 366.02 409.529">
  <path id="パス_788" data-name="パス 788" d="M67.847,51.2a288.284,288.284,0,0,1,67.466-35.3c24.1-8.806,49.2-14.332,73.519-15.614S256.67,1.966,277.6,10.131A115.934,115.934,0,0,1,330.8,51.2c13.941,19.536,19.093,39.644,19.434,59.612s-4.129,39.8-9.433,58.772-11.441,37.1-14.434,53.666-2.841,31.566,4.432,44.295,15.76,27.428,22.579,42.43,11.971,30.307,12.577,44.248-3.334,26.518-14.7,36.065-30.155,16.063-59.25,17.881-56.371,1.97-81.753-.53-48.87-7.652-70.388-16.441A180.757,180.757,0,0,1,81.3,352.937C63.8,335.889,48.345,314.22,35.01,286.944S11.99,234.9,6.231,212.185s-7.592-43.368-5.223-62.415A118.346,118.346,0,0,1,20.995,97.007C32.043,80.728,47.568,65.61,67.847,51.2Z" fill="#a1e3ee" opacity="0.5"/>
</svg>
