<svg xmlns="http://www.w3.org/2000/svg" width="350.544" height="369.046" viewBox="0 0 350.544 369.046">
  <path id="パス_790" data-name="パス 790" d="M307.454,40.2c-11.16-10.641-28.661-19.938-49.333-26.9A263.744,263.744,0,0,0,189.766.384c-23.842-1.316-47.684.686-68.355,6.994S83.238,24.3,72.078,40.2,57.114,72.541,56.733,88.895s2.663,32.629,5.2,48.219,4.565,30.5,2.156,44.112-9.258,25.941-24.476,36.369S13.488,239.638,7.02,251.785s-8.5,24.828-5.961,37.39,9.638,25.006,21.432,36.679,28.281,22.576,49.586,32.057,42.358,12.562,63.029,10.547,40.963-9.125,60.746-20.028,39.06-25.6,57.7-42.782,36.651-36.857,53.9-57.715,28.661-41.61,35.383-61.67a142.493,142.493,0,0,0,7.229-57.52,136.952,136.952,0,0,0-14.077-49.858A140.537,140.537,0,0,0,307.454,40.2Z" fill="#fff" opacity="0.66"/>
</svg>
