<svg xmlns="http://www.w3.org/2000/svg" width="100.012" height="24.003" viewBox="0 0 100.012 24.003">
  <path id="触れて癒す" d="M8.921,6.581a.651.651,0,0,0-.152-.43.683.683,0,0,0-.358-.218.691.691,0,0,0-.418.026.642.642,0,0,0-.332.3H6.021c.135-.11.289-.239.449-.377s.328-.285.491-.431.32-.292.461-.427.264-.26.359-.365a.858.858,0,0,0,.51-.275.826.826,0,0,0,.154-.248.807.807,0,0,0,.056-.3.822.822,0,0,0-.164-.5.807.807,0,0,0-.891-.274A.891.891,0,0,0,7,3.4H4.6l.063-.093.067-.1c.023-.034.045-.068.067-.1s.043-.07.063-.1a.818.818,0,0,0,.647-.523.845.845,0,0,0,.053-.3A.86.86,0,0,0,5.5,1.855a.842.842,0,0,0-.174-.267.814.814,0,0,0-.26-.181.805.805,0,0,0-.322-.067.787.787,0,0,0-.231.035.868.868,0,0,0-.207.1.931.931,0,0,0-.173.14A.888.888,0,0,0,4,1.78c-.25.44-.5.858-.746,1.259s-.5.786-.754,1.161-.515.74-.784,1.1S1.17,6.021.88,6.381A.281.281,0,0,0,.808,6.6a.328.328,0,0,0,.1.192.361.361,0,0,0,.194.1.292.292,0,0,0,.221-.052,7.579,7.579,0,0,0,.647-.5c.228-.194.467-.413.705-.648s.478-.486.709-.745.453-.525.659-.79H6.5l-1.12,1.82a.371.371,0,0,0-.034.072.256.256,0,0,0-.013.068.266.266,0,0,0,.005.068.417.417,0,0,0,.022.072H3.48a.687.687,0,0,0-.358-.3.748.748,0,0,0-.437-.019.719.719,0,0,0-.369.225A.653.653,0,0,0,2.16,6.6V10c0,1.18,0,2.172-.008,3.039s-.039,1.61-.1,2.292a13.163,13.163,0,0,1-.312,1.932A14.255,14.255,0,0,1,1.1,19.222a.314.314,0,0,0-.008.233.324.324,0,0,0,.136.162.338.338,0,0,0,.207.049.317.317,0,0,0,.205-.1,6.479,6.479,0,0,0,.842-1.246A7.48,7.48,0,0,0,3.035,16.9a11.221,11.221,0,0,0,.321-1.616c.074-.575.119-1.187.144-1.842H7.581v4.421h-.94a.328.328,0,0,0-.126.025.312.312,0,0,0-.169.169.334.334,0,0,0,0,.252.312.312,0,0,0,.169.169.328.328,0,0,0,.126.025h.68a.808.808,0,0,0-.067.409.84.84,0,0,0,.421.646.821.821,0,0,0,.406.105.771.771,0,0,0,.325-.073.871.871,0,0,0,.267-.195.928.928,0,0,0,.181-.281.872.872,0,0,0,.067-.332ZM19.3,18.342a2.935,2.935,0,0,0-.2-.815,5.116,5.116,0,0,0-.47-.907,7.309,7.309,0,0,0-.725-.941,8.916,8.916,0,0,0-.965-.917.31.31,0,0,0-.405.005.328.328,0,0,0-.107.175.314.314,0,0,0,.032.22c.045.085.1.19.157.305s.12.24.181.365.122.25.177.365.105.22.145.305l-.516.108c-.178.037-.362.073-.549.11s-.379.072-.572.106-.388.067-.583.1v-4.4h2.18a.984.984,0,0,0,.045.3.746.746,0,0,0,.133.248.619.619,0,0,0,.219.17.717.717,0,0,0,.3.063.735.735,0,0,0,.278-.053.668.668,0,0,0,.369-.369.735.735,0,0,0,.053-.278V6.381a.677.677,0,0,0-.525-.68.727.727,0,0,0-.437.028.712.712,0,0,0-.358.313h-2.22V2.38a.639.639,0,0,0-.056-.258.727.727,0,0,0-.366-.366.638.638,0,0,0-.258-.056A.66.66,0,0,0,14,1.756a.758.758,0,0,0-.224.149.73.73,0,0,0-.156.217.612.612,0,0,0-.059.258v3.66H11.6a.637.637,0,0,0-.334-.268.694.694,0,0,0-.4-.013.665.665,0,0,0-.34.213.623.623,0,0,0-.143.408v6.6a.6.6,0,0,0,.056.252.646.646,0,0,0,.149.2.705.705,0,0,0,.475.185.656.656,0,0,0,.252-.049.625.625,0,0,0,.339-.339.656.656,0,0,0,.049-.252v-.46h1.88v4.6c-.145.025-.341.056-.565.09s-.476.07-.732.105-.517.069-.759.1-.464.053-.644.068a.914.914,0,0,0-.513.207.8.8,0,0,0-.23.893.892.892,0,0,0,.343.42.825.825,0,0,0,.618.133.871.871,0,0,0,.3-.113.91.91,0,0,0,.246-.22c.48-.12.988-.253,1.5-.393s1.036-.288,1.543-.438,1-.3,1.461-.453.884-.3,1.255-.438c.035.09.07.181.1.273s.067.183.1.273.061.179.087.265.05.17.07.25a.79.79,0,0,0-.065.381.819.819,0,0,0,.113.354.834.834,0,0,0,.633.405.794.794,0,0,0,.368-.057.759.759,0,0,0,.28-.2.865.865,0,0,0,.171-.308A.984.984,0,0,0,19.3,18.342Zm-7.6-11.5h1.88v4.881H11.7Zm3.2,0h2.18v4.881H14.9Zm-11.441.2H4.9v2.28H3.46Zm2.62,0H7.6v2.28H6.081Zm-2.6,3.04H4.9v2.58H3.48Zm2.6,0H7.6v2.58H6.081Zm31.764,4.561a.436.436,0,0,0,.2-.28.373.373,0,0,0-.061-.28.384.384,0,0,0-.241-.16A.448.448,0,0,0,37.4,14a7.222,7.222,0,0,1-.826.465,5.688,5.688,0,0,1-.847.33,2.836,2.836,0,0,1-.76.128.982.982,0,0,1-.567-.143.884.884,0,0,1-.281-.331,1.632,1.632,0,0,1-.152-.517,3.634,3.634,0,0,1-.02-.708,7.654,7.654,0,0,1,.113-.9c.16-.85.3-1.633.394-2.341a15.229,15.229,0,0,0,.161-1.9,4.785,4.785,0,0,0-.161-1.413,1.69,1.69,0,0,0-.574-.89,1.614,1.614,0,0,0-1.13-.306,4.14,4.14,0,0,0-1.443.411,9.267,9.267,0,0,0-1.582.958,13.8,13.8,0,0,0-1.546,1.337,2.8,2.8,0,0,0,.132-.446,1.265,1.265,0,0,0,.021-.419.534.534,0,0,0-.155-.322.637.637,0,0,0-.4-.153,4.971,4.971,0,0,0-.054-1.069,1.94,1.94,0,0,0-.318-.794,2.046,2.046,0,0,0-.682-.587,5.332,5.332,0,0,0-1.145-.45.46.46,0,0,0-.325.005.333.333,0,0,0-.177.187.383.383,0,0,0,0,.266.473.473,0,0,0,.2.242c.3.185.541.335.734.483a1.647,1.647,0,0,1,.439.472,1.693,1.693,0,0,1,.2.659A6.737,6.737,0,0,1,26.683,7.3c-.105.065-.191.119-.269.165s-.148.086-.221.122-.148.069-.236.1-.189.069-.314.109-.231.078-.344.119a2.233,2.233,0,0,0-.321.143,1.08,1.08,0,0,0-.269.207.9.9,0,0,0-.186.31,2.059,2.059,0,0,0-.118.408,1.063,1.063,0,0,0,0,.337,1.409,1.409,0,0,0,.1.329c.048.116.11.241.185.386q.09.188.176.376t.167.379q.081.191.155.387t.142.4c-.235.305-.466.619-.689.93s-.435.62-.634.915-.383.576-.548.833-.31.488-.43.683a.8.8,0,0,0-.117.109.587.587,0,0,0-.081.121.567.567,0,0,0-.047.136.735.735,0,0,0-.015.154.569.569,0,0,0,.13.367.622.622,0,0,0,.312.2.612.612,0,0,0,.376-.013.632.632,0,0,0,.322-.274q.255-.413.492-.793l.46-.737.434-.692.413-.658c.085.34.161.678.229,1.018s.126.683.176,1.033.091.708.124,1.078.056.753.071,1.153a.639.639,0,0,0-.056.3.608.608,0,0,0,.086.277.576.576,0,0,0,.206.2.606.606,0,0,0,.3.078.637.637,0,0,0,.243-.049.654.654,0,0,0,.2-.131.587.587,0,0,0,.134-.191.5.5,0,0,0,.041-.229c-.04-.5-.058-1.065-.06-1.673s.011-1.254.032-1.9.051-1.293.081-1.9.062-1.184.087-1.684c.16-.2.5-.578.943-1.016a18.766,18.766,0,0,1,1.547-1.382A7.552,7.552,0,0,1,31.761,6.8a1.305,1.305,0,0,1,1.3-.015,1.08,1.08,0,0,1,.323.724,6.183,6.183,0,0,1,.007,1.3c-.04.516-.118,1.107-.218,1.75s-.223,1.338-.353,2.063a6.96,6.96,0,0,0-.125,1.1,3.764,3.764,0,0,0,.072.888,2.034,2.034,0,0,0,.263.67,1.391,1.391,0,0,0,.449.445,1.784,1.784,0,0,0,.85.25,3.45,3.45,0,0,0,1.06-.123,6.335,6.335,0,0,0,1.2-.457A9.55,9.55,0,0,0,37.845,14.642ZM26.623,8.5q-.007.143-.015.285t-.013.285q-.006.143-.009.285t0,.285l-.64,1.02c-.055-.135-.128-.283-.205-.434s-.161-.307-.237-.458a4.537,4.537,0,0,1-.2-.432,1.069,1.069,0,0,1-.082-.355,2.043,2.043,0,0,1,.348-.126c.117-.032.234-.057.352-.084a3.185,3.185,0,0,0,.352-.1A1.644,1.644,0,0,0,26.623,8.5Zm-.14,3.66c-.015-.035-.028-.068-.038-.1s-.019-.058-.027-.083-.014-.048-.019-.068-.011-.038-.016-.053l.1-.16ZM55.327,5.1a.682.682,0,0,0-.082-.345.546.546,0,0,0-.215-.208.837.837,0,0,0-.3-.092,1.371,1.371,0,0,0-.341,0,9.3,9.3,0,0,0-1.417.281,13.232,13.232,0,0,0-1.366.464c-.446.178-.883.374-1.31.577s-.843.413-1.248.618c-.585.29-1.118.551-1.6.765a8.763,8.763,0,0,1-1.313.482,2.621,2.621,0,0,1-1.051.088,1.431,1.431,0,0,1-.814-.416A.428.428,0,0,0,44,7.193a.41.41,0,0,0-.259.065.349.349,0,0,0-.15.212.429.429,0,0,0,.058.311,4.689,4.689,0,0,0,.312.468,3.147,3.147,0,0,0,.336.378,2.172,2.172,0,0,0,.362.28,1.653,1.653,0,0,0,.39.175,1.858,1.858,0,0,0,.72.049,3.222,3.222,0,0,0,.763-.2,8.093,8.093,0,0,0,.827-.379c.288-.149.591-.316.911-.491l.409-.225q.207-.113.421-.225t.436-.225q.222-.113.454-.225a5.827,5.827,0,0,0-.69,1.092,7.062,7.062,0,0,0-.478,1.3,9.416,9.416,0,0,0-.264,1.5,13.168,13.168,0,0,0-.048,1.711,8.366,8.366,0,0,0,.15,1.313,4.943,4.943,0,0,0,.332,1.06,3.184,3.184,0,0,0,.516.809,2.611,2.611,0,0,0,.7.559,2.754,2.754,0,0,0,1.04.313,4.171,4.171,0,0,0,1.132-.048,6.087,6.087,0,0,0,1.121-.31,7.049,7.049,0,0,0,1.007-.475.944.944,0,0,0,.172-.117.667.667,0,0,0,.125-.143.618.618,0,0,0,.077-.173.785.785,0,0,0,.026-.207.719.719,0,0,0-.156-.459.738.738,0,0,0-.372-.243.746.746,0,0,0-.443.008.7.7,0,0,0-.37.295c-.2.09-.415.186-.649.273a4.921,4.921,0,0,1-.731.213,2.753,2.753,0,0,1-.746.055,1.671,1.671,0,0,1-.694-.2,1.57,1.57,0,0,1-.454-.364,2.17,2.17,0,0,1-.341-.554,3.7,3.7,0,0,1-.229-.745,6.584,6.584,0,0,1-.116-.938,13.348,13.348,0,0,1,.006-1.608,9.16,9.16,0,0,1,.2-1.43A6.558,6.558,0,0,1,50.231,8.4a5.2,5.2,0,0,1,.636-1.057,2.926,2.926,0,0,1,.4-.418,3.131,3.131,0,0,1,.443-.317,4.577,4.577,0,0,1,.488-.249c.17-.076.348-.146.533-.216a3.427,3.427,0,0,1,.4-.115c.169-.04.364-.081.559-.117s.39-.068.559-.091a3.4,3.4,0,0,1,.4-.037.619.619,0,0,0,.267-.044.64.64,0,0,0,.216-.146.688.688,0,0,0,.145-.221A.71.71,0,0,0,55.327,5.1ZM78.61,8.161a.342.342,0,0,0-.01-.129.322.322,0,0,0-.055-.111.31.31,0,0,0-.093-.081A.318.318,0,0,0,78.33,7.8a13.19,13.19,0,0,1-1.869-.339,12.358,12.358,0,0,1-1.711-.576,11.07,11.07,0,0,1-1.516-.778,9.393,9.393,0,0,1-1.284-.947.7.7,0,0,0,.032-.241.724.724,0,0,0-.049-.232.76.76,0,0,0-.12-.205.782.782,0,0,0-.182-.162.791.791,0,0,0-.267-.1.867.867,0,0,0-.3-.006.808.808,0,0,0-.284.1.751.751,0,0,0-.233.211,17.989,17.989,0,0,1-1.235,1.5c-.436.478-.89.932-1.34,1.355s-.9.814-1.318,1.167-.818.668-1.168.938V4.141H77.75a.707.707,0,0,0,.293-.063.735.735,0,0,0,.235-.17.79.79,0,0,0,.156-.248.816.816,0,0,0,.057-.3.826.826,0,0,0-.06-.311.8.8,0,0,0-.165-.254.766.766,0,0,0-.555-.235.826.826,0,0,0-.311.06.8.8,0,0,0-.254.165.766.766,0,0,0-.235.555H71.549V1.88a.69.69,0,0,0-.053-.267.671.671,0,0,0-.361-.361.69.69,0,0,0-.267-.053.711.711,0,0,0-.493.2.68.68,0,0,0-.152.216.659.659,0,0,0-.056.267V3.34H65.448a.7.7,0,0,0-.367-.3.731.731,0,0,0-.436-.01.721.721,0,0,0-.365.238.7.7,0,0,0-.153.448V9.641c-.165.08-.366.183-.59.3s-.469.248-.723.386-.516.281-.772.423-.506.282-.736.412a.72.72,0,0,0-.3.32.841.841,0,0,0-.079.427.781.781,0,0,0,.15.408.733.733,0,0,0,.388.264.813.813,0,0,0,.37.028.656.656,0,0,0,.3-.131.829.829,0,0,0,.213-.255,1.191,1.191,0,0,0,.123-.343c.115-.1.256-.22.409-.349l.476-.4c.16-.136.316-.271.454-.392s.256-.23.341-.315c-.03.78-.084,1.49-.17,2.149a13.061,13.061,0,0,1-.367,1.839,9.9,9.9,0,0,1-.619,1.641,10.794,10.794,0,0,1-.924,1.552.3.3,0,0,0-.059.228.309.309,0,0,0,.109.187.324.324,0,0,0,.214.074.4.4,0,0,0,.256-.109,7.922,7.922,0,0,0,1.505-1.755,7.811,7.811,0,0,0,.86-1.933,11.839,11.839,0,0,0,.4-2.109c.079-.732.113-1.494.133-2.284a.227.227,0,0,0,.079.072.328.328,0,0,0,.106.036.393.393,0,0,0,.113,0,.319.319,0,0,0,.1-.03c.05-.025.11-.058.176-.095s.138-.079.212-.123L66.5,9.63l.21-.128a.479.479,0,0,0-.067.085.587.587,0,0,0-.05.1.661.661,0,0,0-.043.233v5.061a.58.58,0,1,0,1.16,0v-1.62h2.08v.8h-.7a.318.318,0,0,0-.236.091.292.292,0,0,0,0,.4.318.318,0,0,0,.236.091h.42a.726.726,0,0,0,.045.293.677.677,0,0,0,.15.235.7.7,0,0,0,.233.156.788.788,0,0,0,.565.008.663.663,0,0,0,.388-.382.884.884,0,0,0,.059-.33V9.861a.547.547,0,0,0-.133-.367.588.588,0,0,0-.313-.183.614.614,0,0,0-.365.027.568.568,0,0,0-.29.263h-2.24a.563.563,0,0,0-.129-.142.59.59,0,0,0-.166-.091.61.61,0,0,0-.189-.035.617.617,0,0,0-.2.027l.4-.259c.143-.093.293-.191.45-.3s.318-.216.483-.334.334-.241.5-.371a.391.391,0,0,0-.06.2.375.375,0,0,0,.181.326.383.383,0,0,0,.2.054h3.58a.747.747,0,0,0,.278-.053.69.69,0,0,0,.222-.143.654.654,0,0,0,.147-.21.636.636,0,0,0,.053-.255.646.646,0,0,0-.052-.255.675.675,0,0,0-.353-.353.646.646,0,0,0-.255-.053.686.686,0,0,0-.23.039.673.673,0,0,0-.2.111.654.654,0,0,0-.233.39l-3.06.02c.18-.14.383-.308.6-.492s.435-.386.655-.593.438-.421.64-.631.39-.414.55-.6a14.937,14.937,0,0,0,1.184,1.187,13.376,13.376,0,0,0,1.309,1.035,11.054,11.054,0,0,0,1.4.829,8.681,8.681,0,0,0,1.465.569,1.226,1.226,0,0,0,.475.049.693.693,0,0,0,.355-.139.616.616,0,0,0,.205-.3,1,1,0,0,0,.025-.446l.42.06a.323.323,0,0,0,.126-.01.286.286,0,0,0,.1-.055.3.3,0,0,0,.074-.093A.35.35,0,0,0,78.61,8.161Zm-15.062-.64a.979.979,0,0,0-.113-.427,2.159,2.159,0,0,0-.34-.483,4.143,4.143,0,0,0-.569-.513,6.77,6.77,0,0,0-.8-.517.322.322,0,0,0-.22-.034.317.317,0,0,0-.175.1.323.323,0,0,0-.078.194.38.38,0,0,0,.073.236c.055.075.123.174.2.285s.152.235.229.36.154.251.222.368.128.223.173.308a.918.918,0,0,0,.025.317.749.749,0,0,0,.13.268.641.641,0,0,0,.228.186.719.719,0,0,0,.318.069.7.7,0,0,0,.278-.056.68.68,0,0,0,.222-.154.708.708,0,0,0,.147-.229A.758.758,0,0,0,63.548,7.521Zm12.7,2.26a.656.656,0,0,0-.049-.252.625.625,0,0,0-.339-.339.667.667,0,0,0-.5,0,.625.625,0,0,0-.339.339.656.656,0,0,0-.049.252V13.9h-.68a.329.329,0,0,0-.248.1.317.317,0,0,0,0,.426.329.329,0,0,0,.248.1h.5a.749.749,0,0,0,.72.96.769.769,0,0,0,.293-.057.713.713,0,0,0,.391-.391.769.769,0,0,0,.057-.293Zm-2.88.52a.612.612,0,0,0-.049-.24.629.629,0,0,0-.331-.331.612.612,0,0,0-.24-.049.586.586,0,0,0-.428.183.618.618,0,0,0-.127.2.645.645,0,0,0-.046.24v3.48a.645.645,0,0,0,.046.24.618.618,0,0,0,.127.2.586.586,0,0,0,.428.183.612.612,0,0,0,.24-.049.629.629,0,0,0,.331-.331.612.612,0,0,0,.049-.24Zm-5.661,0h2.08v.86h-2.08Zm0,1.54h2.08v.84h-2.08Zm5.321,4.5a1.018,1.018,0,0,0-.146-.307,1.781,1.781,0,0,0-.3-.333,2.883,2.883,0,0,0-.472-.333,4.443,4.443,0,0,0-.663-.307.345.345,0,0,0-.217-.015.276.276,0,0,0-.151.107.323.323,0,0,0-.057.186.428.428,0,0,0,.065.222l.52.88a.7.7,0,0,0,.056.338.747.747,0,0,0,.5.421.708.708,0,0,0,.349,0,.741.741,0,0,0,.256-.123.727.727,0,0,0,.184-.2.7.7,0,0,0,.094-.254A.68.68,0,0,0,73.029,16.342Zm5.7,1.54a1.342,1.342,0,0,0-.186-.509,2.616,2.616,0,0,0-.447-.549,4.771,4.771,0,0,0-.72-.56,7.854,7.854,0,0,0-1.007-.543.309.309,0,0,0-.217-.02.325.325,0,0,0-.168.115.337.337,0,0,0-.071.2.367.367,0,0,0,.076.228c.07.1.164.22.269.36l.338.452c.116.156.232.313.335.456s.193.272.258.372a.879.879,0,0,0,.044.357.816.816,0,0,0,.176.293.744.744,0,0,0,.281.188.765.765,0,0,0,.359.042.788.788,0,0,0,.292-.1.828.828,0,0,0,.228-.2.8.8,0,0,0,.138-.269A.73.73,0,0,0,78.73,17.882Zm-3.16.54a.763.763,0,0,0-.092-.366.785.785,0,0,0-.238-.267.8.8,0,0,0-.328-.135.751.751,0,0,0-.362.028v-.56a.311.311,0,0,0-.022-.114.3.3,0,0,0-.061-.1.286.286,0,0,0-.095-.066.311.311,0,0,0-.123-.024.307.307,0,0,0-.118.024.354.354,0,0,0-.1.066.326.326,0,0,0-.073.1.259.259,0,0,0-.028.114v.9h-4.4a.767.767,0,0,1-.107-.005.121.121,0,0,1-.06-.022.081.081,0,0,1-.027-.048.417.417,0,0,1-.006-.084v-1.54a.612.612,0,0,0-.049-.24.629.629,0,0,0-.331-.331.612.612,0,0,0-.24-.049.634.634,0,0,0-.243.049.665.665,0,0,0-.2.133.637.637,0,0,0-.14.2.583.583,0,0,0-.052.24v1.52a1.752,1.752,0,0,0,.093.6,1.047,1.047,0,0,0,.279.424,1.184,1.184,0,0,0,.463.252,2.244,2.244,0,0,0,.645.083h5.241a.8.8,0,0,0,.308-.06.758.758,0,0,0,.413-.413A.8.8,0,0,0,75.569,18.422Zm-9.121-1.98a.316.316,0,0,0-.072-.208.312.312,0,0,0-.171-.1.34.34,0,0,0-.2.018.364.364,0,0,0-.173.153c-.045.07-.1.158-.171.254s-.143.2-.222.308-.161.213-.24.312-.157.19-.227.265a.766.766,0,0,0-.353.118.8.8,0,0,0-.252.257.75.75,0,0,0-.109.339.706.706,0,0,0,.074.366.748.748,0,0,0,.223.275.8.8,0,0,0,.3.14.832.832,0,0,0,.318.013.68.68,0,0,0,.279-.108,1.7,1.7,0,0,0,.4-.406,2.856,2.856,0,0,0,.317-.577,3.772,3.772,0,0,0,.283-1.418Zm30.4-9.761a.766.766,0,0,0-.053-.287.664.664,0,0,0-.147-.223.694.694,0,0,0-.222-.148.819.819,0,0,0-.278-.062q-.66-.023-1.269-.013T93.712,6q-.563.038-1.081.1t-1,.145c.025-.345.049-.661.062-.951a6.748,6.748,0,0,0,0-.789,2.462,2.462,0,0,0-.122-.639,1.408,1.408,0,0,0-.3-.5,1.388,1.388,0,0,0-.255-.213,1.627,1.627,0,0,0-.317-.159,2.163,2.163,0,0,0-.381-.1,3.081,3.081,0,0,0-.447-.045.5.5,0,0,0-.32.1.386.386,0,0,0-.14.238.38.38,0,0,0,.055.268.476.476,0,0,0,.265.193.9.9,0,0,1,.493.387,1.5,1.5,0,0,1,.184.64,5.712,5.712,0,0,1,0,.832c-.017.3-.043.626-.058.961l-.531.105-.509.105c-.165.035-.325.07-.479.105s-.3.07-.441.105c-.5.12-.935.228-1.334.306a6.17,6.17,0,0,1-1.089.134,2.66,2.66,0,0,1-.927-.136,2.618,2.618,0,0,1-.85-.5.53.53,0,0,0-.261-.132.364.364,0,0,0-.237.037.356.356,0,0,0-.158.179.53.53,0,0,0-.025.3,2.687,2.687,0,0,0,.116.405,2.075,2.075,0,0,0,.167.345,1.721,1.721,0,0,0,.215.285,1.587,1.587,0,0,0,.262.225,1.7,1.7,0,0,0,.686.247,3.5,3.5,0,0,0,.857.005A9.476,9.476,0,0,0,86.839,8.4c.37-.079.767-.177,1.192-.282L88.548,8c.179-.043.366-.088.558-.132s.391-.087.6-.128.414-.08.629-.115c0,.135,0,.279,0,.429s.005.308.009.471.008.33.013.5.01.344.015.519a2.529,2.529,0,0,0-.706-.138,2.3,2.3,0,0,0-.7.07,1.985,1.985,0,0,0-.625.284,1.835,1.835,0,0,0-.492.5,1.557,1.557,0,0,0-.206.507,1.6,1.6,0,0,0-.017.55,2.04,2.04,0,0,0,.175.577,2.927,2.927,0,0,0,.368.586q1.17,1.5,2.04,1.5a4.115,4.115,0,0,1-.52.862,4.263,4.263,0,0,1-.79.768,5.673,5.673,0,0,1-1.12.648,8.917,8.917,0,0,1-1.51.5.515.515,0,0,0-.324.2.391.391,0,0,0-.061.3.4.4,0,0,0,.171.254.515.515,0,0,0,.374.066,9.015,9.015,0,0,0,2.978-1A4.985,4.985,0,0,0,91.1,15.039a4.544,4.544,0,0,0,.7-1.8,5.849,5.849,0,0,0,.008-1.781c-.015-.1-.034-.186-.056-.274s-.047-.171-.074-.251-.058-.156-.089-.229-.066-.141-.1-.206q-.022-.443-.027-.858t0-.8q.008-.386.025-.742c.011-.237.025-.463.04-.678q.51-.068,1.046-.111t1.095-.054q.559-.011,1.14.013t1.181.092a.915.915,0,0,0,.326-.013.71.71,0,0,0,.269-.124A.642.642,0,0,0,96.774,7,.774.774,0,0,0,96.852,6.681Zm-6.481,4.161c0,.3-.009.55-.027.758a2.8,2.8,0,0,1-.081.5.793.793,0,0,1-.137.293.368.368,0,0,1-.2.128.256.256,0,0,1-.178-.027,1.2,1.2,0,0,1-.27-.173A2.6,2.6,0,0,1,89.158,12a3.89,3.89,0,0,1-.347-.477A1.687,1.687,0,0,1,88.7,11.3a1.135,1.135,0,0,1-.076-.248.7.7,0,0,1,0-.255.546.546,0,0,1,.111-.24.808.808,0,0,1,.388-.274.955.955,0,0,1,.469-.028,1.109,1.109,0,0,1,.45.193A1.075,1.075,0,0,1,90.371,10.841Z" fill="#583c27"/>
</svg>
