<?xml version="1.0" encoding="utf-8"?>
<!-- Generator: Adobe Illustrator 25.2.1, SVG Export Plug-In . SVG Version: 6.00 Build 0)  -->
<svg version="1.1" id="レイヤー_1" xmlns="http://www.w3.org/2000/svg" xmlns:xlink="http://www.w3.org/1999/xlink" x="0px"
	 y="0px" viewBox="0 0 467.7 467.7" style="enable-background:new 0 0 467.7 467.7;" xml:space="preserve">
<style type="text/css">
	.st0{clip-path:url(#SVGID_2_);}
	.st1{fill:#EAEAEA;}
	.st2{fill:none;stroke:#FFFFFF;stroke-width:8;stroke-miterlimit:10;}
	.st3{fill:none;stroke:#FFFFFF;stroke-width:10;stroke-miterlimit:10;}
	.st4{fill:none;stroke:#FFFFFF;stroke-width:18;stroke-miterlimit:10;}
	.st5{fill:#FF5B6A;}
	.st6{fill:none;stroke:#D4F7FF;stroke-width:36;stroke-miterlimit:10;}
	.st7{fill:none;stroke:#7F7F7F;stroke-width:8;stroke-miterlimit:10;}
	.st8{fill:none;stroke:#FFFFFF;stroke-width:4;stroke-miterlimit:10;}
	.st9{fill:none;stroke:#FFFFFF;stroke-width:4;stroke-miterlimit:10;stroke-dasharray:19.91,19.91;}
	.st10{fill:none;stroke:#FFFFFF;stroke-width:31;stroke-miterlimit:10;}
	.st11{fill:none;stroke:#9E9E9F;stroke-width:3;stroke-miterlimit:10;}
	.st12{enable-background:new    ;}
	.st13{fill:none;stroke:#FFFFFF;stroke-width:5;stroke-linecap:round;stroke-linejoin:round;}
	.st14{fill:#583C27;}
	.st15{fill:none;stroke:#583C27;stroke-width:3;stroke-linecap:round;stroke-linejoin:round;}
	.st16{fill:#FFFFFF;}
	.st17{fill:none;stroke:#583C27;stroke-width:1.5;stroke-miterlimit:10;}
	.st18{fill:#5D5FA9;}
	.st19{fill:none;stroke:#FF5B6A;stroke-width:2;stroke-linecap:round;stroke-linejoin:round;}
	.st20{fill:none;stroke:#583C27;stroke-width:2;stroke-linejoin:round;}
	.st21{fill:#FFFFFF;stroke:#583C27;stroke-width:0.6;stroke-miterlimit:10;}
	.st22{fill:#FF687A;}
	.st23{fill:#FFC240;}
	.st24{fill:#8EC6CA;}
</style>
<g id="レイヤー_2_1_">
	<g id="レイヤー_1-2">
		<g>
			<defs>
				<rect id="SVGID_1_" width="467.7" height="467.7"/>
			</defs>
			<clipPath id="SVGID_2_">
				<use xlink:href="#SVGID_1_"  style="overflow:visible;"/>
			</clipPath>
			<g class="st0">
				<rect class="st1" width="467.7" height="467.7"/>
				<line class="st2" x1="308.2" y1="-11.8" x2="308.2" y2="183.2"/>
				<line class="st2" x1="371" y1="195" x2="371" y2="511.1"/>
				<line class="st3" x1="187.7" y1="195" x2="187.7" y2="511.1"/>
				<line class="st2" x1="119.2" y1="-10.3" x2="119.2" y2="511.1"/>
				<path class="st4" d="M267.9,193v137.3c0,13-12,25.5-25.5,25.5h-55.1"/>
				<line class="st2" x1="260.2" y1="262.2" x2="469.6" y2="262.2"/>
				<line class="st2" x1="268.4" y1="338.9" x2="268.4" y2="383.4"/>
				<line class="st2" x1="370.5" y1="387" x2="469.6" y2="387"/>
				<line class="st2" x1="260.2" y1="316.6" x2="469.6" y2="316.6"/>
				<line class="st2" x1="185.2" y1="246.9" x2="265.3" y2="246.9"/>
				<line class="st2" x1="120.8" y1="358.4" x2="192" y2="358.4"/>
				<line class="st2" x1="185.2" y1="288.1" x2="265.3" y2="288.1"/>
				<path class="st5" d="M240.8,339.6c2.6,0,3.9-1.6,3.9-3.4c0-3.4-3.1-4.8-3.1-11.7c0-0.4-0.3-0.8-0.7-0.9c-0.4,0-0.8,0.3-0.9,0.7
					c0,0.1,0,0.1,0,0.2c0,6.9-3.1,8.2-3.1,11.7C236.9,338,238,339.6,240.8,339.6z"/>
				<path class="st5" d="M246.8,334.2c-0.5,0-0.8-0.4-0.9-0.8c0-0.3,0.2-0.6,0.4-0.8c5.7-3.1,7.8-10.2,4.7-15.9
					c-3.1-5.7-10.2-7.8-15.9-4.7c-5.7,3.1-7.8,10.2-4.7,15.9c1.1,2,2.7,3.6,4.7,4.7c0.4,0.2,0.6,0.7,0.4,1.1s-0.7,0.6-1.1,0.4
					c0,0,0,0-0.1,0c-6.5-3.6-8.9-11.7-5.4-18.2c3.6-6.5,11.7-8.9,18.2-5.4c6.5,3.6,8.9,11.7,5.4,18.2c-1.2,2.3-3.1,4.1-5.4,5.4
					C247.1,334.2,247,334.2,246.8,334.2z"/>
				<line class="st6" x1="89.9" y1="547.8" x2="89.9" y2="-38.4"/>
				<line class="st7" x1="-29.3" y1="34.6" x2="488.5" y2="34.6"/>
				<line class="st8" x1="-29.3" y1="34.6" x2="-19.3" y2="34.6"/>
				<line class="st9" x1="0.6" y1="34.6" x2="468.5" y2="34.6"/>
				<line class="st8" x1="478.5" y1="34.6" x2="488.5" y2="34.6"/>
				<line class="st10" x1="523.7" y1="81.6" x2="-62.5" y2="81.6"/>
				<line class="st11" x1="523.7" y1="81.6" x2="-62.5" y2="81.6"/>
				<g class="st12">
					<path class="st13" d="M411.1,30.1l1.2,0.1c0,0.1-0.1,0.2-0.3,0.2v9.1h-1v-1.1h-9.3v1.2h-1v-9.5l1.2,0.1c0,0.1-0.1,0.2-0.3,0.2
						v7h4.1V27l1.3,0.1c0,0.1-0.1,0.2-0.3,0.2v10.1h4.2V30.1z"/>
					<path class="st13" d="M427,33.6h-5.8c-0.1,0.4-0.3,0.7-0.5,1.1h4.9l0.2,0l0.5,0.1c0,0.1,0,0.2,0,0.3c-0.1,3-0.3,4-0.6,4.4
						c-0.3,0.4-0.7,0.4-1.2,0.4c-0.2,0-0.5,0-0.8,0c0-0.2-0.1-0.6-0.2-0.8c0.5,0,0.9,0.1,1.1,0.1c0.2,0,0.3,0,0.4-0.1
						c0.2-0.2,0.3-1.1,0.4-3.4h-1c-0.5,1.7-1.5,3.3-2.6,4.3c-0.1-0.1-0.4-0.4-0.6-0.5c1-0.8,1.9-2.2,2.4-3.7h-1.3
						c-0.8,1.6-2.1,3.2-3.4,4.1c-0.1-0.2-0.4-0.5-0.5-0.6c1.2-0.8,2.3-2,3.1-3.5h-1.2c-0.5,0.8-1.2,1.5-1.9,2
						c-0.1-0.2-0.4-0.4-0.6-0.6c1-0.7,1.9-1.9,2.5-3.2h-1.9c0.1,0.3,0.1,0.6,0.1,0.9c0,2-1.2,2-2.3,1.9c0-0.2-0.1-0.6-0.2-0.8
						c0.2,0,0.4,0,0.6,0c0.5,0,1.1,0,1.1-1.2c0-0.8-0.4-1.7-1.5-2.9c0.4-1.1,0.9-2.4,1.2-3.3h-2v11.6h-0.9V27.3h3.3l0.2,0l0.6,0.4
						c0,0-0.1,0.1-0.1,0.1c-0.4,1.1-0.9,2.5-1.4,3.6c0.7,0.7,1.1,1.4,1.3,2v-0.6h8.6V33.6z M425.7,27.3v4.6h-6.1v-4.6H425.7z
						 M424.8,29.2V28h-4.3v1.2H424.8z M424.8,31.1v-1.2h-4.3v1.2H424.8z"/>
					<path class="st13" d="M440.7,30.7h-5.1c1.2,2.5,3.3,4.8,5.6,5.9c-0.2,0.2-0.5,0.6-0.7,0.8c-2.2-1.2-4.2-3.4-5.5-6v4.6h2.8v1
						h-2.8v2.7h-1V37h-2.8v-1h2.8v-4.6c-1.3,2.5-3.3,4.7-5.4,6c-0.2-0.2-0.5-0.6-0.7-0.8c2.2-1.1,4.3-3.5,5.5-6h-5.1v-1h5.7v-3
						l1.3,0.1c0,0.1-0.1,0.2-0.3,0.2v2.8h5.7V30.7z"/>
					<path class="st13" d="M445.9,31.2c0.6,0.9,1.3,2.1,1.6,2.9l-0.8,0.4c-0.1-0.3-0.2-0.5-0.3-0.8c-0.4,0-0.8,0-1.2,0.1v6h-0.8v-6
						c-0.8,0-1.5,0.1-2,0.1c0,0.1-0.1,0.2-0.2,0.2l-0.3-1.1h1c0.3-0.4,0.6-0.8,1-1.3c-0.4-0.6-1.2-1.5-1.8-2.1l0.5-0.6
						c0.1,0.1,0.3,0.3,0.4,0.4c0.5-0.8,1-1.9,1.3-2.7l1,0.4c0,0.1-0.1,0.1-0.3,0.1c-0.4,0.8-1,1.9-1.5,2.7c0.3,0.3,0.6,0.7,0.8,1
						c0.6-0.9,1.2-1.9,1.6-2.7l1,0.5c0,0.1-0.2,0.1-0.3,0.1c-0.7,1.2-1.8,2.9-2.8,4.1l2.4,0c-0.3-0.5-0.5-1-0.8-1.4L445.9,31.2z
						 M443.7,35.1c0,0.1-0.1,0.1-0.3,0.1c-0.2,1.2-0.5,2.5-0.9,3.4c-0.2-0.1-0.5-0.3-0.7-0.4c0.4-0.8,0.7-2.1,0.9-3.4L443.7,35.1z
						 M446.4,34.8c0.4,0.8,0.8,1.9,0.9,2.6c-0.2,0.1-0.3,0.1-0.8,0.3c-0.1-0.7-0.5-1.8-0.9-2.6L446.4,34.8z M449.6,34.4l0.5,0.2
						c0,0.1-0.1,0.1-0.1,0.1c-0.5,2.2-1.6,3.7-3,4.5c-0.1-0.2-0.4-0.5-0.6-0.7c1.2-0.6,2.2-1.7,2.6-3.3h-2v-0.8h2.4L449.6,34.4z
						 M451.4,33.1c0,0.6,0.5,1.8,0.8,2.4c0.7-0.5,1.4-1.2,1.9-1.8c0.7,0.5,0.8,0.6,0.9,0.7c0,0.1-0.2,0.1-0.3,0.1
						c-0.5,0.5-1.4,1.2-2.1,1.7c0.6,0.9,1.4,1.7,2.6,2.2c-0.2,0.2-0.4,0.5-0.6,0.8c-1.6-0.9-2.6-2.3-3.2-3.7v3.1c0,1-0.4,1-2.2,1
						c0-0.3-0.2-0.6-0.3-0.8c0.7,0,1.2,0,1.4,0c0.2,0,0.2-0.1,0.2-0.2v-5.5h-2.8v-5h2.2c0.2-0.5,0.5-1.1,0.6-1.5l1.2,0.3
						c0,0.1-0.1,0.1-0.3,0.1c-0.1,0.3-0.3,0.7-0.5,1.1h3.5v5H451.4z M448.6,29v1.3h4.9V29H448.6z M448.6,31v1.3h4.9V31H448.6z"/>
				</g>
				<g class="st12">
					<path class="st14" d="M411.1,30.1l1.2,0.1c0,0.1-0.1,0.2-0.3,0.2v9.1h-1v-1.1h-9.3v1.2h-1v-9.5l1.2,0.1c0,0.1-0.1,0.2-0.3,0.2
						v7h4.1V27l1.3,0.1c0,0.1-0.1,0.2-0.3,0.2v10.1h4.2V30.1z"/>
					<path class="st14" d="M427,33.6h-5.8c-0.1,0.4-0.3,0.7-0.5,1.1h4.9l0.2,0l0.5,0.1c0,0.1,0,0.2,0,0.3c-0.1,3-0.3,4-0.6,4.4
						c-0.3,0.4-0.7,0.4-1.2,0.4c-0.2,0-0.5,0-0.8,0c0-0.2-0.1-0.6-0.2-0.8c0.5,0,0.9,0.1,1.1,0.1c0.2,0,0.3,0,0.4-0.1
						c0.2-0.2,0.3-1.1,0.4-3.4h-1c-0.5,1.7-1.5,3.3-2.6,4.3c-0.1-0.1-0.4-0.4-0.6-0.5c1-0.8,1.9-2.2,2.4-3.7h-1.3
						c-0.8,1.6-2.1,3.2-3.4,4.1c-0.1-0.2-0.4-0.5-0.5-0.6c1.2-0.8,2.3-2,3.1-3.5h-1.2c-0.5,0.8-1.2,1.5-1.9,2
						c-0.1-0.2-0.4-0.4-0.6-0.6c1-0.7,1.9-1.9,2.5-3.2h-1.9c0.1,0.3,0.1,0.6,0.1,0.9c0,2-1.2,2-2.3,1.9c0-0.2-0.1-0.6-0.2-0.8
						c0.2,0,0.4,0,0.6,0c0.5,0,1.1,0,1.1-1.2c0-0.8-0.4-1.7-1.5-2.9c0.4-1.1,0.9-2.4,1.2-3.3h-2v11.6h-0.9V27.3h3.3l0.2,0l0.6,0.4
						c0,0-0.1,0.1-0.1,0.1c-0.4,1.1-0.9,2.5-1.4,3.6c0.7,0.7,1.1,1.4,1.3,2v-0.6h8.6V33.6z M425.7,27.3v4.6h-6.1v-4.6H425.7z
						 M424.8,29.2V28h-4.3v1.2H424.8z M424.8,31.1v-1.2h-4.3v1.2H424.8z"/>
					<path class="st14" d="M440.7,30.7h-5.1c1.2,2.5,3.3,4.8,5.6,5.9c-0.2,0.2-0.5,0.6-0.7,0.8c-2.2-1.2-4.2-3.4-5.5-6v4.6h2.8v1
						h-2.8v2.7h-1V37h-2.8v-1h2.8v-4.6c-1.3,2.5-3.3,4.7-5.4,6c-0.2-0.2-0.5-0.6-0.7-0.8c2.2-1.1,4.3-3.5,5.5-6h-5.1v-1h5.7v-3
						l1.3,0.1c0,0.1-0.1,0.2-0.3,0.2v2.8h5.7V30.7z"/>
					<path class="st14" d="M445.9,31.2c0.6,0.9,1.3,2.1,1.6,2.9l-0.8,0.4c-0.1-0.3-0.2-0.5-0.3-0.8c-0.4,0-0.8,0-1.2,0.1v6h-0.8v-6
						c-0.8,0-1.5,0.1-2,0.1c0,0.1-0.1,0.2-0.2,0.2l-0.3-1.1h1c0.3-0.4,0.6-0.8,1-1.3c-0.4-0.6-1.2-1.5-1.8-2.1l0.5-0.6
						c0.1,0.1,0.3,0.3,0.4,0.4c0.5-0.8,1-1.9,1.3-2.7l1,0.4c0,0.1-0.1,0.1-0.3,0.1c-0.4,0.8-1,1.9-1.5,2.7c0.3,0.3,0.6,0.7,0.8,1
						c0.6-0.9,1.2-1.9,1.6-2.7l1,0.5c0,0.1-0.2,0.1-0.3,0.1c-0.7,1.2-1.8,2.9-2.8,4.1l2.4,0c-0.3-0.5-0.5-1-0.8-1.4L445.9,31.2z
						 M443.7,35.1c0,0.1-0.1,0.1-0.3,0.1c-0.2,1.2-0.5,2.5-0.9,3.4c-0.2-0.1-0.5-0.3-0.7-0.4c0.4-0.8,0.7-2.1,0.9-3.4L443.7,35.1z
						 M446.4,34.8c0.4,0.8,0.8,1.9,0.9,2.6c-0.2,0.1-0.3,0.1-0.8,0.3c-0.1-0.7-0.5-1.8-0.9-2.6L446.4,34.8z M449.6,34.4l0.5,0.2
						c0,0.1-0.1,0.1-0.1,0.1c-0.5,2.2-1.6,3.7-3,4.5c-0.1-0.2-0.4-0.5-0.6-0.7c1.2-0.6,2.2-1.7,2.6-3.3h-2v-0.8h2.4L449.6,34.4z
						 M451.4,33.1c0,0.6,0.5,1.8,0.8,2.4c0.7-0.5,1.4-1.2,1.9-1.8c0.7,0.5,0.8,0.6,0.9,0.7c0,0.1-0.2,0.1-0.3,0.1
						c-0.5,0.5-1.4,1.2-2.1,1.7c0.6,0.9,1.4,1.7,2.6,2.2c-0.2,0.2-0.4,0.5-0.6,0.8c-1.6-0.9-2.6-2.3-3.2-3.7v3.1c0,1-0.4,1-2.2,1
						c0-0.3-0.2-0.6-0.3-0.8c0.7,0,1.2,0,1.4,0c0.2,0,0.2-0.1,0.2-0.2v-5.5h-2.8v-5h2.2c0.2-0.5,0.5-1.1,0.6-1.5l1.2,0.3
						c0,0.1-0.1,0.1-0.3,0.1c-0.1,0.3-0.3,0.7-0.5,1.1h3.5v5H451.4z M448.6,29v1.3h4.9V29H448.6z M448.6,31v1.3h4.9V31H448.6z"/>
				</g>
				<path class="st10" d="M515.8,186.3h-444c-48.3,0-87,49.8-94.5,104.2"/>
				<g class="st12">
					<path class="st14" d="M363.7,180.4h5.5v3.3h-1v-2.4h-10v2.4h-0.9v-3.3h5.4v-1.7l1.2,0.1c0,0.1-0.1,0.2-0.3,0.2V180.4z
						 M366.8,186.1h-3.2c0,0.4-0.1,0.8-0.2,1.3h4.6v4.4h-1v-0.5h-7.4v0.5h-0.9v-4.4h3.8c0.1-0.4,0.1-0.9,0.2-1.3h-3v-3.6h7.1V186.1z
						 M367,190.4v-2.2h-7.4v2.2H367z M360.6,183.3v2h5.3v-2H360.6z"/>
					<path class="st14" d="M379.3,190.8h-6.8v0.7h-0.9v-3l1.1,0.1c0,0.1-0.1,0.2-0.3,0.2v1.2h2.5v-1.8l1.2,0.1
						c0,0.1-0.1,0.2-0.3,0.2v1.6h2.5v-1.6l1.2,0.1c0,0.1-0.1,0.2-0.3,0.2V190.8z M383.6,186.2h-9.9v1.1h8.7l0.2,0l0.5,0.1
						c0,0.1,0,0.2-0.1,0.3c-0.2,2.5-0.4,3.5-0.8,3.9c-0.3,0.3-0.6,0.4-1.4,0.4c-0.4,0-0.8,0-1.3,0c0-0.3-0.1-0.6-0.2-0.8
						c0.7,0.1,1.4,0.1,1.7,0.1c0.3,0,0.4,0,0.5-0.1c0.2-0.2,0.4-1,0.6-2.9h-9.3V180h3.3c0.2-0.4,0.4-0.9,0.5-1.2l1.2,0.3
						c0,0.1-0.1,0.1-0.3,0.1c-0.1,0.2-0.3,0.5-0.4,0.8h4.4v4.4h-7.8v1h9.9V186.2z M380.5,180.7h-6.8v1.1h6.8V180.7z M373.7,183.7
						h6.8v-1.2h-6.8V183.7z"/>
					<path class="st14" d="M388.3,179.2c0,0.1-0.1,0.1-0.3,0.1c-0.6,0.9-1.8,2.2-2.8,3.1c-0.1-0.2-0.4-0.5-0.5-0.7
						c0.9-0.8,2-2,2.6-2.9L388.3,179.2z M386.4,185.6c-0.4,0.6-0.8,1.1-1.2,1.6c-0.1-0.2-0.3-0.6-0.5-0.8c1-1.1,2.1-2.9,2.8-4.6
						l1.1,0.4c0,0.1-0.1,0.1-0.3,0.1c-0.3,0.6-0.6,1.2-1,1.8l0.3,0.1c0,0.1-0.1,0.2-0.3,0.2v7.3h-0.9V185.6z M394,189.1l0,0.8
						c-2.1,0.3-4.2,0.6-5.5,0.8c0,0.1-0.1,0.2-0.2,0.2l-0.3-1.1c0.7-0.1,1.6-0.2,2.5-0.3v-2.3h-2.1v-0.8h2.1v-1.8l1.2,0.1
						c0,0.1-0.1,0.2-0.3,0.2v1.6h2.1v0.8h-2.1v2.2L394,189.1z M390.5,183.5v-2.1h-1.9v-0.8h1.9v-1.8l1.2,0.1c0,0.1-0.1,0.2-0.3,0.2
						v1.6h1.9v0.8h-1.9v2.1h2.2v0.8h-5.4v-0.8H390.5z M397.8,183.6v0.9h-1.4v6.2c0,1.1-0.4,1.2-2.6,1.2c-0.1-0.3-0.2-0.7-0.3-1
						c0.5,0,0.9,0,1.2,0c0.7,0,0.8,0,0.8-0.3v-6.2h-1.5v-0.9H397.8z M397.5,179.7v0.9H394v-0.9H397.5z"/>
					<path class="st14" d="M401.8,184.4v4.6c1.1,1.7,3.1,1.7,5.6,1.7c1.5,0,3.3,0,4.4-0.1c-0.1,0.2-0.3,0.7-0.3,1
						c-1,0-2.5,0.1-3.9,0.1c-2.9,0-4.8,0-6.2-1.7c-0.7,0.6-1.4,1.2-2,1.7c0,0.1,0,0.2-0.1,0.2l-0.5-1c0.7-0.4,1.5-1.1,2.2-1.7v-3.7
						h-2.1v-0.9H401.8z M399.7,179.2c0.9,0.6,2,1.5,2.5,2.2l-0.7,0.6c-0.5-0.7-1.5-1.7-2.5-2.3L399.7,179.2z M403.8,182.9h2.4
						c0.1-0.4,0.2-0.9,0.3-1.3h-3.9v-0.8h2.5c-0.2-0.5-0.6-1.1-1-1.6l0.7-0.3c0.5,0.5,0.9,1.2,1.1,1.7l-0.5,0.3h3l-0.4-0.1
						c0.3-0.5,0.8-1.3,1-1.8l1.1,0.3c0,0.1-0.1,0.1-0.3,0.1c-0.3,0.4-0.7,1.1-1.1,1.5h2.8v0.8h-4.2c-0.1,0.4-0.2,0.9-0.4,1.3h3.3
						v6.9h-0.9v-0.5h-4.7v0.5h-0.9V182.9z M409.4,184.8v-1.1h-4.7v1.1H409.4z M404.7,185.5v1.2h4.7v-1.2H404.7z M404.7,188.6h4.7
						v-1.2h-4.7V188.6z"/>
				</g>
				<g class="st12">
					<path class="st14" d="M54,73.1h5.9V74H47.2v-0.9H53v-2.9h-4.5v-0.9H53v-2.1l1.2,0.1c0,0.1-0.1,0.2-0.3,0.2v1.8h4.7v0.9H54V73.1
						z M58.9,68c-0.3-0.3-0.6-0.7-1-1.1c-3.5,0.1-7.2,0.3-9.5,0.3c0,0.1-0.1,0.2-0.2,0.2l-0.3-1.1c0.6,0,1.4,0,2.2,0
						c0.5-0.8,1.1-1.9,1.5-2.9h-4v-0.9h12.1v0.9H53c-0.1,0.1-0.2,0.1-0.3,0.1c-0.4,0.8-1,1.9-1.6,2.7c1.8,0,3.9-0.1,5.9-0.1
						c-0.7-0.6-1.4-1.2-2.1-1.7l0.8-0.5c1.4,1,3.2,2.5,4,3.5L58.9,68z"/>
					<path class="st14" d="M77.2,64.5H66.5v2.9c0,2.1-0.2,5.2-1.5,7.2c-0.2-0.2-0.6-0.4-0.8-0.5c1.3-2,1.4-4.7,1.4-6.7v-3.8h5.2v-2
						l1.2,0.1c0,0.1-0.1,0.2-0.3,0.2v1.7h5.5V64.5z M74.1,69.1c1.3,1.6,2.7,3.8,3.3,5.2l-0.9,0.5c-0.1-0.4-0.4-0.8-0.6-1.3
						c-3.2,0.2-6.5,0.4-8.6,0.5c0,0.1-0.1,0.2-0.2,0.2l-0.4-1.1l1.7-0.1c0.8-2,1.8-5.1,2.4-7.4l1.3,0.3c0,0.1-0.2,0.2-0.3,0.2
						c-0.5,2-1.5,4.9-2.3,6.8l6.1-0.3c-0.6-1.1-1.4-2.2-2.1-3.1L74.1,69.1z"/>
					<path class="st14" d="M84.3,68v-3.3h-4.6v2h-0.9v-2.7h5.5V63h-4.7v-0.8H90V63h-4.7v0.9h5.6v2.7h-0.9v-2h-4.7V68H84.3z
						 M85.2,73.2c0,0.5,0.2,0.6,1.1,0.6h3.3c0.8,0,0.9-0.3,1-1.7c0.2,0.1,0.6,0.3,0.8,0.3c-0.1,1.7-0.4,2.2-1.8,2.2h-3.4
						c-1.5,0-1.9-0.3-1.9-1.4v-0.5h-3.3v0.7H80v-4.9h9.6v4.2h-4.5V73.2z M80.2,67.6v-0.6h3.3v0.6H80.2z M80.5,65.5h3v0.6h-3V65.5z
						 M84.3,69.2h-3.3v1h3.3V69.2z M80.9,71.9h3.3v-1.1h-3.3V71.9z M88.7,70.2v-1h-3.5v1H88.7z M85.2,71.9h3.5v-1.1h-3.5V71.9z
						 M86,65.5h3.1v0.6H86V65.5z M86,67.6v-0.6h3.5v0.6H86z"/>
					<path class="st14" d="M99.2,63.2h5.5v3.3h-1v-2.4h-10v2.4h-0.9v-3.3h5.4v-1.7l1.2,0.1c0,0.1-0.1,0.2-0.3,0.2V63.2z M102.3,68.9
						h-3.2c0,0.4-0.1,0.8-0.2,1.3h4.6v4.4h-1v-0.5h-7.4v0.5h-0.9v-4.4H98c0.1-0.4,0.1-0.9,0.2-1.3h-3v-3.6h7.1V68.9z M102.5,73.3
						v-2.2h-7.4v2.2H102.5z M96.1,66.1v2h5.3v-2H96.1z"/>
					<path class="st14" d="M114.8,73.6H108v0.7h-0.9v-3l1.1,0.1c0,0.1-0.1,0.2-0.3,0.2v1.2h2.5v-1.8l1.2,0.1c0,0.1-0.1,0.2-0.3,0.2
						v1.6h2.5v-1.6l1.2,0.1c0,0.1-0.1,0.2-0.3,0.2V73.6z M119.1,69h-9.9v1.1h8.7l0.2,0l0.5,0.1c0,0.1,0,0.2-0.1,0.3
						c-0.2,2.5-0.4,3.5-0.8,3.9c-0.3,0.3-0.6,0.4-1.4,0.4c-0.4,0-0.8,0-1.3,0c0-0.3-0.1-0.6-0.2-0.8c0.7,0.1,1.4,0.1,1.7,0.1
						c0.3,0,0.4,0,0.5-0.1c0.2-0.2,0.4-1,0.6-2.9h-9.3v-8.1h3.3c0.2-0.4,0.4-0.9,0.5-1.2l1.2,0.3c0,0.1-0.1,0.1-0.3,0.1
						c-0.1,0.2-0.3,0.5-0.4,0.8h4.4v4.4h-7.8v1h9.9V69z M116,63.5h-6.8v1.1h6.8V63.5z M109.2,66.5h6.8v-1.2h-6.8V66.5z"/>
					<path class="st14" d="M121.4,62.9h11v11.6h-1v-1.2h-9.1v1.3h-1V62.9z M122.4,72.3h9.1v-8.5h-9.1V72.3z"/>
				</g>
				<line class="st15" x1="38.5" y1="69.2" x2="24.1" y2="69.2"/>
				<polygon class="st14" points="26.2,61.7 13.3,69.2 26.2,76.7 				"/>
				<g class="st12">
					<path class="st13" d="M367.6,78h-10.7v2.9c0,2.1-0.2,5.2-1.5,7.2c-0.2-0.2-0.6-0.4-0.8-0.5c1.3-2,1.4-4.7,1.4-6.7v-3.8h5.2v-2
						l1.2,0.1c0,0.1-0.1,0.2-0.3,0.2v1.7h5.5V78z M364.5,82.6c1.3,1.6,2.7,3.8,3.3,5.2l-0.9,0.5c-0.1-0.4-0.4-0.8-0.6-1.3
						c-3.2,0.2-6.5,0.4-8.6,0.5c0,0.1-0.1,0.2-0.2,0.2l-0.4-1.1l1.7-0.1c0.8-2,1.8-5.1,2.4-7.4l1.3,0.3c0,0.1-0.2,0.2-0.3,0.2
						c-0.5,2-1.5,4.9-2.3,6.8l6.1-0.3c-0.6-1.1-1.4-2.2-2.1-3.1L364.5,82.6z"/>
					<path class="st13" d="M377.2,87.1h-6.8v0.7h-0.9v-3l1.1,0.1c0,0.1-0.1,0.2-0.3,0.2v1.2h2.5v-1.8l1.2,0.1c0,0.1-0.1,0.2-0.3,0.2
						v1.6h2.5v-1.6l1.2,0.1c0,0.1-0.1,0.2-0.3,0.2V87.1z M381.5,82.5h-9.9v1.1h8.7l0.2,0l0.5,0.1c0,0.1,0,0.2-0.1,0.3
						c-0.2,2.5-0.4,3.5-0.8,3.9c-0.3,0.3-0.6,0.4-1.4,0.4c-0.4,0-0.8,0-1.3,0c0-0.3-0.1-0.6-0.2-0.8c0.7,0.1,1.4,0.1,1.7,0.1
						c0.3,0,0.4,0,0.5-0.1c0.2-0.2,0.4-1,0.6-2.9h-9.3v-8.1h3.3c0.2-0.4,0.4-0.9,0.5-1.2l1.2,0.3c0,0.1-0.1,0.1-0.3,0.1
						c-0.1,0.2-0.3,0.5-0.4,0.8h4.4v4.4h-7.8v1h9.9V82.5z M378.5,77h-6.8v1.1h6.8V77z M371.6,80h6.8v-1.2h-6.8V80z"/>
					<path class="st13" d="M388.7,81.5v-3.3h-4.6v2h-0.9v-2.7h5.5v-0.9H384v-0.8h10.3v0.8h-4.7v0.9h5.6v2.7h-0.9v-2h-4.7v3.3H388.7z
						 M389.6,86.6c0,0.5,0.2,0.6,1.1,0.6h3.3c0.8,0,0.9-0.3,1-1.7c0.2,0.1,0.6,0.3,0.8,0.3c-0.1,1.7-0.4,2.2-1.8,2.2h-3.4
						c-1.5,0-1.9-0.3-1.9-1.4v-0.5h-3.3v0.7h-0.9V82h9.6v4.2h-4.5V86.6z M384.6,81.1v-0.6h3.3v0.6H384.6z M384.9,79h3v0.6h-3V79z
						 M388.7,82.7h-3.3v1h3.3V82.7z M385.4,85.4h3.3v-1.1h-3.3V85.4z M393.1,83.7v-1h-3.5v1H393.1z M389.6,85.4h3.5v-1.1h-3.5V85.4z
						 M390.4,79h3.1v0.6h-3.1V79z M390.4,81.1v-0.6h3.5v0.6H390.4z"/>
					<path class="st13" d="M400,85.9c0.7-0.1,1.5-0.2,2.2-0.4l0.1,0.8c-1.9,0.3-3.9,0.7-5.1,0.9c0,0.1-0.1,0.2-0.2,0.2l-0.3-1.1
						l2.5-0.4v-4.1h-2.3v-0.8h2.3v-1.6h-1.5v-0.3c-0.1,0.2-0.3,0.3-0.4,0.5c-0.1-0.2-0.4-0.5-0.7-0.6c1.2-1.2,2.1-2.8,2.7-3.9
						l1.1,0.2c0,0.1-0.1,0.2-0.3,0.2l0,0.1c0.9,0.7,1.9,1.7,2.4,2.3l-0.6,0.7c-0.5-0.6-1.4-1.5-2.2-2.3c-0.4,0.8-0.9,1.6-1.5,2.4
						h3.5v0.8H400v1.6h2.1v0.8H400V85.9z M397.8,85.5c0-0.7-0.3-1.8-0.6-2.7l0.7-0.2c0.3,0.8,0.6,1.9,0.7,2.6L397.8,85.5z
						 M402.1,82.9c0,0.1-0.1,0.1-0.3,0.1c-0.2,0.7-0.5,1.7-0.7,2.4l-0.6-0.2c0.2-0.7,0.6-1.8,0.7-2.6L402.1,82.9z M409.7,82.4h-3
						c0.5,2.2,1.6,4.1,3.2,5c-0.2,0.2-0.5,0.5-0.6,0.8c-1.5-1-2.6-2.7-3.2-4.9c-0.5,1.8-1.6,3.6-4,4.9c-0.1-0.2-0.4-0.5-0.6-0.7
						c2.6-1.3,3.5-3.2,3.9-5h-3.1v-0.9h3.2c0.1-0.7,0.1-1.3,0.1-1.9v-0.9h-1.6c-0.2,0.8-0.5,1.6-0.9,2.2c-0.2-0.1-0.5-0.3-0.7-0.4
						c0.7-1.1,1.1-2.9,1.4-4.8l1.1,0.3c0,0.1-0.1,0.2-0.3,0.2c-0.1,0.6-0.2,1.1-0.3,1.7h1.4v-2.7l1.2,0.1c0,0.1-0.1,0.2-0.3,0.2v2.4
						h2.7v0.9h-2.7v0.9c0,0.6,0,1.3-0.1,1.9h3.4V82.4z"/>
					<path class="st13" d="M426.7,82.6v0.9h-5.8v3.4c0,1.2-0.8,1.2-3.2,1.2c-0.1-0.3-0.2-0.7-0.4-0.9c0.5,0,1,0,1.4,0
						c1.1,0,1.2,0,1.2-0.3v-3.4h-5.7v-0.9h5.7v-2.4h-3.6v-0.9h8.2v0.9h-3.6v2.4H426.7z M415.5,77.7V80h-0.9v-3.2h5.3v-1.7l1.3,0.1
						c0,0.1-0.1,0.2-0.3,0.2v1.5h5.4V80h-1v-2.3H415.5z"/>
					<path class="st13" d="M428.6,88.1V82h5.1v6h-0.9v-0.6h-3.2v0.7H428.6z M432.8,82.9h-3.2v3.6h3.2V82.9z M438.1,75.6v4.9h-7.3
						v-4.9H438.1z M437.2,79.6v-3.1h-5.4v3.1H437.2z M435.2,82h5.3v6h-0.9v-0.6h-3.4v0.7h-0.9V82z M436.1,86.5h3.4v-3.6h-3.4V86.5z"
						/>
					<path class="st13" d="M445.9,79.6c0.6,0.9,1.3,2.1,1.6,2.9l-0.8,0.4c-0.1-0.3-0.2-0.5-0.3-0.8c-0.4,0-0.8,0-1.2,0.1v6h-0.8v-6
						c-0.8,0-1.5,0.1-2,0.1c0,0.1-0.1,0.2-0.2,0.2l-0.3-1.1h1c0.3-0.4,0.6-0.8,1-1.3c-0.4-0.6-1.2-1.5-1.8-2.1l0.5-0.6
						c0.1,0.1,0.3,0.3,0.4,0.4c0.5-0.8,1-1.9,1.3-2.7l1,0.4c0,0.1-0.1,0.1-0.3,0.1c-0.4,0.8-1,1.9-1.5,2.7c0.3,0.3,0.6,0.7,0.8,1
						c0.6-0.9,1.2-1.9,1.6-2.7l1,0.5c0,0.1-0.2,0.1-0.3,0.1c-0.7,1.2-1.8,2.9-2.8,4.1l2.4,0c-0.3-0.5-0.5-1-0.8-1.4L445.9,79.6z
						 M443.7,83.5c0,0.1-0.1,0.1-0.3,0.1c-0.2,1.2-0.5,2.5-0.9,3.4c-0.2-0.1-0.5-0.3-0.7-0.4c0.4-0.8,0.7-2.1,0.9-3.4L443.7,83.5z
						 M446.4,83.2c0.4,0.8,0.8,1.9,0.9,2.6c-0.2,0.1-0.3,0.1-0.8,0.3c-0.1-0.7-0.5-1.8-0.9-2.6L446.4,83.2z M449.6,82.8l0.5,0.2
						c0,0.1-0.1,0.1-0.1,0.1c-0.5,2.2-1.6,3.7-3,4.5c-0.1-0.2-0.4-0.5-0.6-0.7c1.2-0.6,2.2-1.7,2.6-3.3h-2v-0.8h2.4L449.6,82.8z
						 M451.4,81.5c0,0.6,0.5,1.8,0.8,2.4c0.7-0.5,1.4-1.2,1.9-1.8c0.7,0.5,0.8,0.6,0.9,0.7c0,0.1-0.2,0.1-0.3,0.1
						c-0.5,0.5-1.4,1.2-2.1,1.7c0.6,0.9,1.4,1.7,2.6,2.2c-0.2,0.2-0.4,0.5-0.6,0.8c-1.6-0.9-2.6-2.3-3.2-3.7v3.1c0,1-0.4,1-2.2,1
						c0-0.3-0.2-0.6-0.3-0.8c0.7,0,1.2,0,1.4,0c0.2,0,0.2-0.1,0.2-0.2v-5.5h-2.8v-5h2.2c0.2-0.5,0.5-1.1,0.6-1.5l1.2,0.3
						c0,0.1-0.1,0.1-0.3,0.1c-0.1,0.3-0.3,0.7-0.5,1.1h3.5v5H451.4z M448.6,77.4v1.3h4.9v-1.3H448.6z M448.6,79.4v1.3h4.9v-1.3
						H448.6z"/>
				</g>
				<g class="st12">
					<path class="st14" d="M367.6,78h-10.7v2.9c0,2.1-0.2,5.2-1.5,7.2c-0.2-0.2-0.6-0.4-0.8-0.5c1.3-2,1.4-4.7,1.4-6.7v-3.8h5.2v-2
						l1.2,0.1c0,0.1-0.1,0.2-0.3,0.2v1.7h5.5V78z M364.5,82.6c1.3,1.6,2.7,3.8,3.3,5.2l-0.9,0.5c-0.1-0.4-0.4-0.8-0.6-1.3
						c-3.2,0.2-6.5,0.4-8.6,0.5c0,0.1-0.1,0.2-0.2,0.2l-0.4-1.1l1.7-0.1c0.8-2,1.8-5.1,2.4-7.4l1.3,0.3c0,0.1-0.2,0.2-0.3,0.2
						c-0.5,2-1.5,4.9-2.3,6.8l6.1-0.3c-0.6-1.1-1.4-2.2-2.1-3.1L364.5,82.6z"/>
					<path class="st14" d="M377.2,87.1h-6.8v0.7h-0.9v-3l1.1,0.1c0,0.1-0.1,0.2-0.3,0.2v1.2h2.5v-1.8l1.2,0.1c0,0.1-0.1,0.2-0.3,0.2
						v1.6h2.5v-1.6l1.2,0.1c0,0.1-0.1,0.2-0.3,0.2V87.1z M381.5,82.5h-9.9v1.1h8.7l0.2,0l0.5,0.1c0,0.1,0,0.2-0.1,0.3
						c-0.2,2.5-0.4,3.5-0.8,3.9c-0.3,0.3-0.6,0.4-1.4,0.4c-0.4,0-0.8,0-1.3,0c0-0.3-0.1-0.6-0.2-0.8c0.7,0.1,1.4,0.1,1.7,0.1
						c0.3,0,0.4,0,0.5-0.1c0.2-0.2,0.4-1,0.6-2.9h-9.3v-8.1h3.3c0.2-0.4,0.4-0.9,0.5-1.2l1.2,0.3c0,0.1-0.1,0.1-0.3,0.1
						c-0.1,0.2-0.3,0.5-0.4,0.8h4.4v4.4h-7.8v1h9.9V82.5z M378.5,77h-6.8v1.1h6.8V77z M371.6,80h6.8v-1.2h-6.8V80z"/>
					<path class="st14" d="M388.7,81.5v-3.3h-4.6v2h-0.9v-2.7h5.5v-0.9H384v-0.8h10.3v0.8h-4.7v0.9h5.6v2.7h-0.9v-2h-4.7v3.3H388.7z
						 M389.6,86.6c0,0.5,0.2,0.6,1.1,0.6h3.3c0.8,0,0.9-0.3,1-1.7c0.2,0.1,0.6,0.3,0.8,0.3c-0.1,1.7-0.4,2.2-1.8,2.2h-3.4
						c-1.5,0-1.9-0.3-1.9-1.4v-0.5h-3.3v0.7h-0.9V82h9.6v4.2h-4.5V86.6z M384.6,81.1v-0.6h3.3v0.6H384.6z M384.9,79h3v0.6h-3V79z
						 M388.7,82.7h-3.3v1h3.3V82.7z M385.4,85.4h3.3v-1.1h-3.3V85.4z M393.1,83.7v-1h-3.5v1H393.1z M389.6,85.4h3.5v-1.1h-3.5V85.4z
						 M390.4,79h3.1v0.6h-3.1V79z M390.4,81.1v-0.6h3.5v0.6H390.4z"/>
					<path class="st14" d="M400,85.9c0.7-0.1,1.5-0.2,2.2-0.4l0.1,0.8c-1.9,0.3-3.9,0.7-5.1,0.9c0,0.1-0.1,0.2-0.2,0.2l-0.3-1.1
						l2.5-0.4v-4.1h-2.3v-0.8h2.3v-1.6h-1.5v-0.3c-0.1,0.2-0.3,0.3-0.4,0.5c-0.1-0.2-0.4-0.5-0.7-0.6c1.2-1.2,2.1-2.8,2.7-3.9
						l1.1,0.2c0,0.1-0.1,0.2-0.3,0.2l0,0.1c0.9,0.7,1.9,1.7,2.4,2.3l-0.6,0.7c-0.5-0.6-1.4-1.5-2.2-2.3c-0.4,0.8-0.9,1.6-1.5,2.4
						h3.5v0.8H400v1.6h2.1v0.8H400V85.9z M397.8,85.5c0-0.7-0.3-1.8-0.6-2.7l0.7-0.2c0.3,0.8,0.6,1.9,0.7,2.6L397.8,85.5z
						 M402.1,82.9c0,0.1-0.1,0.1-0.3,0.1c-0.2,0.7-0.5,1.7-0.7,2.4l-0.6-0.2c0.2-0.7,0.6-1.8,0.7-2.6L402.1,82.9z M409.7,82.4h-3
						c0.5,2.2,1.6,4.1,3.2,5c-0.2,0.2-0.5,0.5-0.6,0.8c-1.5-1-2.6-2.7-3.2-4.9c-0.5,1.8-1.6,3.6-4,4.9c-0.1-0.2-0.4-0.5-0.6-0.7
						c2.6-1.3,3.5-3.2,3.9-5h-3.1v-0.9h3.2c0.1-0.7,0.1-1.3,0.1-1.9v-0.9h-1.6c-0.2,0.8-0.5,1.6-0.9,2.2c-0.2-0.1-0.5-0.3-0.7-0.4
						c0.7-1.1,1.1-2.9,1.4-4.8l1.1,0.3c0,0.1-0.1,0.2-0.3,0.2c-0.1,0.6-0.2,1.1-0.3,1.7h1.4v-2.7l1.2,0.1c0,0.1-0.1,0.2-0.3,0.2v2.4
						h2.7v0.9h-2.7v0.9c0,0.6,0,1.3-0.1,1.9h3.4V82.4z"/>
					<path class="st14" d="M426.7,82.6v0.9h-5.8v3.4c0,1.2-0.8,1.2-3.2,1.2c-0.1-0.3-0.2-0.7-0.4-0.9c0.5,0,1,0,1.4,0
						c1.1,0,1.2,0,1.2-0.3v-3.4h-5.7v-0.9h5.7v-2.4h-3.6v-0.9h8.2v0.9h-3.6v2.4H426.7z M415.5,77.7V80h-0.9v-3.2h5.3v-1.7l1.3,0.1
						c0,0.1-0.1,0.2-0.3,0.2v1.5h5.4V80h-1v-2.3H415.5z"/>
					<path class="st14" d="M428.6,88.1V82h5.1v6h-0.9v-0.6h-3.2v0.7H428.6z M432.8,82.9h-3.2v3.6h3.2V82.9z M438.1,75.6v4.9h-7.3
						v-4.9H438.1z M437.2,79.6v-3.1h-5.4v3.1H437.2z M435.2,82h5.3v6h-0.9v-0.6h-3.4v0.7h-0.9V82z M436.1,86.5h3.4v-3.6h-3.4V86.5z"
						/>
					<path class="st14" d="M445.9,79.6c0.6,0.9,1.3,2.1,1.6,2.9l-0.8,0.4c-0.1-0.3-0.2-0.5-0.3-0.8c-0.4,0-0.8,0-1.2,0.1v6h-0.8v-6
						c-0.8,0-1.5,0.1-2,0.1c0,0.1-0.1,0.2-0.2,0.2l-0.3-1.1h1c0.3-0.4,0.6-0.8,1-1.3c-0.4-0.6-1.2-1.5-1.8-2.1l0.5-0.6
						c0.1,0.1,0.3,0.3,0.4,0.4c0.5-0.8,1-1.9,1.3-2.7l1,0.4c0,0.1-0.1,0.1-0.3,0.1c-0.4,0.8-1,1.9-1.5,2.7c0.3,0.3,0.6,0.7,0.8,1
						c0.6-0.9,1.2-1.9,1.6-2.7l1,0.5c0,0.1-0.2,0.1-0.3,0.1c-0.7,1.2-1.8,2.9-2.8,4.1l2.4,0c-0.3-0.5-0.5-1-0.8-1.4L445.9,79.6z
						 M443.7,83.5c0,0.1-0.1,0.1-0.3,0.1c-0.2,1.2-0.5,2.5-0.9,3.4c-0.2-0.1-0.5-0.3-0.7-0.4c0.4-0.8,0.7-2.1,0.9-3.4L443.7,83.5z
						 M446.4,83.2c0.4,0.8,0.8,1.9,0.9,2.6c-0.2,0.1-0.3,0.1-0.8,0.3c-0.1-0.7-0.5-1.8-0.9-2.6L446.4,83.2z M449.6,82.8l0.5,0.2
						c0,0.1-0.1,0.1-0.1,0.1c-0.5,2.2-1.6,3.7-3,4.5c-0.1-0.2-0.4-0.5-0.6-0.7c1.2-0.6,2.2-1.7,2.6-3.3h-2v-0.8h2.4L449.6,82.8z
						 M451.4,81.5c0,0.6,0.5,1.8,0.8,2.4c0.7-0.5,1.4-1.2,1.9-1.8c0.7,0.5,0.8,0.6,0.9,0.7c0,0.1-0.2,0.1-0.3,0.1
						c-0.5,0.5-1.4,1.2-2.1,1.7c0.6,0.9,1.4,1.7,2.6,2.2c-0.2,0.2-0.4,0.5-0.6,0.8c-1.6-0.9-2.6-2.3-3.2-3.7v3.1c0,1-0.4,1-2.2,1
						c0-0.3-0.2-0.6-0.3-0.8c0.7,0,1.2,0,1.4,0c0.2,0,0.2-0.1,0.2-0.2v-5.5h-2.8v-5h2.2c0.2-0.5,0.5-1.1,0.6-1.5l1.2,0.3
						c0,0.1-0.1,0.1-0.3,0.1c-0.1,0.3-0.3,0.7-0.5,1.1h3.5v5H451.4z M448.6,77.4v1.3h4.9v-1.3H448.6z M448.6,79.4v1.3h4.9v-1.3
						H448.6z"/>
				</g>
				<circle class="st14" cx="203.2" cy="109.3" r="4.7"/>
				<g class="st12">
					<path class="st14" d="M165.8,106.9c0,0.1-0.1,0.1-0.2,0.2c-0.6,1.5-1.7,3.4-2.9,4.6c-0.2-0.2-0.6-0.4-0.8-0.5
						c1.1-1,1.9-2.4,2.4-3.5l-5.4,1.4v3.6c0,1.4,0.8,1.8,1.9,1.8h2.3c0.6,0,1.5-0.1,2.1-0.2c0,0.3,0,0.7,0,1
						c-0.6,0.1-1.5,0.1-2.1,0.1h-2.3c-1.8,0-2.9-0.8-2.9-2.8v-3.4l-3.5,0.9l-0.2-0.9l3.8-0.9v-4.3l1.4,0.1c0,0.2-0.2,0.3-0.4,0.3
						v3.7l5.9-1.5l0.2-0.1L165.8,106.9z"/>
					<path class="st14" d="M177.4,105.4c-0.4-0.5-0.9-1.1-1.4-1.5l0.5-0.4c0.6,0.5,1.4,1.4,1.8,2l-0.3,0.2l0.1,0.1
						c0,0.1-0.1,0.1-0.2,0.2c-1.1,5.3-3.8,8.4-8.4,10c-0.2-0.3-0.4-0.6-0.6-0.8c4.4-1.5,7-4.5,7.8-8.7h-8.9v-1h9.3L177.4,105.4
						L177.4,105.4z M179.6,105.3c-0.4-0.6-1.1-1.5-1.7-2l0.5-0.4c0.6,0.5,1.3,1.4,1.8,2L179.6,105.3z"/>
					<path class="st14" d="M181.6,104.9c1.5,0.5,3.1,1.2,4.2,1.9l-0.5,0.9c-1-0.7-2.7-1.5-4.1-1.9L181.6,104.9z M181.6,114.6
						c5-1.5,8.3-4.3,10-8.2c0.3,0.2,0.6,0.4,0.9,0.6c-1.8,3.8-5.2,6.8-9.9,8.4c0,0.1-0.1,0.3-0.2,0.3L181.6,114.6z"/>
				</g>
				<g class="st12">
					<path class="st14" d="M151.2,123.2c-0.1,0.1-0.1,0.1-0.3,0.1c0,0-0.1,0-0.1,0c-1.1,1.1-2.6,2.4-4,3.3c0.1,0,0.3,0.1,0.3,0.2
						c0,0.1-0.2,0.2-0.3,0.2v7.5h-1v-7.2c-1.5,1.1-3.4,2.2-5.3,3.1c-0.1-0.2-0.4-0.6-0.6-0.8c3.8-1.8,8-4.8,10.3-7.2L151.2,123.2z"
						/>
					<path class="st14" d="M155.4,132.9c3.6-1,6.4-2.7,8.1-5.8c0.2,0.2,0.5,0.5,0.7,0.7c-1.9,3.2-5,5.1-9.2,6.2
						c0,0.1-0.1,0.2-0.2,0.3l-0.6-1l0.2-0.3v-10.3l1.4,0.1c0,0.2-0.1,0.3-0.4,0.3V132.9z"/>
					<path class="st14" d="M175.7,124c-0.4-0.5-0.9-1.1-1.4-1.5l0.5-0.4c0.6,0.5,1.4,1.4,1.8,2l-0.3,0.2l0.1,0.1
						c0,0.1-0.1,0.1-0.2,0.2c-1.1,5.3-3.8,8.4-8.4,10c-0.2-0.3-0.4-0.6-0.6-0.8c4.4-1.5,7-4.5,7.8-8.7h-8.9v-1h9.3L175.7,124
						L175.7,124z M177.9,123.9c-0.4-0.6-1.1-1.5-1.7-2l0.5-0.4c0.6,0.5,1.3,1.4,1.8,2L177.9,123.9z"/>
					<path class="st14" d="M179.9,123.5c1.5,0.5,3.1,1.2,4.2,1.9l-0.5,0.9c-1-0.7-2.7-1.5-4.1-1.9L179.9,123.5z M179.9,133.2
						c5-1.5,8.3-4.3,10-8.2c0.3,0.2,0.6,0.4,0.9,0.6c-1.8,3.8-5.2,6.8-9.9,8.4c0,0.1-0.1,0.3-0.2,0.3L179.9,133.2z"/>
				</g>
				<rect x="220.9" y="103.7" class="st16" width="74" height="56"/>
				<g class="st12">
					<path class="st14" d="M250.3,125.9h-4.9c1.2,1.3,3.3,2.4,5.2,2.9c-0.2,0.2-0.5,0.5-0.6,0.8c-2-0.7-4.1-1.9-5.5-3.5v3.8h-1v-3.8
						c-1.3,1.6-3.5,2.9-5.4,3.6c-0.2-0.2-0.4-0.6-0.6-0.8c1.8-0.6,3.9-1.7,5.1-3.1h-4.8V125h5.8v-1.2l1.2,0.1c0,0.1-0.1,0.2-0.3,0.2
						v1h5.9V125.9z M237.6,123.2c0.8-0.4,2.1-1.1,3.3-1.8l0.3,0.8c-1,0.6-2.2,1.3-2.9,1.7c0,0.1-0.1,0.2-0.1,0.3L237.6,123.2z
						 M238.7,117.8c0.9,0.6,1.8,1.6,2.3,2.2l-0.7,0.6c-0.4-0.7-1.3-1.7-2.2-2.3L238.7,117.8z M246.7,118.4v5.4h-5.3v-5.4h1.8
						c0.2-0.5,0.3-1,0.4-1.5l1.2,0.3c0,0.1-0.1,0.1-0.3,0.1c-0.1,0.3-0.2,0.7-0.4,1H246.7z M245.8,120.7v-1.5h-3.4v1.5H245.8z
						 M245.8,123v-1.6h-3.4v1.6H245.8z M247.4,121.2c1.1,0.6,2.5,1.4,3.2,2.1L250,124c-0.7-0.6-2.1-1.5-3.2-2.1L247.4,121.2z
						 M247,120.1c0.7-0.6,1.7-1.7,2.3-2.4l1,0.6c0,0.1-0.1,0.1-0.3,0.1c-0.6,0.7-1.5,1.6-2.2,2.2L247,120.1z"/>
					<path class="st14" d="M261.4,120.5l0.8,0.4c0,0.1-0.1,0.1-0.2,0.2c-0.6,1.7-1.8,3.8-3,5.4c0.8,0.5,1.5,1.1,2,1.6l-0.7,0.9
						c-1.1-1.2-3.4-2.7-5.4-3.7l0.6-0.8c0.8,0.4,1.7,0.9,2.6,1.4c1-1.3,2-3,2.5-4.4h-4.9c-0.8,1.6-1.9,3.2-3.1,4.4
						c-0.2-0.2-0.6-0.4-0.9-0.6c2.1-1.9,3.6-5,4.4-7.6l1.3,0.4c0,0.1-0.1,0.2-0.3,0.2c-0.3,0.8-0.6,1.6-0.9,2.4h5L261.4,120.5z"/>
					<path class="st14" d="M264.5,117.5h11.8v12.4h-0.9v-0.6h-10v0.6h-0.9V117.5z M265.4,128.4h10v-10h-10V128.4z M270.9,124.9
						c0.3,0.4,0.7,0.7,1.2,1c0.6-0.4,1.3-0.9,1.8-1.3l0.8,0.5c0,0.1-0.1,0.1-0.3,0.1c-0.4,0.3-1.1,0.7-1.7,1.1
						c0.7,0.4,1.5,0.8,2.3,1c-0.2,0.1-0.4,0.4-0.5,0.6c-1.4-0.4-2.9-1.3-3.8-2.4v2.5h-0.9v-2.2c-1,0.7-2.2,1.2-3.3,1.7
						c-0.1-0.2-0.4-0.4-0.5-0.6c1.3-0.4,2.8-1.2,3.9-2h-2.5v-2.4h6.2v2.4H270.9z M274.6,121.1v0.6h-8.5v-0.6h3.8v-0.9H267v-0.6h2.9
						v-0.9l1.1,0.1c0,0.1-0.1,0.2-0.3,0.2v0.6h3v0.6h-3v0.9H274.6z M268.1,123.1v1.2h4.5v-1.2H268.1z"/>
				</g>
				<g class="st12">
					<path class="st14" d="M238.7,144.3c-0.1,1.3-0.2,2.7-0.8,3.5l-0.5-0.3c0.5-0.7,0.7-2,0.7-3.3L238.7,144.3z M243.1,142.5
						l0.4,0.1l0,0.3c-0.2,3.6-0.3,4.9-0.7,5.3c-0.3,0.3-0.5,0.4-1.2,0.4c-0.3,0-0.6,0-0.9,0c0-0.2-0.1-0.6-0.2-0.8
						c0.5,0,1,0.1,1.2,0.1c0.4,0,0.6-0.1,0.8-2l-0.5,0.2c-0.1-0.5-0.5-1.3-0.9-1.9l0.5-0.2c0.3,0.5,0.7,1.3,0.8,1.8h0
						c0.1-0.6,0.1-1.4,0.2-2.3H239v0.4h-0.8v-7.6h5.2v0.8h-2.1v1.3h1.8v0.8h-1.8v1.4h1.8v0.8h-1.8v1.4h1.6L243.1,142.5z
						 M240.5,136.9H239v1.3h1.5V136.9z M240.5,140.4V139H239v1.4H240.5z M239,141.2v1.4h1.5v-1.4H239z M239.3,147.1
						c0-0.7-0.1-1.8-0.2-2.6l0.5-0.1c0.2,0.8,0.3,1.9,0.3,2.6L239.3,147.1z M240.7,144.2c0.3,0.7,0.6,1.7,0.6,2.3l-0.5,0.1
						c-0.1-0.6-0.3-1.6-0.6-2.3L240.7,144.2z M250.1,141.8h-2.3c0.4,2.7,1.3,4.9,3,6c-0.2,0.2-0.5,0.5-0.6,0.8
						c-1.8-1.3-2.7-3.7-3.2-6.8h-1.4c0,2.1-0.3,4.9-1.6,6.7c-0.2-0.2-0.5-0.4-0.8-0.5c1.4-1.8,1.5-4.5,1.5-6.6v-5.4h5.5V141.8z
						 M249.2,137h-3.7v4h3.7V137z"/>
					<path class="st14" d="M260,146.6c0.6,0,2.1-0.1,2.9-0.2c0,0.3,0,0.7,0.1,1c-0.9,0.1-2.3,0.2-2.9,0.2h-3.5
						c-2.1,0-3.1-0.9-3.1-2.9v-8.2l1.4,0.1c0,0.1-0.1,0.2-0.4,0.3v4.6c2.1-0.7,5.1-1.8,6.9-2.8l0.7,1c0,0-0.1,0-0.2,0
						c-0.1,0-0.1,0-0.2,0c-1.7,0.9-4.9,2-7.3,2.8v2.3c0,1.4,0.7,1.9,2.1,1.9H260z M261.3,136c0.6,0.6,1.3,1.4,1.7,2.1l-0.5,0.4
						c-0.4-0.6-1.1-1.5-1.7-2.1L261.3,136z M263.1,135.2c0.6,0.6,1.3,1.4,1.7,2l-0.5,0.4c-0.4-0.6-1.1-1.5-1.7-2L263.1,135.2z"/>
					<path class="st14" d="M268.9,138.1c0,0.1-0.1,0.2-0.3,0.2c-0.1,3.8-0.4,7.2-2.5,9.7c-0.2-0.2-0.6-0.4-0.8-0.5
						c2.1-2.3,2.3-5.8,2.4-9.5L268.9,138.1z M272.5,146.2c2.3-1.1,3.9-3.2,4.7-5.6c0.2,0.2,0.6,0.4,0.9,0.5c-1,2.8-2.7,4.9-5.7,6.3
						c0,0.1-0.1,0.2-0.2,0.3l-0.7-0.9l0.2-0.2v-10.3l1.3,0.1c0,0.1-0.1,0.2-0.3,0.3V146.2z"/>
				</g>
				<rect x="205.1" y="377.8" class="st16" width="153.7" height="83.2"/>
				<g class="st12">
					<path class="st14" d="M245.9,407.6c0,0.1-0.1,0.1-0.2,0.1c-1.3,2-3.5,4.1-5.7,5.6c1.1,0.9,2.2,1.9,2.9,2.7l-0.9,0.7
						c-1.5-1.7-4.2-4-6.6-5.4l0.7-0.7c1,0.6,2.1,1.3,3.1,2.1c1.9-1.3,3.8-3.2,4.9-4.8h-10.3v-1h11l0.2-0.1L245.9,407.6z"/>
					<path class="st14" d="M249,409c0.4,0.9,0.9,2.2,1.1,3l-0.8,0.2c-0.2-0.8-0.6-2.1-1-3L249,409z M257.3,409.1
						c0,0.1-0.2,0.2-0.3,0.1c-1.1,4.1-3.2,6.6-6.5,8c-0.1-0.2-0.4-0.5-0.5-0.6c3.3-1.3,5.3-3.6,6.3-7.8L257.3,409.1z M252.4,408.4
						c0.3,0.9,0.6,2.3,0.7,3.2l-0.8,0.2c-0.1-0.9-0.4-2.2-0.7-3.2L252.4,408.4z"/>
					<path class="st14" d="M269.5,408c-0.1,0.1-0.1,0.1-0.2,0.2c-1.5,4.5-3.8,7.5-7.6,9.4c-0.2-0.2-0.4-0.6-0.7-0.8
						c3.7-1.8,5.9-4.6,7.1-8.3h-5c-0.8,1.3-1.9,2.5-3.1,3.5c-0.2-0.2-0.5-0.5-0.8-0.6c1.9-1.5,3.5-3.6,4.5-6.1l1.3,0.4
						c-0.1,0.1-0.2,0.2-0.4,0.2c-0.3,0.6-0.6,1.2-0.9,1.8h4.9l0.2-0.1L269.5,408z"/>
					<path class="st14" d="M280.3,406.7c0,0.1-0.1,0.1-0.2,0.2c-0.8,1.8-1.7,3.3-2.8,4.8c1.5,1.2,3.8,3.3,5.1,4.7l-0.9,0.7
						c-1.2-1.4-3.5-3.6-4.9-4.7c-1.2,1.5-3.4,3.5-5.4,4.7c-0.2-0.2-0.5-0.6-0.7-0.8c3.9-2.1,6.9-6.1,8.2-9.1h-6.9v-1h7.4l0.2-0.1
						L280.3,406.7z"/>
					<path class="st14" d="M288.5,407.5c0,0.1-0.2,0.2-0.4,0.2c-0.6,3.4-1.7,6.9-3.4,9c-0.3-0.2-0.6-0.4-0.9-0.5
						c1.6-1.9,2.8-5.5,3.2-9L288.5,407.5z M295.5,416.6c-0.7-2.5-2.3-6.4-3.7-9l0.9-0.4c1.5,2.5,3.1,6.5,3.8,9L295.5,416.6z
						 M293.5,405.3c0.6,0.6,1.3,1.4,1.7,2.1l-0.5,0.4c-0.4-0.6-1.1-1.5-1.7-2.1L293.5,405.3z M295.3,404.6c0.6,0.6,1.3,1.4,1.7,2.1
						l-0.5,0.4c-0.4-0.6-1.1-1.5-1.7-2.1L295.3,404.6z"/>
					<path class="st14" d="M299.2,413v-6.8l1.3,0.1c0,0.1-0.1,0.2-0.3,0.3v6.5H299.2z M307,405.7c0,0.1-0.1,0.2-0.3,0.2v4.5
						c0,2.9-1,5.6-5,7.2c-0.1-0.2-0.5-0.6-0.7-0.8c3.9-1.4,4.7-3.8,4.7-6.4v-4.8L307,405.7z"/>
					<path class="st14" d="M319,415.6v0.8h-9.6v-0.8h5.7c0.2-1.4,0.6-4.2,0.7-5.6h-5.3v-0.8h5.6l0.2-0.1l0.7,0.3
						c0,0.1-0.1,0.1-0.2,0.1c-0.2,1.5-0.6,4.5-0.9,6H319z"/>
				</g>
				<g class="st12">
					<path class="st14" d="M267.2,432.5h-4.9c1.2,1.3,3.3,2.4,5.2,2.9c-0.2,0.2-0.5,0.5-0.6,0.8c-2-0.7-4.1-1.9-5.5-3.5v3.8h-1v-3.8
						c-1.3,1.6-3.5,2.9-5.4,3.6c-0.2-0.2-0.4-0.6-0.6-0.8c1.8-0.6,3.9-1.7,5.1-3.1h-4.8v-0.8h5.8v-1.2l1.2,0.1
						c0,0.1-0.1,0.2-0.3,0.2v1h5.9V432.5z M254.5,429.8c0.8-0.4,2.1-1.1,3.3-1.8l0.3,0.8c-1.1,0.6-2.2,1.3-2.9,1.7
						c0,0.1-0.1,0.2-0.1,0.3L254.5,429.8z M255.6,424.4c0.9,0.6,1.8,1.6,2.3,2.2l-0.7,0.6c-0.4-0.7-1.3-1.7-2.2-2.3L255.6,424.4z
						 M263.6,424.9v5.4h-5.3v-5.4h1.8c0.2-0.5,0.3-1,0.4-1.5l1.2,0.3c0,0.1-0.1,0.1-0.3,0.1c-0.1,0.3-0.2,0.7-0.4,1H263.6z
						 M262.7,427.2v-1.5h-3.4v1.5H262.7z M262.7,429.5V428h-3.4v1.6H262.7z M264.3,427.8c1.1,0.6,2.5,1.4,3.2,2.1l-0.6,0.7
						c-0.7-0.6-2.1-1.5-3.2-2.1L264.3,427.8z M263.9,426.6c0.7-0.6,1.7-1.7,2.3-2.4l1,0.6c0,0.1-0.1,0.1-0.3,0.1
						c-0.6,0.7-1.5,1.6-2.2,2.2L263.9,426.6z"/>
					<path class="st14" d="M278.3,427.1l0.8,0.4c0,0.1-0.1,0.1-0.2,0.2c-0.6,1.7-1.8,3.8-3,5.4c0.8,0.5,1.5,1.1,2,1.6l-0.7,0.9
						c-1.1-1.2-3.4-2.7-5.4-3.7l0.6-0.8c0.8,0.4,1.7,0.9,2.6,1.4c1-1.3,2-3,2.5-4.4h-4.9c-0.8,1.6-1.9,3.2-3.1,4.4
						c-0.2-0.2-0.6-0.4-0.9-0.6c2.1-1.9,3.6-5,4.4-7.6l1.3,0.4c0,0.1-0.1,0.2-0.3,0.2c-0.3,0.8-0.6,1.6-0.9,2.4h5L278.3,427.1z"/>
					<path class="st14" d="M281.4,424.1h11.8v12.4h-0.9v-0.6h-10v0.6h-0.9V424.1z M282.3,435h10v-10h-10V435z M287.8,431.4
						c0.3,0.4,0.7,0.7,1.2,1c0.6-0.4,1.3-0.9,1.8-1.3l0.8,0.5c0,0.1-0.1,0.1-0.3,0.1c-0.4,0.3-1.1,0.7-1.7,1.1
						c0.7,0.4,1.5,0.8,2.3,1c-0.2,0.1-0.4,0.4-0.5,0.6c-1.4-0.4-2.9-1.3-3.8-2.4v2.5h-0.9v-2.2c-1,0.7-2.2,1.2-3.3,1.7
						c-0.1-0.2-0.4-0.4-0.5-0.6c1.3-0.4,2.8-1.2,3.9-2h-2.5v-2.4h6.2v2.4H287.8z M291.5,427.7v0.6H283v-0.6h3.8v-0.9h-2.9v-0.6h2.9
						v-0.9l1.1,0.1c0,0.1-0.1,0.2-0.3,0.2v0.6h3v0.6h-3v0.9H291.5z M285,429.6v1.2h4.5v-1.2H285z"/>
					<path class="st14" d="M302.1,425.4h5.5v0.9h-10.8v2.8c0,2.2-0.2,5.3-1.4,7.5c-0.2-0.2-0.6-0.4-0.8-0.5c1.1-2,1.3-4.9,1.3-6.9
						v-3.7h5.3v-1.9l1.2,0.1c0,0.1-0.1,0.2-0.3,0.2V425.4z M302.9,426.7c0,0.1-0.1,0.2-0.3,0.2v1.5h4.9v0.9h-4.9v2.1h3.9v5.1h-1V436
						h-6.4v0.6h-0.9v-5.2h3.4v-4.8L302.9,426.7z M305.5,435.1v-2.9h-6.4v2.9H305.5z"/>
				</g>
				<circle class="st14" cx="283.2" cy="345.1" r="4.7"/>
				<circle class="st14" cx="250" cy="299.6" r="4.7"/>
				<line class="st17" x1="235.7" y1="281.2" x2="249.8" y2="299.4"/>
				<g class="st12">
					<path class="st14" d="M303.4,348.6h-4.9c1.2,1.3,3.3,2.4,5.2,2.9c-0.2,0.2-0.5,0.5-0.6,0.8c-2-0.7-4.1-1.9-5.5-3.5v3.8h-1v-3.8
						c-1.3,1.6-3.5,2.9-5.4,3.6c-0.2-0.2-0.4-0.6-0.6-0.8c1.8-0.6,3.9-1.7,5.1-3.1h-4.8v-0.8h5.8v-1.2l1.2,0.1
						c0,0.1-0.1,0.2-0.3,0.2v1h5.9V348.6z M290.6,345.9c0.8-0.4,2.1-1.1,3.3-1.8l0.3,0.8c-1.1,0.6-2.2,1.3-2.9,1.7
						c0,0.1-0.1,0.2-0.1,0.3L290.6,345.9z M291.7,340.5c0.9,0.6,1.8,1.6,2.3,2.2l-0.7,0.6c-0.4-0.7-1.3-1.7-2.2-2.3L291.7,340.5z
						 M299.7,341v5.4h-5.3V341h1.8c0.2-0.5,0.3-1,0.4-1.5l1.2,0.3c0,0.1-0.1,0.1-0.3,0.1c-0.1,0.3-0.2,0.7-0.4,1H299.7z
						 M298.8,343.3v-1.5h-3.4v1.5H298.8z M298.8,345.6v-1.6h-3.4v1.6H298.8z M300.4,343.9c1.1,0.6,2.5,1.4,3.2,2.1l-0.6,0.7
						c-0.7-0.6-2.1-1.5-3.2-2.1L300.4,343.9z M300,342.7c0.7-0.6,1.7-1.7,2.3-2.4l1,0.6c0,0.1-0.1,0.1-0.3,0.1
						c-0.6,0.7-1.5,1.6-2.2,2.2L300,342.7z"/>
					<path class="st14" d="M314.4,343.2l0.8,0.4c0,0.1-0.1,0.1-0.2,0.2c-0.6,1.7-1.8,3.8-3,5.4c0.8,0.5,1.5,1.1,2,1.6l-0.7,0.9
						c-1.1-1.2-3.4-2.7-5.4-3.7l0.6-0.8c0.8,0.4,1.7,0.9,2.6,1.4c1-1.3,2-3,2.5-4.4h-4.9c-0.8,1.6-1.9,3.2-3.1,4.4
						c-0.2-0.2-0.6-0.4-0.9-0.6c2.1-1.9,3.6-5,4.4-7.6l1.3,0.4c0,0.1-0.1,0.2-0.3,0.2c-0.3,0.8-0.6,1.6-0.9,2.4h5L314.4,343.2z"/>
					<path class="st14" d="M317.5,340.2h11.8v12.4h-0.9V352h-10v0.6h-0.9V340.2z M318.4,351.1h10v-10h-10V351.1z M323.9,347.5
						c0.3,0.4,0.7,0.7,1.2,1c0.6-0.4,1.3-0.9,1.8-1.3l0.8,0.5c0,0.1-0.1,0.1-0.3,0.1c-0.4,0.3-1.1,0.7-1.7,1.1
						c0.7,0.4,1.5,0.8,2.3,1c-0.2,0.1-0.4,0.4-0.5,0.6c-1.4-0.4-2.9-1.3-3.8-2.4v2.5h-0.9v-2.2c-1,0.7-2.2,1.2-3.3,1.7
						c-0.1-0.2-0.4-0.4-0.5-0.6c1.3-0.4,2.8-1.2,3.9-2h-2.5v-2.4h6.2v2.4H323.9z M327.6,343.8v0.6h-8.5v-0.6h3.8v-0.9H320v-0.6h2.9
						v-0.9l1.1,0.1c0,0.1-0.1,0.2-0.3,0.2v0.6h3v0.6h-3v0.9H327.6z M321.1,345.7v1.2h4.5v-1.2H321.1z"/>
					<path class="st14" d="M335,348.6l0.1,0.8c-1.4,0.5-2.9,0.9-3.8,1.2c0,0.1-0.1,0.2-0.2,0.2l-0.3-1c0.5-0.1,1.1-0.3,1.8-0.5v-3.7
						h-1.4v-0.9h1.4v-3.1h-1.7v-0.9h4.2v0.9h-1.7v3.1h1.5v0.9h-1.5v3.5L335,348.6z M338.7,342.5l0.4,0v0.3c-0.1,6.5-0.2,8.6-0.5,9.2
						c-0.3,0.5-0.6,0.5-1.2,0.5c-0.3,0-0.6,0-0.9,0c0-0.3-0.1-0.6-0.3-0.9c0.6,0,1.1,0.1,1.3,0.1c0.2,0,0.3,0,0.4-0.2
						c0.3-0.4,0.4-2.4,0.4-8.1h-1.4c-0.1,4.1-0.5,7.3-2.4,9.3c-0.1-0.2-0.4-0.5-0.7-0.6c1.8-1.8,2.2-4.8,2.3-8.7h-1.4v-0.9h1.4
						c0-0.9,0-1.8,0-2.8l1.2,0.1c0,0.1-0.1,0.2-0.3,0.2c0,0.9,0,1.7,0,2.5H338.7z M339.9,341.2h3.5v11.1h-0.9v-1.2h-1.9v1.3h-0.8
						V341.2z M340.7,350.2h1.9V342h-1.9V350.2z"/>
					<path class="st14" d="M347.4,348.5c0.5-0.1,1-0.3,1.6-0.4l0.1,0.8c-1.4,0.4-2.9,0.9-3.8,1.1c0,0.1-0.1,0.2-0.2,0.2l-0.3-1
						c0.5-0.1,1.1-0.3,1.8-0.5v-3.4h-1.4v-0.9h1.4v-3h-1.6v-0.9h4.2v0.9h-1.7v3h1.5v0.9h-1.5V348.5z M351.6,341.8v-2.2l1.2,0.1
						c0,0.1-0.1,0.2-0.3,0.2v5.8c0,2.8-0.4,5.2-3,6.9c-0.1-0.2-0.5-0.5-0.7-0.6c1.3-0.8,2-1.8,2.4-2.9c-0.9,0.3-1.7,0.7-2.3,0.9
						c0,0.1-0.1,0.2-0.2,0.2l-0.4-1.1c0.8-0.2,1.9-0.6,3.1-1c0.1-0.7,0.2-1.5,0.2-2.2h-2.3V345h2.3v-2.3h-2.5v-0.9H351.6z
						 M357.9,348.4v0.9h-2.8v3.3h-0.9v-13l1.2,0.1c0,0.1-0.1,0.2-0.3,0.2v1.9h2.6v0.9h-2.6v2.3h2.5v0.9h-2.5v2.5H357.9z"/>
					<path class="st14" d="M366.3,341.5h5.5v0.9H361v2.8c0,2.2-0.2,5.3-1.4,7.5c-0.2-0.2-0.6-0.4-0.8-0.5c1.1-2,1.3-4.9,1.3-6.9
						v-3.7h5.3v-1.9l1.2,0.1c0,0.1-0.1,0.2-0.3,0.2V341.5z M367,342.8c0,0.1-0.1,0.2-0.3,0.2v1.5h4.9v0.9h-4.9v2.1h3.9v5.1h-1v-0.5
						h-6.4v0.6h-0.9v-5.2h3.4v-4.8L367,342.8z M369.7,351.2v-2.9h-6.4v2.9H369.7z"/>
				</g>
				<g class="st12">
					<path class="st14" d="M175.8,271.7c0.4,0.8,0.9,1.5,1.5,2.2c1.1-0.6,2.4-1.4,3.1-2l0.9,0.6c-0.1,0.1-0.2,0.1-0.3,0.1
						c-0.8,0.5-2.1,1.3-3.1,1.8c1.1,0.9,2.5,1.5,4.2,1.8c-0.2,0.2-0.4,0.6-0.6,0.8c-3.3-0.8-5.5-2.6-6.7-5.4h-2.1v3.9
						c1.2-0.2,2.5-0.4,3.8-0.6l0,0.8c-2.2,0.4-4.6,0.9-6.1,1.1c0,0.1-0.1,0.2-0.2,0.2l-0.4-1c0.5-0.1,1.1-0.2,1.8-0.3v-4.1h-2.5
						v-0.9h2.5v-6.2h8.8v0.8h-7.8v1.3h7.4v0.8h-7.4v1.3h7.4v0.8h-7.4v1.3h9.2v0.9H175.8z"/>
					<path class="st14" d="M195.4,264.8v11.1c0,1.2-0.6,1.2-2.8,1.2c0-0.2-0.2-0.6-0.3-0.9c0.4,0,0.7,0,1,0c0.4,0,0.7,0,0.9,0
						c0.3,0,0.3-0.1,0.3-0.3v-10.2h-9.8V277h-0.9v-12.3H195.4z M192.8,275.2H192v-0.8h-5v1h-0.8v-4.8l1.1,0.1c0,0.1-0.1,0.2-0.3,0.2
						v2.7h2v-4.1h-3.7v-0.8h8.5v0.8h-3.7c0,0.1-0.1,0.1-0.3,0.1v4h2.1v-3l1.1,0.1c0,0.1-0.1,0.2-0.3,0.2V275.2z M187.5,268.6
						c-0.1-0.6-0.6-1.6-1.1-2.3l0.8-0.3c0.5,0.7,1,1.6,1.1,2.2L187.5,268.6z M192.8,266.3c0,0.1-0.1,0.1-0.3,0.1
						c-0.3,0.6-0.8,1.6-1.2,2.2c-0.2-0.1-0.5-0.2-0.7-0.3c0.4-0.6,0.9-1.7,1.1-2.4L192.8,266.3z"/>
					<path class="st14" d="M204.4,264c0,0.1-0.1,0.2-0.3,0.2c1.4,1.6,3.9,3.3,6.1,4.2c-0.2,0.2-0.4,0.6-0.6,0.8
						c-2.2-1-4.7-2.7-6.1-4.4c-1.2,1.5-3.6,3.3-6,4.5c-0.1-0.2-0.4-0.6-0.5-0.8c2.4-1.1,4.9-3,6-4.6L204.4,264z M203.8,272.9
						c0.4,0.5,0.8,1,1.3,1.4c1.1-0.6,2.5-1.4,3.3-2.1l0.9,0.7c-0.1,0.1-0.2,0.1-0.3,0.1c-0.8,0.6-2.1,1.3-3.1,1.8
						c1.1,0.7,2.5,1.1,4.1,1.4c-0.2,0.2-0.5,0.6-0.6,0.8c-3-0.5-5.3-1.9-6.6-4.1h-2.2v2.9c1.1-0.1,2.4-0.2,3.7-0.3v0.8
						c-2.1,0.2-4.4,0.5-5.8,0.6c0,0.1-0.1,0.2-0.2,0.2l-0.4-1l1.8-0.2v-7.7h3.3v-1.7l1.2,0.1c0,0.1-0.1,0.2-0.3,0.2v1.4h3.4v4.8
						H203.8z M206.5,268.9h-5.9v1.2h5.9V268.9z M200.6,270.9v1.3h5.9v-1.3H200.6z"/>
					<path class="st14" d="M214.6,269.8v0.7c0.5,0.4,2,1.8,2.3,2.2l-0.6,0.8c-0.3-0.4-1.1-1.3-1.7-2v5.5h-0.9v-5.7
						c-0.6,1.5-1.5,3-2.3,3.9c-0.1-0.3-0.3-0.7-0.5-0.9c0.9-1,2-2.8,2.6-4.4h-2.4v-0.9h2.6V264l1.2,0.1c0,0.1-0.1,0.2-0.3,0.2v4.7
						h2.5v0.9H214.6z M212,265c0.5,1,0.9,2.2,1,3l-0.8,0.2c-0.1-0.8-0.5-2.1-0.9-3L212,265z M217.3,265.3c0,0.1-0.1,0.1-0.3,0.1
						c-0.3,0.9-0.9,2.1-1.3,2.9c-0.2-0.1-0.5-0.2-0.7-0.3c0.4-0.8,0.9-2.2,1.2-3.2L217.3,265.3z M224.1,272.9l-1.9,0.3v3.8h-0.9
						v-3.6l-4.1,0.7l-0.2-0.9l4.2-0.7v-8.5l1.2,0.1c0,0.1-0.1,0.2-0.3,0.2v8l1.8-0.3L224.1,272.9z M218.2,268.7
						c0.9,0.6,1.9,1.4,2.4,2.1c-0.6,0.4-0.6,0.5-0.7,0.6c-0.5-0.6-1.5-1.5-2.4-2.1L218.2,268.7z M218.6,265c0.8,0.6,1.7,1.4,2.2,2
						l-0.7,0.6c-0.4-0.6-1.3-1.5-2.1-2.1L218.6,265z"/>
					<path class="st14" d="M225.7,277v-6.1h5.1v6h-0.9v-0.6h-3.2v0.7H225.7z M229.8,271.8h-3.2v3.6h3.2V271.8z M235.2,264.5v4.9
						h-7.3v-4.9H235.2z M234.2,268.6v-3.1h-5.4v3.1H234.2z M232.3,270.9h5.3v6h-0.9v-0.6h-3.4v0.7h-0.9V270.9z M233.2,275.4h3.4
						v-3.6h-3.4V275.4z"/>
					<path class="st14" d="M246.4,265.9h5.5v0.9h-10.8v2.8c0,2.2-0.2,5.3-1.4,7.5c-0.2-0.2-0.6-0.4-0.8-0.5c1.1-2,1.3-4.9,1.3-6.9
						v-3.7h5.3V264l1.2,0.1c0,0.1-0.1,0.2-0.3,0.2V265.9z M247.2,267.2c0,0.1-0.1,0.2-0.3,0.2v1.5h4.9v0.9h-4.9v2.1h3.9v5.1h-1v-0.5
						h-6.4v0.6h-0.9v-5.2h3.4v-4.8L247.2,267.2z M249.8,275.6v-2.9h-6.4v2.9H249.8z"/>
				</g>
				<circle class="st14" cx="133.3" cy="161.9" r="4.7"/>
				<g class="st12">
					<path class="st14" d="M148.7,156.7c0-0.3-0.1-1.8-0.1-2.2l1.4,0.1c0,0.1-0.1,0.3-0.4,0.3c0,0.2,0,0.3,0,1.8
						c1.7-0.1,3.5-0.1,4.6-0.1v1c-1.2,0-2.9,0-4.6,0.1c0,1.1,0.1,2.1,0.1,2.9c0.1,0.5,0.2,0.9,0.2,1.5c0,0.4,0,1-0.1,1.4
						c-0.4,1.6-1.6,3.1-4,4.1c-0.2-0.2-0.5-0.6-0.7-0.8c2.1-0.8,3.3-1.9,3.6-3.3h0c-0.3,0.4-0.8,0.7-1.4,0.7c-1.2,0-2.4-1-2.4-2.5
						c0-1.5,1.2-2.6,2.5-2.6c0.5,0,1,0.2,1.3,0.4c0-0.2,0-1.2-0.1-1.8c-1.5,0-5.9,0.2-6.5,0.2l0-0.9l3.2-0.1L148.7,156.7z
						 M148.9,161.6c0-0.5,0-1.8-1.4-1.8c-1,0-1.7,0.8-1.7,1.8c0,1,0.7,1.6,1.6,1.6C148.4,163.2,148.9,162.4,148.9,161.6z"/>
					<path class="st14" d="M167.3,159.4c-1.3,0.4-2.8,0.7-4.2,0.9c0.4,0.8,1.3,1.8,2.3,2.2l-0.6,0.8c-0.2-0.1-0.6-0.3-0.8-0.4
						c-0.3-0.1-1-0.2-1.7-0.2c-0.2,0-0.4,0-0.6,0l-0.2-0.8c0.5,0,1.2,0,1.6,0.1c-0.4-0.4-0.8-1-1.1-1.6c-0.9,0.1-2,0.1-3.8,0.1
						c-0.7,0-1.5,0-2.1,0l0-0.9c0.6,0,1.4,0,2.1,0c1.1,0,2.3,0,3.4-0.1c-0.2-0.4-0.4-1.2-0.5-1.9c-0.6,0.1-1.2,0.1-1.8,0.1
						c-0.8,0-1.7,0-2.4,0v-0.9c0.8,0,1.8,0,2.4,0c0.5,0,1.1,0,1.6-0.1c-0.1-0.6-0.3-1.4-0.4-2.2l1.4,0c0,0.2-0.1,0.3-0.4,0.3
						c0.1,0.6,0.2,1.2,0.3,1.8c1.3-0.1,2.7-0.4,3.8-0.8l0.2,0.9c-1,0.4-2.4,0.6-3.8,0.8c0.2,0.7,0.4,1.4,0.5,1.8
						c1.5-0.2,3.1-0.5,4.4-0.9L167.3,159.4z M164.9,166.8c-0.8,0.1-1.7,0.1-3.1,0.1c-2.3,0-4-0.7-4-2.3c0-0.8,0.7-1.7,1.7-2.2
						l0.6,0.6c-0.8,0.4-1.3,1-1.3,1.6c0,1,1.2,1.4,3,1.4c1.1,0,2.2-0.1,3.1-0.1L164.9,166.8z"/>
					<path class="st14" d="M171.2,158.4v0.7c0,2.4-0.2,6-1.7,8.3c-0.2-0.2-0.6-0.4-0.8-0.5c1.4-2.3,1.5-5.5,1.5-7.9v-4h10.3v3.2
						H171.2z M176.6,166.2h5v0.8h-10.7v-0.8h4.8v-1.5H172v-0.8h3.7v-1.2c-1.4,0.1-2.7,0.1-3.6,0.1c0,0.1-0.1,0.2-0.2,0.2l-0.3-1
						l1.6,0c0.4-0.5,0.8-1.2,1.1-1.8h-3v-0.8h10v0.8h-6c-0.3,0.5-0.7,1.2-1.1,1.7c1.4,0,3-0.1,4.6-0.1c-0.5-0.4-1-0.7-1.5-1l0.7-0.5
						c1.1,0.6,2.4,1.6,3,2.3l-0.8,0.5c-0.2-0.2-0.4-0.4-0.7-0.7l-2.7,0.1c0,0.1-0.1,0.1-0.3,0.1v1.1h3.8v0.8h-3.8V166.2z
						 M179.6,155.9h-8.5v1.6h8.5V155.9z"/>
				</g>
				<circle class="st14" cx="286.5" cy="210.4" r="4.7"/>
				<g class="st12">
					<path class="st14" d="M305,206.1l-3.7,10.7h-1.2l-3.4-10.7h1.3l1.6,5.4c0.4,1.4,0.8,2.8,1.1,4h0c0.3-1.2,0.7-2.6,1.2-4l1.8-5.4
						H305z"/>
					<path class="st14" d="M313.6,216.7h-1.2l-1.1-3.5h-3.7l-1.1,3.5h-1.2l3.5-10.7h1.3L313.6,216.7z M311,212.4l-1.1-3.2
						c-0.2-0.7-0.4-1.4-0.5-2h0c-0.1,0.6-0.3,1.3-0.5,2l-1.1,3.2H311z"/>
					<path class="st14" d="M319.4,211.6c0.8,0.3,1.3,1.1,1.6,2.2c0.3,1.5,0.6,2.5,0.8,2.9h-1.2c-0.2-0.3-0.4-1.2-0.7-2.6
						c-0.3-1.5-0.9-2.1-2.2-2.1h-1.3v4.7h-1.2v-10.5c0.7-0.1,1.6-0.2,2.4-0.2c1.4,0,2.3,0.3,2.9,0.9c0.5,0.5,0.8,1.2,0.8,2
						C321.3,210.3,320.5,211.2,319.4,211.6L319.4,211.6z M317.7,211.1c1.5,0,2.4-0.8,2.4-2.1c0-1.6-1.2-2.1-2.5-2.1
						c-0.6,0-1.1,0.1-1.3,0.1v4.1H317.7z"/>
					<path class="st14" d="M330.9,216.7h-1.2l-1.1-3.5h-3.7l-1.1,3.5h-1.2l3.5-10.7h1.3L330.9,216.7z M328.3,212.4l-1.1-3.2
						c-0.2-0.7-0.4-1.4-0.5-2h0c-0.1,0.6-0.3,1.3-0.5,2l-1.1,3.2H328.3z"/>
					<path class="st14" d="M340,216.7h-1.2l-3.4-5.6c-0.7-1.2-1.4-2.4-1.9-3.6l-0.1,0c0.1,1.4,0.1,2.6,0.1,4.5v4.7h-1.1v-10.7h1.2
						l3.4,5.6c0.8,1.3,1.4,2.4,1.9,3.5l0,0c-0.1-1.5-0.1-2.8-0.1-4.4v-4.7h1.1V216.7z"/>
					<path class="st14" d="M345.6,213.4c0,2.7-1.3,3.6-3,3.6c-0.5,0-1-0.1-1.3-0.2l0.2-1c0.3,0.1,0.6,0.2,1.1,0.2
						c1.2,0,1.9-0.5,1.9-2.7v-7.2h1.2V213.4z"/>
					<path class="st14" d="M353.5,216.7h-5.6v-10.7h5.4v1H349v3.6h4v1h-4v4.1h4.5V216.7z"/>
				</g>
				<path class="st18" d="M446.9,181.6c0,3.7-6.4,14.7-14.3,14.7s-14.3-11-14.3-14.7s6.4-5.4,14.3-5.4S446.9,177.9,446.9,181.6z"/>
				<g class="st12">
					<path class="st16" d="M435.7,190.8h-6.4v-1l1.1-1.2c2.2-2.3,3.5-3.7,3.5-5.3c0-1-0.5-1.9-1.8-1.9c-0.8,0-1.5,0.4-2,0.8
						l-0.5-1.2c0.6-0.5,1.7-1,2.8-1c2.2,0,3.1,1.5,3.1,3.1c0,1.9-1.3,3.5-3.2,5.4l-0.9,0.9v0h4.2V190.8z"/>
				</g>
				<polygon class="st5" points="220,321.6 165.8,308.7 165.8,279.4 17.7,279.4 17.7,353.8 165.8,353.8 165.8,331.6 				"/>
				<g class="st12">
					<path class="st16" d="M49.4,304.9c0,4.4-2.8,6.2-5.4,6.2c-3.1,0-5.4-2.2-5.4-6c0-3.9,2.4-6.1,5.5-6.1
						C47.3,298.9,49.4,301.4,49.4,304.9z M44,301.2c-1.7,0-2.3,2-2.3,3.8c0,2.1,0.8,3.8,2.3,3.8c1.5,0,2.3-1.7,2.3-3.8
						C46.2,303.2,45.6,301.2,44,301.2z"/>
					<path class="st16" d="M61.6,310.9h-3.1v-6.8c0-1.4-0.5-2.6-1.8-2.6c-0.8,0-2,0.6-2,2.4v6.9h-3.1v-8.1c0-1.4,0-2.5-0.1-3.5h2.7
						l0.1,1.6h0.1c0.5-0.9,1.7-1.8,3.4-1.8c2.1,0,3.8,1.5,3.8,4.8V310.9z"/>
					<path class="st16" d="M79.2,310.9h-3.7l-2.7-5L72,307v3.9h-3.1V294H72v10.3H72c0.3-0.5,0.5-1,0.8-1.4l2.3-3.6h3.6l-3.8,4.8
						L79.2,310.9z"/>
					<path class="st16" d="M89.1,308.1c0,1,0,2.1,0.2,2.8h-2.8l-0.2-1.2h-0.1c-0.7,0.9-1.8,1.4-3.1,1.4c-2.2,0-3.5-1.6-3.5-3.5
						c0-3,2.7-4.4,6.4-4.4c0-1.2-0.4-2-2.1-2c-1.1,0-2.1,0.3-2.9,0.8l-0.6-2c0.8-0.5,2.2-1,4-1c3.6,0,4.6,2.3,4.6,4.9V308.1z
						 M86.1,305.2c-1.7,0-3.4,0.4-3.4,2.1c0,1.1,0.7,1.6,1.5,1.6c0.7,0,1.9-0.5,1.9-2V305.2z"/>
					<path class="st16" d="M92.3,297.1l3.1-0.9v3H98v2.3h-2.6v5.1c0,1.4,0.4,2,1.4,2c0.4,0,0.7,0,1-0.1l0,2.4
						c-0.4,0.2-1.2,0.3-2.1,0.3c-3.3,0-3.4-2.9-3.4-4.2v-5.4h-1.5v-2.3h1.5V297.1z"/>
					<path class="st16" d="M106,301.8c-0.5-0.3-1.3-0.6-2.2-0.6c-0.9,0-1.4,0.5-1.4,1.1c0,0.6,0.4,1,1.8,1.5c2,0.8,2.9,1.9,2.9,3.6
						c0,2.2-1.7,3.7-4.6,3.7c-1.3,0-2.5-0.3-3.3-0.8l0.6-2.2c0.6,0.4,1.8,0.8,2.7,0.8c1.1,0,1.6-0.5,1.6-1.2c0-0.7-0.4-1.1-1.7-1.6
						c-2.2-0.9-3-2.1-3-3.4c0-2.1,1.7-3.7,4.3-3.7c1.2,0,2.2,0.3,2.9,0.7L106,301.8z"/>
					<path class="st16" d="M119,307.3c0,1.4,0.1,2.6,0.1,3.6h-2.7l-0.1-1.5h-0.1c-0.5,0.8-1.5,1.8-3.3,1.8c-2.2,0-3.7-1.4-3.7-4.9
						v-7h3.1v6.5c0,1.8,0.5,2.9,1.8,2.9c1,0,1.9-0.9,1.9-2.2v-7.2h3.1V307.3z"/>
					<path class="st16" d="M131.8,307.5c0,1.2,0,2.5,0.1,3.3h-2.7l-0.1-1.7H129c-0.6,1.2-1.9,1.9-3.3,1.9c-2.6,0-4.5-2.4-4.5-6
						c0-4,2.2-6.2,4.7-6.2c1.4,0,2.3,0.6,2.8,1.4h0V294h3.1V307.5z M128.7,304c0-1.7-1-2.5-2.1-2.5c-1.6,0-2.4,1.6-2.4,3.7
						c0,2.1,0.9,3.5,2.3,3.5c0.9,0,2.1-0.7,2.1-2.5V304z"/>
					<path class="st16" d="M144.8,304.9c0,4.4-2.8,6.2-5.4,6.2c-3.1,0-5.4-2.2-5.4-6c0-3.9,2.4-6.1,5.5-6.1
						C142.8,298.9,144.8,301.4,144.8,304.9z M139.4,301.2c-1.7,0-2.3,2-2.3,3.8c0,2.1,0.8,3.8,2.3,3.8c1.5,0,2.3-1.7,2.3-3.8
						C141.7,303.2,141,301.2,139.4,301.2z"/>
				</g>
				<g class="st12">
					<path class="st16" d="M69.7,333.1h-6.1c1.8,1.3,4.3,2.5,6.7,3.1c-0.5,0.5-1.3,1.5-1.7,2.1c-2.5-0.8-5.1-2.3-7-4.1v4.4H59v-4.5
						c-1.9,1.9-4.5,3.4-7,4.3c-0.4-0.6-1.2-1.6-1.7-2.1c2.4-0.7,4.9-1.9,6.6-3.3h-6V331H59v-1.4h-2.8v-8.5h2.4
						c0.2-0.7,0.4-1.5,0.5-2.1l3,0.6c-0.1,0.2-0.3,0.3-0.5,0.3c-0.1,0.4-0.3,0.8-0.5,1.3h3.3v2.2c1-0.9,2.3-2.2,3-3.2l2.4,1.6
						c-0.1,0.1-0.2,0.2-0.4,0.2c-0.1,0-0.1,0-0.2,0c-0.8,0.9-2.2,2.2-3.2,3l-1.7-1.2v2.6l0.9-1.1c1.5,0.8,3.8,2,4.9,2.9l-1.5,1.9
						c-0.9-0.8-2.7-2-4.2-2.8v2.5h-2.3c0,0.2-0.2,0.4-0.6,0.4v1h8.1V333.1z M50.5,327.9c1.3-0.6,3.1-1.6,5-2.6l0.7,2
						c-1.4,0.9-3,1.8-4,2.4c0,0.2-0.1,0.4-0.3,0.4L50.5,327.9z M52.6,320.3c1.2,0.9,2.7,2.2,3.3,3.2l-1.9,1.6c-0.6-1-2-2.4-3.2-3.3
						L52.6,320.3z M62,324.4V323h-3.5v1.4H62z M58.5,326.2v1.4H62v-1.4H58.5z"/>
					<path class="st16" d="M86.1,324l2.1,1.1c-0.1,0.2-0.2,0.3-0.4,0.4c-0.9,2.3-2.4,5.2-4.1,7.6c1,0.6,1.9,1.3,2.5,1.9l-1.7,2.4
						c-1.6-1.7-5-3.9-7.9-5.2l1.5-2.1c1,0.4,2.2,1,3.3,1.6c1.1-1.5,2.1-3.4,2.8-5.1h-6c-1.2,2.3-2.7,4.6-4.4,6.2
						c-0.6-0.4-1.7-1.1-2.4-1.4c3.1-2.8,5.4-7.5,6.5-11.3l3.2,0.9c-0.1,0.2-0.3,0.3-0.6,0.3c-0.3,0.9-0.6,1.9-1.1,2.9h6.3L86.1,324z
						"/>
					<path class="st16" d="M90.7,319.8h18v18.9h-2.4V338H93v0.8h-2.4V319.8z M93,335.7h13.2v-13.7H93V335.7z M104.1,330.4l1.7,1.2
						c-0.1,0.1-0.3,0.2-0.5,0.1c-0.5,0.3-1.2,0.8-1.8,1.1c0.8,0.4,1.6,0.7,2.5,0.9c-0.4,0.4-1,1.1-1.3,1.6c-1.5-0.5-3.1-1.3-4.3-2.4
						v2.4h-2.2v-2.2c-1.2,0.7-2.4,1.3-3.7,1.7c-0.3-0.4-0.9-1.1-1.2-1.5c1.7-0.5,3.5-1.3,4.9-2.3h-3.1v-3.5h8.9v3L104.1,330.4z
						 M105.5,325.4v1.4H93.7v-1.4h4.7v-0.8h-3.6v-1.4h3.6v-1l2.8,0.2c0,0.2-0.2,0.3-0.5,0.4v0.4h3.7v1.4h-3.7v0.8H105.5z
						 M97.2,328.7v1h4.6v-1H97.2z M101.1,331l-0.1,0.1c0.3,0.3,0.7,0.6,1.1,0.9c0.5-0.3,1-0.7,1.4-1H101.1z"/>
					<path class="st16" d="M122.6,321.4h7.7v2.4h-15.3v2.9c0,3.4-0.3,8.6-2.2,11.9c-0.5-0.4-1.6-1.2-2.2-1.4c1.7-3,1.9-7.5,1.9-10.5
						v-5.3h7.5V319l3.2,0.2c0,0.2-0.2,0.3-0.6,0.4V321.4z M124,324.3c0,0.2-0.2,0.4-0.6,0.4v1.4h6.6v2.2h-6.6v2.3h5.4v8.1h-2.6V338
						h-7.5v0.8h-2.4v-8.1h4.6v-6.5L124,324.3z M126.2,335.8v-2.9h-7.5v2.9H126.2z"/>
				</g>
				<polyline class="st19" points="267.6,311.3 267.6,326.2 262.9,326.2 				"/>
				<polygon class="st5" points="264.1,322.2 257.2,326.2 264.1,330.2 				"/>
				<line class="st19" x1="267.6" y1="256.8" x2="267.6" y2="276.2"/>
				<polygon class="st5" points="263.6,275.1 267.6,282 271.6,275.1 				"/>
				<line class="st19" x1="267.6" y1="202.3" x2="267.6" y2="221.7"/>
				<polygon class="st5" points="263.6,220.5 267.6,227.5 271.6,220.5 				"/>
				<rect x="228.3" y="70.1" class="st14" width="60.8" height="23.5"/>
				<g class="st12">
					<path class="st16" d="M246,84.4h-3.6c1,0.8,2.5,1.5,3.9,1.8c-0.3,0.3-0.8,0.9-1,1.2c-1.5-0.5-3-1.4-4.1-2.4v2.6h-1.5V85
						c-1.1,1.1-2.6,2-4.1,2.5c-0.2-0.4-0.7-0.9-1-1.2c1.4-0.4,2.8-1.1,3.9-2H235v-1.3h4.7v-0.8h-1.7v-5h1.4c0.1-0.4,0.2-0.9,0.3-1.2
						l1.8,0.3c0,0.1-0.1,0.2-0.3,0.2c-0.1,0.2-0.2,0.5-0.3,0.7h1.9v1.3c0.6-0.5,1.3-1.3,1.8-1.9l1.4,0.9c0,0.1-0.1,0.1-0.2,0.1
						c0,0-0.1,0-0.1,0c-0.5,0.5-1.3,1.3-1.9,1.7l-1-0.7v1.5l0.6-0.6c0.9,0.5,2.2,1.2,2.8,1.7l-0.9,1.1c-0.5-0.5-1.6-1.2-2.5-1.7v1.4
						h-1.4c0,0.1-0.1,0.2-0.3,0.2v0.6h4.8V84.4z M234.7,81.3c0.7-0.3,1.8-0.9,2.9-1.5l0.4,1.2c-0.8,0.5-1.7,1.1-2.3,1.4
						c0,0.1,0,0.2-0.1,0.3L234.7,81.3z M236,76.9c0.7,0.5,1.6,1.3,2,1.9l-1.1,0.9c-0.3-0.6-1.2-1.4-1.9-2L236,76.9z M241.5,79.3
						v-0.8h-2v0.8H241.5z M239.5,80.3v0.8h2v-0.8H239.5z"/>
					<path class="st16" d="M255.7,79l1.2,0.6c0,0.1-0.1,0.2-0.2,0.2c-0.5,1.3-1.4,3.1-2.4,4.5c0.6,0.4,1.1,0.8,1.5,1.1l-1,1.4
						c-0.9-1-3-2.3-4.6-3l0.9-1.2c0.6,0.3,1.3,0.6,1.9,0.9c0.7-0.9,1.3-2,1.7-3H251c-0.7,1.4-1.6,2.7-2.6,3.6
						c-0.3-0.3-1-0.6-1.4-0.8c1.8-1.6,3.2-4.4,3.8-6.6l1.9,0.5c0,0.1-0.2,0.2-0.4,0.2c-0.2,0.5-0.4,1.1-0.6,1.7h3.7L255.7,79z"/>
					<path class="st16" d="M258.3,76.6h10.6v11.1h-1.4v-0.4h-7.8v0.4h-1.4V76.6z M259.7,85.9h7.8v-8h-7.8V85.9z M266.2,82.8l1,0.7
						c0,0.1-0.1,0.1-0.3,0.1c-0.3,0.2-0.7,0.4-1.1,0.7c0.5,0.2,1,0.4,1.5,0.5c-0.3,0.2-0.6,0.6-0.8,0.9c-0.9-0.3-1.8-0.8-2.5-1.4
						v1.4h-1.3v-1.3c-0.7,0.4-1.4,0.7-2.1,1c-0.2-0.2-0.5-0.7-0.7-0.9c1-0.3,2.1-0.8,2.9-1.3H261v-2h5.2L266.2,82.8L266.2,82.8z
						 M267,79.9v0.8h-6.9v-0.8h2.8v-0.5h-2.1v-0.8h2.1V78l1.7,0.1c0,0.1-0.1,0.2-0.3,0.2v0.3h2.2v0.8h-2.2v0.5H267z M262.2,81.8v0.6
						h2.7v-0.6H262.2z M264.4,83.1L264.4,83.1c0.1,0.3,0.3,0.4,0.6,0.6c0.3-0.2,0.6-0.4,0.8-0.6H264.4z"/>
					<path class="st16" d="M271.4,84c-0.1,1.2-0.2,2.4-0.7,3.1l-0.8-0.4c0.5-0.7,0.6-1.7,0.7-2.8L271.4,84z M281.3,82h-1.8
						c0.4,2,1.1,3.6,2.3,4.5c-0.3,0.3-0.8,0.8-1,1.2c-1.6-1.1-2.3-3.1-2.7-5.7h-0.6c0,1.9-0.3,4.2-1.3,5.7c-0.2-0.2-0.8-0.6-1.2-0.7
						c-0.3,0.7-1,0.7-2,0.7c0-0.4-0.1-0.8-0.3-1.2c0.3,0,0.6,0,0.8,0s0.2,0,0.3-0.1c0.1-0.1,0.2-0.5,0.3-1.1l-0.4,0.1
						c-0.1-0.4-0.3-1.1-0.6-1.6l0.6-0.2c0.2,0.3,0.3,0.7,0.4,1h0c0-0.4,0-0.8,0.1-1.3h-2.4v0.3h-1.2v-7h4.7v1.2h-1.5v0.7h1.3v1.1
						h-1.3v0.7h1.3v1.1h-1.3v0.8h0.8l0.3,0l0.7,0.1c0,0.1,0,0.3,0,0.4c-0.1,2.6-0.2,3.8-0.5,4.4c1-1.6,1.1-3.9,1.1-5.6v-4.8h5V82z
						 M271.7,86.4c0-0.2,0-0.3,0-0.5c0-0.6,0-1.2-0.1-1.8l0.6-0.1c0.1,0.7,0.2,1.7,0.1,2.3L271.7,86.4z M272.7,77.7h-0.8v0.7h0.8
						V77.7z M272.7,80.3v-0.7h-0.8v0.7H272.7z M271.9,81.4v0.8h0.8v-0.8H271.9z M272.8,86c0-0.5-0.2-1.4-0.4-2l0.6-0.1
						c0.2,0.6,0.4,1.4,0.4,2L272.8,86z M280,77.9h-2.3v2.8h2.3V77.9z"/>
				</g>
				<line class="st20" x1="216.2" y1="338.7" x2="228.8" y2="338.7"/>
				<line class="st20" x1="216.2" y1="333.8" x2="228.8" y2="333.8"/>
				<line class="st20" x1="220.1" y1="333" x2="220.1" y2="344.4"/>
				<line class="st20" x1="224.9" y1="333" x2="224.9" y2="344.4"/>
				<path class="st21" d="M257.9,180.9c-3.2,0-5.8,2.6-5.8,5.8c0,3.2,2.6,5.8,5.8,5.8h20.9c3.2,0,5.8-2.6,5.8-5.8
					c0-3.2-2.6-5.8-5.8-5.8H257.9z"/>
				<circle class="st22" cx="257.9" cy="186.6" r="4.7"/>
				<circle class="st23" cx="268.3" cy="186.6" r="4.7"/>
				<circle class="st24" cx="278.8" cy="186.6" r="4.7"/>
			</g>
		</g>
	</g>
</g>
</svg>
