<?xml version="1.0" encoding="utf-8"?>
<!-- Generator: Adobe Illustrator 25.2.1, SVG Export Plug-In . SVG Version: 6.00 Build 0)  -->
<svg version="1.1" id="レイヤー_1" xmlns="http://www.w3.org/2000/svg" xmlns:xlink="http://www.w3.org/1999/xlink" x="0px"
	 y="0px" viewBox="0 0 467.7 467.7" style="enable-background:new 0 0 467.7 467.7;" xml:space="preserve">
<style type="text/css">
	.st0{clip-path:url(#SVGID_2_);}
	.st1{fill:#EAEAEA;}
	.st2{fill:none;stroke:#FFFFFF;stroke-width:31;stroke-miterlimit:10;}
	.st3{fill:none;stroke:#FFFFFF;stroke-width:12;stroke-miterlimit:10;}
	.st4{fill:none;stroke:#FFFFFF;stroke-width:8;stroke-miterlimit:10;}
	.st5{fill:none;stroke:#9E9E9F;stroke-width:3;stroke-miterlimit:10;}
	.st6{fill:#FF5B6A;}
	.st7{fill:#583C27;}
	.st8{enable-background:new    ;}
	.st9{fill:#C3E8D1;}
	.st10{fill:#FFFFFF;}
	.st11{fill:none;stroke:#FFFFFF;stroke-width:3;stroke-linecap:round;stroke-linejoin:round;}
	.st12{fill:#FFFFFF;stroke:#583C27;stroke-width:0.6;stroke-miterlimit:10;}
	.st13{fill:#FF687A;}
	.st14{fill:#FFC240;}
	.st15{fill:#8EC6CA;}
	.st16{fill:#5D5FA9;}
	.st17{fill:#FFFFFF;stroke:#583C27;stroke-width:2;stroke-miterlimit:10;}
	.st18{fill:none;stroke:#583C27;stroke-width:2;stroke-miterlimit:10;}
	.st19{fill:none;stroke:#FF5B6A;stroke-width:2;stroke-linecap:round;stroke-linejoin:round;}
	.st20{fill:none;stroke:#583C27;stroke-width:3;stroke-linecap:round;stroke-linejoin:round;}
	.st21{fill:none;stroke:#583C27;stroke-miterlimit:10;}
</style>
<g id="レイヤー_2_1_">
	<g id="レイヤー_1-2">
		<g>
			<defs>
				<rect id="SVGID_1_" width="467.7" height="467.7"/>
			</defs>
			<clipPath id="SVGID_2_">
				<use xlink:href="#SVGID_1_"  style="overflow:visible;"/>
			</clipPath>
			<g class="st0">
				<rect class="st1" width="467.7" height="467.7"/>
				<path class="st2" d="M76,40.3c28.3,42.9,57.4,56.4,113.4,56.4h402.9"/>
				<line class="st3" x1="73.7" y1="46.4" x2="-40.4" y2="-104.5"/>
				<line class="st3" x1="-27.7" y1="194.8" x2="490.1" y2="194.8"/>
				<line class="st4" x1="116.8" y1="342.1" x2="-4.7" y2="342.1"/>
				<line class="st4" x1="-7.2" y1="453.6" x2="481.2" y2="453.6"/>
				<line class="st2" x1="76.5" y1="-100.1" x2="76.5" y2="486.1"/>
				<line class="st5" x1="76.5" y1="-100.1" x2="76.5" y2="486.1"/>
				<line class="st3" x1="365.8" y1="106.2" x2="365.8" y2="489.1"/>
				<line class="st3" x1="401" y1="87" x2="401" y2="-96.3"/>
				<line class="st4" x1="213.9" y1="110" x2="213.9" y2="489.1"/>
				<line class="st4" x1="164.1" y1="110" x2="164.1" y2="486.1"/>
				<polyline class="st4" points="118.9,194.5 118.9,387.3 86,387.3 				"/>
				<line class="st4" x1="295.1" y1="193.7" x2="295.1" y2="486.1"/>
				<polyline class="st4" points="367.8,247.6 252.2,247.6 252.2,294 				"/>
				<line class="st4" x1="213.9" y1="297.1" x2="367.8" y2="297.1"/>
				<line class="st4" x1="213.9" y1="346.7" x2="367.8" y2="346.7"/>
				<line class="st4" x1="213.9" y1="392" x2="367.8" y2="392"/>
				<line class="st3" x1="370.1" y1="327.6" x2="502.6" y2="327.6"/>
				<path class="st6" d="M342,339.6c2.6,0,3.9-1.6,3.9-3.4c0-3.4-3.1-4.8-3.1-11.7c0.1-0.4-0.2-0.8-0.6-0.9
					c-0.4-0.1-0.8,0.2-0.9,0.6c0,0.1,0,0.2,0,0.2c0,6.9-3.1,8.2-3.1,11.7C338.1,338,339.2,339.6,342,339.6z"/>
				<path class="st6" d="M348,334.1c-0.5,0-0.8-0.4-0.8-0.8c0-0.3,0.2-0.6,0.4-0.7c5.7-3.1,7.8-10.2,4.7-15.9
					c-3.1-5.7-10.2-7.8-15.9-4.7s-7.8,10.2-4.7,15.9c1.1,2,2.7,3.6,4.7,4.7c0.4,0.2,0.6,0.7,0.3,1.1c0,0,0,0,0,0
					c-0.2,0.4-0.7,0.5-1.1,0.3c-6.5-3.6-8.9-11.7-5.4-18.2c3.6-6.5,11.7-8.9,18.2-5.4c6.5,3.6,8.9,11.7,5.4,18.2
					c-1.2,2.3-3.1,4.1-5.4,5.4C348.3,334.1,348.2,334.1,348,334.1z"/>
				<circle class="st7" cx="246.8" cy="128.3" r="4.7"/>
				<g class="st8">
					<path class="st7" d="M232.6,154.7c-0.1,0.1-0.3,0.2-0.4,0.2c-1.1,1.3-3.3,2.9-5,4c-0.3-0.3-0.8-0.7-1.1-0.9
						c1.8-1,3.8-2.5,4.8-3.9L232.6,154.7z M228.7,151.8H245v1.3h-8.8v6h-1.5v-6h-6.2v0.6h-1.4v-12.2l1.8,0.1c0,0.1-0.1,0.3-0.4,0.3
						V151.8z M242.5,140.4v9.7H231v-9.7H242.5z M241.2,143.3v-1.8h-8.8v1.8H241.2z M241.2,146.2v-1.8h-8.8v1.8H241.2z M241.2,149.1
						v-1.8h-8.8v1.8H241.2z M243.8,158.9c-1.1-1.1-3.3-2.9-5-4.1l1.2-0.8c1.7,1.2,4,2.9,5.1,4L243.8,158.9z"/>
					<path class="st7" d="M247,156.8h19.1v1.4H247V156.8z M265.5,143.9v1.4h-17.7v-1.4h8v-4.3l1.9,0.1c0,0.1-0.1,0.3-0.4,0.3v3.9
						H265.5z M252,146.5c1.1,2.8,1.8,6.5,2,8.9c-0.1,0-0.3,0-1.4,0.3c-0.1-2.4-0.8-6-1.9-8.8L252,146.5z M263,146.7
						c-0.1,0.1-0.3,0.3-0.5,0.3c-0.6,2.8-1.8,6.9-2.8,9.2l-1.3-0.4c0.9-2.4,2-6.6,2.5-9.6L263,146.7z"/>
					<path class="st7" d="M287.2,144h-16.1v4.4c0,3.2-0.3,7.8-2.3,10.9c-0.3-0.2-0.9-0.7-1.2-0.8c1.9-2.9,2.1-7.1,2.1-10.1v-5.7h7.8
						v-3l1.9,0.1c0,0.1-0.1,0.3-0.4,0.3v2.6h8.3V144z M282.5,150.8c1.9,2.4,4.1,5.7,4.9,7.8l-1.4,0.7c-0.2-0.6-0.5-1.2-0.9-2
						c-4.7,0.3-9.8,0.6-12.9,0.8c0,0.2-0.2,0.3-0.3,0.3l-0.7-1.7l2.5-0.1c1.3-3,2.7-7.7,3.5-11.1l1.9,0.5c0,0.1-0.2,0.3-0.5,0.3
						c-0.8,3.1-2.2,7.3-3.4,10.3l9.1-0.4c-0.9-1.6-2.1-3.3-3.2-4.6L282.5,150.8z"/>
					<path class="st7" d="M301.6,157.5h-10.2v1h-1.3v-4.5l1.7,0.1c0,0.1-0.1,0.2-0.4,0.3v1.9h3.8v-2.8l1.7,0.1
						c0,0.1-0.1,0.3-0.4,0.3v2.4h3.8V154l1.7,0.1c0,0.1-0.1,0.2-0.4,0.3V157.5z M308.1,150.7h-14.8v1.6h13l0.3,0l0.8,0.2
						c0,0.1,0,0.3-0.1,0.4c-0.3,3.8-0.6,5.2-1.2,5.8c-0.4,0.4-0.9,0.5-2.1,0.5c-0.5,0-1.3,0-2-0.1c0-0.4-0.2-0.9-0.4-1.3
						c1.1,0.1,2.2,0.1,2.5,0.1c0.4,0,0.6,0,0.8-0.2c0.4-0.4,0.6-1.5,0.9-4.3h-14v-12.1h4.9c0.3-0.6,0.6-1.3,0.8-1.8l1.8,0.4
						c0,0.1-0.2,0.2-0.4,0.2c-0.2,0.3-0.4,0.8-0.7,1.2h6.6v6.7h-11.6v1.6h14.8V150.7z M303.5,142.4h-10.2v1.7h10.2V142.4z
						 M293.2,146.9h10.2v-1.7h-10.2V146.9z"/>
					<path class="st7" d="M321.4,142.1h8v1.3h-14.8v5.1c0,3.3-0.4,7.8-3.4,10.7c-0.2-0.3-0.7-0.8-1-0.9c1.8-1.8,2.6-4.2,2.9-6.4
						c-1,0.5-1.9,1.1-2.6,1.5c0,0.2-0.1,0.3-0.2,0.4l-0.6-1.5c0.9-0.4,2.2-1.1,3.6-1.8c0-0.7,0.1-1.3,0.1-2v-6.3h6.6v-2.5l1.9,0.1
						c0,0.1-0.1,0.3-0.4,0.3V142.1z M311.1,143.8c0.8,1.2,1.5,2.9,1.7,3.9l-1.2,0.6c-0.2-1.1-0.9-2.7-1.7-4L311.1,143.8z
						 M315.6,146.7v-1.3h13.5v1.3h-6.3v2.3h5.6v8.5c0,1.4-0.6,1.6-3.8,1.6c-0.1-0.4-0.3-0.9-0.5-1.3c0.7,0,1.4,0,1.8,0
						c1,0,1.1,0,1.1-0.4v-7.3h-4.3c0,0.4-0.1,0.8-0.2,1.2c1.4,1.2,3.1,2.9,3.9,3.9l-0.9,0.8c-0.7-0.9-2.1-2.4-3.4-3.6
						c-0.6,1.3-1.6,2.6-3.6,3.6c-0.2-0.3-0.5-0.7-0.8-1c2.9-1.3,3.6-3.3,3.7-5h-3.9v8.9h-1.3V149h5.3v-2.3H315.6z"/>
					<path class="st7" d="M336.9,140.5l0.9,0.5c0,0.1-0.1,0.1-0.2,0.2c-0.5,1.6-1.4,3.7-2.1,5.5c1.6,1.7,2.2,3.2,2.2,4.5
						c0,3-1.8,2.9-3.5,2.9c0-0.4-0.2-0.9-0.4-1.2c0.3,0,0.6,0.1,0.9,0.1c0.8,0,1.6,0,1.6-1.8c0-1.2-0.6-2.6-2.2-4.3
						c0.7-1.6,1.3-3.6,1.8-5h-3v17.3h-1.3v-18.6h4.9L336.9,140.5z M346.3,156.9c0,0.5,0.1,0.6,0.6,0.6h1.6c0.5,0,0.6-0.3,0.6-2.7
						c0.3,0.3,0.9,0.5,1.2,0.6c-0.1,2.7-0.5,3.4-1.7,3.4h-1.9c-1.4,0-1.7-0.4-1.7-1.9v-5.8h-2.6c-0.3,3.9-1.1,6.6-5.1,8.1
						c-0.1-0.3-0.5-0.8-0.8-1.1c3.5-1.2,4.3-3.4,4.6-7h-2.9v-1.3h12.1v1.3h-3.8V156.9z M339.2,143.4v2.6h-1.3v-3.9h5.3v-2.6l1.8,0.1
						c0,0.1-0.1,0.3-0.4,0.3v2.2h5.4v3.8h-1.3v-2.6H339.2z M348.3,147.1h-8.7v-1.3h8.7V147.1z"/>
				</g>
				<circle class="st7" cx="452.8" cy="122.5" r="4.7"/>
				<g class="st8">
					<path class="st7" d="M459.9,140v1h-6.3v3.7c0,1.3-0.8,1.3-3.5,1.3c-0.1-0.3-0.3-0.7-0.4-1c0.6,0,1.1,0,1.6,0
						c1.2,0,1.3,0,1.3-0.3V141h-6.2v-1h6.2v-2.6h-3.9v-1h8.9v1h-3.9v2.6H459.9z M447.8,134.7v2.5h-1v-3.4h5.8v-1.9l1.4,0.1
						c0,0.1-0.1,0.2-0.3,0.2v1.6h5.9v3.4h-1v-2.5H447.8z"/>
					<path class="st7" d="M446.8,161.2v-6.6h5.5v6.5h-1v-0.6h-3.5v0.8H446.8z M451.3,155.5h-3.5v3.9h3.5V155.5z M457.1,147.6v5.3
						h-7.9v-5.3H457.1z M456,152v-3.4h-5.9v3.4H456z M453.9,154.6h5.7v6.5h-1v-0.7h-3.7v0.8h-1V154.6z M454.9,159.4h3.7v-3.9h-3.7
						V159.4z"/>
					<path class="st7" d="M453,166.6v1.9h1.5v0.9H453v2h1.2v0.9h-3.5v2c1.2-0.2,2.4-0.3,3.6-0.5l0,0.9c-2.8,0.4-5.8,0.9-7.7,1.1
						c0,0.1-0.1,0.2-0.2,0.2l-0.4-1.1c1-0.1,2.3-0.3,3.7-0.4v-2.1h-3.4v-0.9h1.1v-2H446v-0.9h1.4v-1.9h-1.1v-0.9h3.4v-1.5
						c-1,0.1-2.1,0.2-3.2,0.3c0-0.2-0.2-0.6-0.3-0.8c2.5-0.2,5.4-0.6,6.9-1l0.9,0.8c0,0-0.1,0-0.2,0c0,0-0.1,0-0.1,0
						c-0.8,0.2-1.9,0.4-3.1,0.6v1.7h3.5v0.9H453z M448.3,166.6v1.9h1.5v-1.9H448.3z M448.3,171.3h1.5v-2h-1.5V171.3z M452.2,166.6
						h-1.5v1.9h1.5V166.6z M452.2,171.3v-2h-1.5v2H452.2z M459.6,163l0.7,0.3c0,0.1-0.1,0.1-0.1,0.2c-0.6,1.3-1.4,2.9-2.2,4.6
						c1.7,1.5,2.4,2.7,2.4,3.8c0,2.4-1.6,2.4-2.6,2.4c-0.3,0-0.5,0-0.8,0c0-0.3-0.1-0.7-0.3-1c0.3,0,0.7,0,0.9,0
						c0.9,0,1.8,0,1.8-1.5c0-1-0.8-2.1-2.4-3.6c0.8-1.5,1.4-3,2-4.2h-2.9v12.4h-1v-13.3h4.5L459.6,163z"/>
					<path class="st7" d="M447.9,182.9c-0.5,0.9-1.1,1.8-1.7,2.5c-0.1-0.2-0.4-0.7-0.5-1c1.4-1.6,2.8-4.2,3.6-6.9l1.2,0.4
						c0,0.1-0.2,0.2-0.3,0.2c-0.4,1-0.8,2-1.3,3l0.3,0.1c0,0.1-0.1,0.2-0.3,0.2v10.2h-1V182.9z M459.6,186.3h-4
						c-0.1,1-0.4,1.9-1,2.7c1.4,1,3.4,1.5,5.9,1.7c-0.2,0.2-0.5,0.7-0.6,0.9c-2.4-0.3-4.4-0.9-5.9-1.9c-0.8,0.8-2,1.4-3.7,1.9
						c-0.1-0.2-0.4-0.6-0.6-0.8c1.7-0.4,2.8-1,3.5-1.7c-0.7-0.6-1.2-1.3-1.6-2.1l0.9-0.3c0.3,0.7,0.7,1.2,1.3,1.7
						c0.4-0.7,0.7-1.4,0.7-2.2h-3.7v-5.6h3.8v-1.4h-4.2v-0.9h9.7v0.9h-4.5v1.4h4V186.3z M451.8,181.5v1.6h2.8v-1.6H451.8z
						 M451.8,185.4h2.8c0-0.2,0-0.5,0-0.7v-0.9h-2.8V185.4z M458.6,185.4v-1.6h-3v0.9c0,0.2,0,0.5,0,0.7H458.6z M458.6,181.5h-3v1.6
						h3V181.5z"/>
					<path class="st7" d="M458.9,198.7l0.6,0.1c0,0.1,0,0.2,0,0.3c-0.2,4.9-0.4,6.6-0.9,7.1c-0.4,0.5-0.8,0.5-1.7,0.5
						c-0.4,0-0.9,0-1.4,0c0-0.3-0.1-0.7-0.3-1c0.9,0.1,1.7,0.1,1.9,0.1c0.3,0,0.4,0,0.6-0.2c0.3-0.4,0.5-1.9,0.7-6h-9.7
						c-0.2,2.3-0.7,4.8-2,6.7c-0.2-0.2-0.6-0.5-0.8-0.7c1.8-2.5,1.9-6.1,1.9-8.6v-3.7h10.6v3.9h-9.6c0,0.4,0,0.9,0,1.4h9.9
						L458.9,198.7z M457.3,194.4h-8.5v2.1h8.5V194.4z M456,204.9h-4.9v0.9h-1v-4.8h5.9V204.9z M455.1,201.8h-3.9v2.2h3.9V201.8z"/>
				</g>
				<circle class="st7" cx="384.2" cy="345.2" r="4.7"/>
				<g class="st8">
					<path class="st7" d="M382.5,355.6h4.9v6.1h-0.9v-0.8h-4v4.3h-0.9v-4.3h-3.9v0.8h-0.9v-6.2h4.8v-2.4l1.2,0.1
						c0,0.1-0.1,0.2-0.3,0.2V355.6z M377.7,360h3.9v-3.6h-3.9V360z M382.5,360h4v-3.6h-4V360z"/>
					<path class="st7" d="M389.7,353.8h10.9v11.5h-0.9v-0.6h-9.2v0.6h-0.9V353.8z M390.6,363.8h9.2v-9.2h-9.2V363.8z M395.5,361.8
						h3.4v0.8h-7.3v-0.8h3.1v-2.4h-2.5v-0.7h2.5v-2h-2.9v-0.8h6.8v0.8h-3.1v2h2.8v0.7h-2.8V361.8z M397.7,361.6
						c-0.3-0.4-0.8-1.1-1.3-1.5l0.6-0.3c0.5,0.4,1.1,1.1,1.4,1.5L397.7,361.6z"/>
					<path class="st7" d="M405.6,361c0.5,0.3,1.8,1.4,2.2,1.7l-0.5,0.7c-0.3-0.3-1.1-1.1-1.7-1.6v3.5h-0.9v-3.6
						c-0.6,1-1.4,2-2.2,2.6c-0.1-0.2-0.4-0.5-0.6-0.6c0.9-0.6,1.9-1.8,2.6-3h-2.3v-0.8h2.5v-1.4h-2.7v-0.8h1.6
						c-0.1-0.6-0.3-1.4-0.6-2l0.7-0.2c0.3,0.7,0.5,1.5,0.6,2.1l-0.5,0.1h2.2c-0.2-0.1-0.4-0.1-0.4-0.1c0.3-0.6,0.6-1.5,0.7-2.1
						l1,0.3c0,0.1-0.1,0.1-0.3,0.1c-0.2,0.5-0.5,1.3-0.8,1.8h1.9v0.8h-2.6c0,0-0.1,0-0.1,0v1.4h2.6v0.8h-2.6V361z M408.1,354.7v0.8
						h-5.8v-0.8h2.4v-1.5l1.1,0.1c0,0.1-0.1,0.2-0.2,0.2v1.2H408.1z M414.2,357.7v0.8h-1.5v6.8h-0.9v-6.8h-2.1v0.5
						c0,1.9-0.2,4.5-2.1,6.3c-0.1-0.2-0.4-0.5-0.6-0.6c1.7-1.6,1.9-3.9,1.9-5.7v-4.5l0.6,0.2c1.4-0.4,2.8-0.9,3.6-1.4l0.9,0.7
						c0,0-0.1,0.1-0.3,0c-1,0.5-2.6,1-4,1.4v2.4H414.2z"/>
					<path class="st7" d="M420.5,358h-3.9v7.2h-0.9v-11.5h4.8V358z M419.7,354.4h-3.1v1.1h3.1V354.4z M416.6,357.4h3.1v-1.2h-3.1
						V357.4z M424.4,359.5h-1v5.5h-0.8v-1.1c-1.7,0.1-3.5,0.2-4.6,0.3c0,0.1-0.1,0.2-0.2,0.2l-0.2-0.9l1.2-0.1v-3.9h-1v-0.7h6.6
						V359.5z M422.6,360.3v-0.8h-3v0.8H422.6z M422.6,361.8v-0.9h-3v0.9H422.6z M419.6,362.4v1c0.9,0,2-0.1,3-0.2v-0.9H419.6z
						 M426.6,353.8v10.3c0,1.1-0.5,1.2-2.5,1.2c0-0.2-0.2-0.6-0.3-0.9c0.4,0,0.9,0,1.2,0c0.7,0,0.8,0,0.8-0.3v-6h-4v-4.3H426.6z
						 M425.7,354.4h-3.2v1.1h3.2V354.4z M422.6,357.4h3.2v-1.2h-3.2V357.4z"/>
				</g>
				<g class="st8">
					<path class="st7" d="M388,376.7v0.8h-5.4v3.2c0,1.1-0.7,1.1-3,1.1c-0.1-0.2-0.2-0.6-0.4-0.9c0.5,0,1,0,1.3,0
						c1.1,0,1.1,0,1.1-0.3v-3.1h-5.3v-0.8h5.3v-2.2h-3.3v-0.8h7.6v0.8h-3.3v2.2H388z M377.6,372.2v2.1h-0.9v-2.9h5v-1.6l1.2,0.1
						c0,0.1-0.1,0.2-0.3,0.2v1.4h5v2.9h-0.9v-2.1H377.6z"/>
					<path class="st7" d="M389.7,381.9v-5.7h4.7v5.5h-0.9v-0.5h-3v0.6H389.7z M393.6,377.1h-3v3.3h3V377.1z M398.5,370.3v4.6h-6.7
						v-4.6H398.5z M397.6,374v-2.9h-5v2.9H397.6z M395.8,376.2h4.9v5.6h-0.9v-0.6h-3.2v0.7h-0.8V376.2z M396.7,380.4h3.2v-3.3h-3.2
						V380.4z"/>
					<path class="st7" d="M405.9,373.2V370l1.2,0.1c0,0.1-0.1,0.2-0.3,0.2v11.5h-0.9v-3c-1.2,0.5-2.4,1-3.2,1.4
						c0,0.1-0.1,0.2-0.2,0.2l-0.5-1c1-0.3,2.4-0.9,3.8-1.5V374h-3.4v-0.9H405.9z M409.9,379.9c0,0.7,0.1,0.8,0.7,0.8h2.1
						c0.6,0,0.7-0.6,0.8-2.8c0.2,0.2,0.6,0.4,0.8,0.4c-0.1,2.4-0.4,3.2-1.6,3.2h-2.2c-1.2,0-1.5-0.4-1.5-1.7V370l1.2,0.1
						c0,0.1-0.1,0.2-0.3,0.2v4.2c1.3-0.8,2.6-1.7,3.4-2.5l0.8,0.8c0,0-0.1,0.1-0.2,0.1c0,0-0.1,0-0.1,0c-0.9,0.8-2.5,1.7-3.9,2.5
						V379.9z"/>
					<path class="st7" d="M417.4,379.2c0,0.1-0.1,0.1-0.3,0.1c-0.3,0.9-0.9,2-1.5,2.6c-0.2-0.1-0.5-0.4-0.6-0.5
						c0.6-0.6,1.1-1.5,1.4-2.5L417.4,379.2z M419.6,370.3v8.2h-3.9v-8.2H419.6z M418.8,372.8V371h-2.3v1.8H418.8z M418.8,375.3v-1.8
						h-2.3v1.8H418.8z M418.8,377.8V376h-2.3v1.8H418.8z M419.1,380.9c-0.2-0.5-0.6-1.2-0.9-1.7l0.7-0.3c0.4,0.5,0.8,1.2,1,1.7
						L419.1,380.9z M426.1,373.8l0.5,0.2c0,0.1-0.1,0.1-0.1,0.2c-0.3,2.2-0.9,3.9-1.8,5.2c0.7,0.8,1.5,1.4,2.6,1.9
						c-0.2,0.2-0.5,0.5-0.6,0.7c-1-0.5-1.8-1.1-2.5-1.9c-0.7,0.8-1.6,1.5-2.6,1.9c-0.1-0.2-0.3-0.6-0.5-0.7c1-0.4,1.9-1,2.6-1.9
						c-0.8-1.2-1.3-2.6-1.7-4.2l0.7-0.2c0.3,1.4,0.8,2.7,1.5,3.7c0.7-1,1.2-2.3,1.4-4h-4v0.6c0,2-0.2,4.8-1.4,6.7
						c-0.1-0.2-0.5-0.4-0.7-0.5c1.2-1.8,1.3-4.3,1.3-6.2v-4.8h6.3v0.8h-5.5v2.6h4.4L426.1,373.8z"/>
					<path class="st7" d="M433,376.9c0,0.1-0.1,0.2-0.3,0.2c-0.3,2.4-0.9,4-4.1,4.8c-0.1-0.2-0.3-0.6-0.5-0.7
						c2.9-0.7,3.5-2.1,3.7-4.3L433,376.9z M433.7,373.4V372h-5.3v-0.8h5.3v-1.4l1.2,0.1c0,0.1-0.1,0.2-0.3,0.2v1.1h5.4v0.8h-5.4v1.4
						h4.1v0.8h-9.1v-0.8H433.7z M439.5,377.8h-0.9v-1.7h-9v1.7h-0.8v-2.5h10.7V377.8z M436.1,380.4c0,0.4,0.1,0.4,0.6,0.4h1.8
						c0.5,0,0.6-0.2,0.6-1.8c0.2,0.2,0.6,0.3,0.8,0.4c-0.1,1.8-0.4,2.2-1.4,2.2h-2c-1.1,0-1.4-0.3-1.4-1.2v-3.6l1.1,0.1
						c0,0.1-0.1,0.2-0.3,0.2V380.4z"/>
					<path class="st7" d="M446.6,376.8h-3.9c0,1.6-0.3,3.6-1.2,5c-0.1-0.2-0.5-0.4-0.7-0.5c0.9-1.4,1-3.4,1-5v-3.6h4.8V376.8z
						 M447,370.5v0.8h-5.8v-0.8H447z M445.8,373.6h-3.1v2.4h3.1V373.6z M453.3,374.3v0.8h-1.5v6.7h-0.9v-6.7h-2.4
						c-0.1,2.1-0.4,4.7-2.2,6.7c-0.1-0.2-0.4-0.5-0.7-0.6c1.8-2,2-4.6,2-6.6v-3.5l0.7,0.2c1.4-0.4,3-0.9,3.9-1.4l0.8,0.7
						c-0.1,0.1-0.1,0.1-0.3,0.1c-1.1,0.5-2.8,1-4.3,1.4v2.2H453.3z"/>
				</g>
				<circle class="st7" cx="379.9" cy="439.6" r="4.7"/>
				<g class="st8">
					<path class="st7" d="M399,422.6v8.6h-0.9v-0.8h-7.2v0.8H390v-8.6H399z M398.1,429.5v-6h-7.2v6H398.1z"/>
					<path class="st7" d="M401.7,425.8h10.9v0.9h-10.4c-0.1,0.1-0.2,0.2-0.4,0.2L401.7,425.8z"/>
					<path class="st7" d="M415.3,422.1c0.9,1.1,1.8,2.6,2.2,3.7l-0.9,0.5c-0.4-1-1.3-2.7-2.2-3.7L415.3,422.1z M424.4,422.3
						c0,0.1-0.1,0.2-0.3,0.2c-1.3,4.8-3.8,7.7-7.5,9.4c-0.1-0.2-0.4-0.5-0.7-0.7c3.6-1.6,6-4.3,7.2-9.2L424.4,422.3z"/>
					<path class="st7" d="M426.7,421.9c1.4,0.4,2.9,1.1,3.9,1.8l-0.5,0.8c-0.9-0.7-2.5-1.4-3.8-1.8L426.7,421.9z M426.7,430.9
						c4.6-1.4,7.7-4,9.2-7.6c0.3,0.2,0.6,0.4,0.8,0.5c-1.6,3.6-4.8,6.3-9.2,7.8c0,0.1-0.1,0.2-0.2,0.3L426.7,430.9z"/>
				</g>
				<g class="st8">
					<path class="st7" d="M396.2,437.3h-6.3v2.3c0,1.7-0.1,4.1-0.9,5.7c-0.1-0.1-0.3-0.3-0.5-0.4c0.7-1.5,0.8-3.7,0.8-5.3v-3h3V435
						l0.7,0.1c0,0.1-0.1,0.1-0.2,0.2v1.3h3.3V437.3z M394.4,440.8c0.8,1.3,1.6,3,1.9,4.1l-0.5,0.4c-0.1-0.3-0.2-0.6-0.4-1
						c-1.9,0.2-3.8,0.3-5.1,0.4c0,0.1-0.1,0.1-0.1,0.1l-0.3-0.9l1-0.1c0.5-1.6,1.1-4,1.4-5.8l0.7,0.3c0,0.1-0.1,0.1-0.2,0.1
						c-0.3,1.6-0.9,3.8-1.4,5.4l3.6-0.2c-0.4-0.8-0.8-1.7-1.2-2.4L394.4,440.8z"/>
					<path class="st7" d="M401.9,444.4h-4v0.5h-0.5v-2.3l0.7,0.1c0,0.1,0,0.1-0.2,0.1v1h1.5v-1.5l0.7,0.1c0,0.1-0.1,0.1-0.2,0.2v1.2
						h1.5v-1.2l0.7,0.1c0,0.1-0.1,0.1-0.2,0.1V444.4z M404.4,440.8h-5.8v0.8h5.1l0.1,0l0.3,0.1c0,0.1,0,0.1,0,0.2
						c-0.1,2-0.2,2.7-0.5,3c-0.2,0.2-0.3,0.3-0.8,0.3c-0.2,0-0.5,0-0.8,0c0-0.2-0.1-0.5-0.1-0.7c0.4,0.1,0.9,0.1,1,0.1
						c0.2,0,0.2,0,0.3-0.1c0.1-0.2,0.2-0.8,0.3-2.3H398v-6.3h1.9c0.1-0.3,0.2-0.7,0.3-0.9l0.7,0.2c0,0.1-0.1,0.1-0.2,0.1
						c-0.1,0.2-0.2,0.4-0.3,0.6h2.6v3.5h-4.6v0.8h5.8V440.8z M402.6,436.5h-4v0.9h4V436.5z M398.6,438.8h4v-0.9h-4V438.8z"/>
					<path class="st7" d="M412.6,440.9v0.7h-3.4v2.7c0,1-0.5,1-1.9,1c0-0.2-0.1-0.5-0.2-0.7c0.3,0,0.6,0,0.8,0c0.7,0,0.7,0,0.7-0.3
						v-2.7h-3.4v-0.7h3.4V439h-2.1v-0.7h4.8v0.7h-2.1v1.8H412.6z M406,437v1.8h-0.5v-2.5h3.1V435l0.7,0.1c0,0.1,0,0.1-0.2,0.2v1.1
						h3.2v2.5h-0.6V437H406z"/>
					<path class="st7" d="M413.7,445.2v-4.8h3v4.7h-0.6v-0.5h-1.9v0.5H413.7z M416.2,441.1h-1.9v2.8h1.9V441.1z M419.3,435.4v3.9
						h-4.3v-3.9H419.3z M418.8,438.5v-2.5h-3.2v2.5H418.8z M417.6,440.4h3.1v4.7h-0.6v-0.5h-2v0.5h-0.5V440.4z M418.1,443.9h2v-2.8
						h-2V443.9z"/>
					<path class="st7" d="M428.4,441.8h-2.2c0.8,1.1,2,2.1,3.1,2.6c-0.1,0.2-0.3,0.4-0.4,0.6c-1.1-0.6-2.4-1.7-3.2-3v3.1h-0.6v-3.1
						c-0.8,1.2-2,2.3-3.1,2.9c-0.1-0.2-0.3-0.5-0.4-0.6c1.1-0.5,2.3-1.5,3-2.6h-2.1v-4.1h2.6v-1h-3.3v-0.7h3.3V435l0.7,0.1
						c0,0.1,0,0.1-0.2,0.2v0.9h3.4v0.7h-3.4v1h2.7V441.8z M423.1,438.4v1.1h2v-1.1H423.1z M423.1,440.1v1.2h2v-1.2H423.1z
						 M427.9,438.4h-2.2v1.1h2.2V438.4z M427.9,441.2v-1.2h-2.2v1.2H427.9z"/>
					<path class="st7" d="M429.9,439.6h7.6v0.8h-7.6V439.6z"/>
					<path class="st7" d="M445.6,436v0.8h-3.4v7.3c0,0.6-0.1,0.8-0.4,0.9c-0.3,0.1-0.9,0.1-1.8,0.1c0-0.2-0.2-0.6-0.2-0.8
						c0.4,0,0.8,0,1.1,0c0.7,0,0.7,0,0.7-0.3v-7.3h-3.4V436H445.6z"/>
					<path class="st7" d="M447.2,435.7h5.6v9.5h-0.6v-0.8h-4.5v0.8h-0.6V435.7z M452.2,436.5h-4.5v1.9h4.5V436.5z M452.2,439.1h-4.5
						v1.9h4.5V439.1z M447.8,443.7h4.5v-1.9h-4.5V443.7z"/>
					<path class="st7" d="M458.6,436.5h3.3v0.7h-6.4v2.2c0,1.7-0.1,4.2-0.8,5.9c-0.1-0.1-0.3-0.3-0.5-0.4c0.7-1.6,0.7-3.8,0.7-5.4
						v-2.9h3.1V435l0.7,0.1c0,0.1,0,0.1-0.2,0.2V436.5z M459.1,437.5c0,0.1,0,0.1-0.2,0.2v1.2h2.9v0.7h-2.9v1.7h2.3v4h-0.6v-0.4
						h-3.8v0.5h-0.5v-4.1h2v-3.7L459.1,437.5z M460.6,444.1v-2.3h-3.8v2.3H460.6z"/>
				</g>
				<circle class="st7" cx="376.9" cy="68.4" r="4.7"/>
				<g class="st8">
					<path class="st7" d="M346,31.9h-2.9v1c0,2.7-0.8,5.4-4.5,7c-0.2-0.2-0.5-0.5-0.7-0.7c3.6-1.5,4.2-4,4.2-6.3v-1h-4.5v3.5h-1
						v-3.5h-2.7v-1h2.7v-3l1.3,0.1c0,0.1-0.1,0.3-0.4,0.3v2.7h4.5v-3.2l1.3,0.1c0,0.1-0.1,0.2-0.4,0.3v2.9h2.9V31.9z"/>
					<path class="st7" d="M358.8,28.6c-0.1,0.1-0.1,0.1-0.3,0.1c0,0-0.1,0-0.1,0c-1.1,1.1-2.6,2.4-4,3.3c0.1,0,0.3,0.1,0.3,0.2
						c0,0.1-0.2,0.2-0.3,0.2v7.5h-1v-7.2c-1.5,1.1-3.4,2.2-5.3,3.1c-0.1-0.2-0.4-0.6-0.6-0.8c3.8-1.8,8-4.8,10.3-7.2L358.8,28.6z"/>
					<path class="st7" d="M372.3,30.9c0,0.1-0.1,0.1-0.2,0.2c-0.6,1.5-1.7,3.4-2.9,4.6c-0.2-0.2-0.6-0.4-0.8-0.5
						c1.1-1,1.9-2.4,2.4-3.5l-5.4,1.4v3.6c0,1.4,0.8,1.8,2,1.8h2.3c0.6,0,1.5-0.1,2.1-0.1c0,0.3,0,0.7,0,1c-0.6,0.1-1.5,0.1-2.1,0.1
						h-2.3c-1.8,0-2.9-0.8-2.9-2.7v-3.4l-3.5,0.9l-0.2-0.9l3.8-0.9V28l1.3,0.1c0,0.2-0.2,0.2-0.3,0.3v3.7l5.9-1.5l0.2-0.1
						L372.3,30.9z M369.3,27.6c0.6,0.5,1.3,1.4,1.8,2.1l-0.5,0.4c-0.4-0.6-1.1-1.5-1.8-2L369.3,27.6z M371.3,26.9
						c0.7,0.6,1.4,1.4,1.8,2l-0.5,0.4c-0.4-0.6-1.1-1.5-1.8-2L371.3,26.9z"/>
					<path class="st7" d="M375.5,35.4v-6.8l1.3,0.1c0,0.1-0.1,0.2-0.3,0.3v6.5H375.5z M383.3,28.1c0,0.1-0.1,0.2-0.3,0.2v4.5
						c0,2.9-1,5.6-5,7.2c-0.1-0.2-0.5-0.6-0.7-0.8c3.9-1.4,4.7-3.8,4.7-6.4V28L383.3,28.1z"/>
					<path class="st7" d="M397.9,30.5c0,0.1-0.1,0.1-0.2,0.1c-0.6,1.8-1.8,3.7-3.1,4.9c-0.2-0.2-0.6-0.4-0.8-0.6
						c1.1-1,2.1-2.5,2.6-3.9l-5.2,1l1.4,7.5l-1,0.2l-1.4-7.5l-4,0.8l-0.2-0.9l4.1-0.8l-0.7-3.6l1.4-0.1c0,0.2-0.1,0.3-0.3,0.3
						l0.6,3.2l6-1.1l0.1-0.1L397.9,30.5z"/>
				</g>
				<g class="st8">
					<path class="st7" d="M346.3,48.8h-10.7v2.9c0,2.1-0.2,5.2-1.5,7.2c-0.2-0.2-0.6-0.4-0.8-0.5c1.3-2,1.4-4.7,1.4-6.7v-3.8h5.2v-2
						l1.2,0.1c0,0.1-0.1,0.2-0.3,0.2v1.7h5.5V48.8z M343.3,53.3c1.3,1.6,2.7,3.8,3.3,5.2l-0.9,0.5c-0.1-0.4-0.4-0.8-0.6-1.3
						c-3.2,0.2-6.5,0.4-8.6,0.5c0,0.1-0.1,0.2-0.2,0.2l-0.4-1.1l1.7-0.1c0.8-2,1.8-5.1,2.4-7.4l1.3,0.3c0,0.1-0.2,0.2-0.3,0.2
						c-0.5,2-1.5,4.9-2.3,6.8l6.1-0.3c-0.6-1.1-1.4-2.2-2.1-3.1L343.3,53.3z"/>
					<path class="st7" d="M356,57.8h-6.8v0.7h-0.9v-3l1.1,0.1c0,0.1-0.1,0.2-0.3,0.2v1.2h2.5v-1.8l1.2,0.1c0,0.1-0.1,0.2-0.3,0.2
						v1.6h2.5v-1.6l1.2,0.1c0,0.1-0.1,0.2-0.3,0.2V57.8z M360.3,53.3h-9.9v1.1h8.7l0.2,0l0.5,0.1c0,0.1,0,0.2-0.1,0.3
						c-0.2,2.5-0.4,3.5-0.8,3.9c-0.3,0.3-0.6,0.4-1.4,0.4c-0.4,0-0.8,0-1.3,0c0-0.3-0.1-0.6-0.2-0.8c0.7,0.1,1.4,0.1,1.7,0.1
						c0.3,0,0.4,0,0.5-0.1c0.2-0.2,0.4-1,0.6-2.9h-9.3V47h3.3c0.2-0.4,0.4-0.9,0.5-1.2l1.2,0.3c0,0.1-0.1,0.1-0.3,0.1
						c-0.1,0.2-0.3,0.5-0.4,0.8h4.4v4.4h-7.8v1h9.9V53.3z M357.2,47.8h-6.8v1.1h6.8V47.8z M350.4,50.7h6.8v-1.2h-6.8V50.7z"/>
					<path class="st7" d="M374.2,53.4v0.9h-5.8v3.4c0,1.2-0.8,1.2-3.2,1.2c-0.1-0.3-0.2-0.7-0.4-0.9c0.5,0,1,0,1.4,0
						c1.1,0,1.2,0,1.2-0.3v-3.4h-5.7v-0.9h5.7V51h-3.6v-0.9h8.2V51h-3.6v2.4H374.2z M363,48.5v2.3h-0.9v-3.2h5.3v-1.7l1.3,0.1
						c0,0.1-0.1,0.2-0.3,0.2v1.5h5.4v3.2h-1v-2.3H363z"/>
					<path class="st7" d="M376.1,58.9v-6.1h5.1v6h-0.9v-0.6H377v0.7H376.1z M380.2,53.7H377v3.6h3.2V53.7z M385.6,46.4v4.9h-7.3
						v-4.9H385.6z M384.6,50.4v-3.1h-5.4v3.1H384.6z M382.7,52.8h5.3v6H387v-0.6h-3.4v0.7h-0.9V52.8z M383.6,57.3h3.4v-3.6h-3.4
						V57.3z"/>
					<path class="st7" d="M396.8,47.8h5.5v0.9h-10.8v2.8c0,2.2-0.2,5.3-1.4,7.5c-0.2-0.2-0.6-0.4-0.8-0.5c1.1-2,1.3-4.9,1.3-6.9
						v-3.7h5.3v-1.9l1.2,0.1c0,0.1-0.1,0.2-0.3,0.2V47.8z M397.6,49.1c0,0.1-0.1,0.2-0.3,0.2v1.5h4.9v0.9h-4.9v2.1h3.9v5.1h-1v-0.5
						h-6.4v0.6h-0.9v-5.2h3.4V49L397.6,49.1z M400.2,57.5v-2.9h-6.4v2.9H400.2z"/>
				</g>
				<path class="st9" d="M206.2,22.9H293c7.3,0,13.3,5.9,13.3,13.3v27.6c0,7.3-5.9,13.3-13.3,13.3h-86.8c-7.3,0-13.3-5.9-13.3-13.3
					V36.2C192.9,28.9,198.9,22.9,206.2,22.9z"/>
				<circle class="st7" cx="207.9" cy="43" r="4.7"/>
				<g class="st8">
					<path class="st7" d="M185.4,47v0.8h-5.9V50h-1v-2.2h-5.8V47h5.8v-0.6l1,0.1c-0.2-0.2-0.4-0.4-0.6-0.5c1-0.4,1.9-1.2,2.3-2.3
						h-4.5l0.8,0.2c0,0.1-0.1,0.1-0.3,0.1c-0.1,0.2-0.2,0.4-0.4,0.6c0.6,0.3,1.3,0.7,1.7,1.1l-0.6,0.6c-0.4-0.3-1-0.7-1.6-1
						c-0.6,0.7-1.4,1.2-2.2,1.6c-0.1-0.2-0.4-0.4-0.6-0.5c1.2-0.5,2.3-1.4,2.9-2.6h-3v-0.8h5v-1l1.1,0.1l-0.4-0.7
						c1-0.3,2.4-0.7,3.8-1.2l0.1,0.7c-1.2,0.4-2.4,0.9-3.2,1.1c0,0.1-0.1,0.2-0.1,0.2l0,0c0,0-0.1,0.1-0.2,0.1v0.7h5.1v0.8h-3.1
						l0.8,0.2c0,0.1-0.1,0.1-0.3,0.1c-0.1,0.3-0.3,0.5-0.4,0.8c0.9,0.4,2,1.1,2.6,1.5l-0.7,0.6c-0.5-0.4-1.5-1-2.4-1.5
						c-0.4,0.4-0.9,0.8-1.5,1.1h0.1c0,0.1-0.1,0.2-0.3,0.2V47H185.4z M173.2,41.3c1-0.2,2.4-0.6,3.7-1.1l0.1,0.7
						c-1.2,0.4-2.4,0.8-3.2,1c0,0.1,0,0.2-0.1,0.2L173.2,41.3z M178.6,41.3c0,0.9-0.4,0.9-2.1,0.9c-0.1-0.2-0.2-0.5-0.3-0.7
						c0.3,0,0.6,0,0.9,0c0.6,0,0.7,0,0.7-0.2v-2.8h-4.3v-0.8h5.2V41.3z M174.4,38.6c0.6,0.3,1.3,0.8,1.7,1.1l-0.5,0.6
						c-0.4-0.4-1.1-0.9-1.6-1.2L174.4,38.6z M184.6,41.3c0,0.9-0.4,0.9-2.1,0.9c-0.1-0.2-0.2-0.5-0.3-0.7c0.4,0,0.7,0,0.9,0
						c0.5,0,0.6,0,0.6-0.2v-2.8h-4.4v-0.8h5.3V41.3z M180.4,38.6c0.6,0.3,1.4,0.8,1.7,1.1l-0.5,0.6c-0.4-0.3-1.1-0.9-1.7-1.2
						L180.4,38.6z"/>
					<path class="st7" d="M193.2,37.7v9.6h-5.3v1.1h-0.8V37.7H193.2z M189.7,38.6h-1.8V42h1.8V38.6z M187.9,42.9v3.6h1.8v-3.6H187.9
						z M192.3,42v-3.4h-1.8V42H192.3z M190.5,46.5h1.8v-3.6h-1.8V46.5z M199.7,38.7v0.9h-2.1v9.1c0,1.3-0.6,1.3-3.3,1.3
						c-0.1-0.3-0.2-0.7-0.4-1c0.5,0,1.1,0,1.5,0c1.3,0,1.3,0,1.3-0.4v-9.1h-3.3v-0.9H199.7z"/>
				</g>
				<g class="st8">
					<path class="st7" d="M147.9,59.3c-0.1-0.4-0.4-1.1-0.6-1.7h-0.6c-0.4,0.7-0.9,1.3-1.3,1.8c-0.2-0.2-0.5-0.4-0.7-0.5
						c0.8-0.8,1.6-2.1,2.1-3.4l1.1,0.4c0,0.1-0.2,0.1-0.3,0.1c-0.1,0.3-0.3,0.6-0.4,0.9h3.9v0.8h-2.7c0.2,0.5,0.4,1,0.5,1.4
						L147.9,59.3z M156.3,64.1l0.2,0l0.5,0.1c0,0.1,0,0.2,0,0.3c-0.4,3.5-0.6,3.6-2.3,3.6c-0.3,0-0.7,0-1.1,0c0-0.3-0.1-0.6-0.3-0.9
						c0.7,0.1,1.4,0.1,1.6,0.1c0.3,0,0.4,0,0.5-0.1c0.2-0.2,0.4-0.8,0.5-2.2h-4.4v3.7h-0.9v-3.5c-1.4,1.4-3.5,2.6-5.4,3.2
						c-0.1-0.2-0.4-0.6-0.6-0.8c1.8-0.5,3.9-1.5,5.2-2.7h-3l-0.2,0.5l-0.9-0.1c0.3-0.9,0.6-2.3,0.9-3.4h4v-1.5h-4.8v-0.8h10.3v3.2
						h-4.6v1.4H156.3z M150.7,62.7h-3.3c-0.1,0.5-0.2,1-0.3,1.4h3.6V62.7z M153.3,55.9c0,0.1-0.1,0.1-0.3,0.1
						c-0.1,0.3-0.3,0.6-0.4,0.9h5v0.8h-3.3c0.4,0.5,0.7,1,0.9,1.4l-0.8,0.3c-0.2-0.5-0.6-1.2-1.1-1.7h-1.1c-0.4,0.7-1,1.3-1.5,1.7
						c-0.2-0.2-0.5-0.4-0.7-0.5c1-0.7,1.8-2,2.3-3.3L153.3,55.9z M151.6,60.3v1.5h3.6v-1.5H151.6z"/>
					<path class="st7" d="M158.7,61.4h13v1h-13V61.4z"/>
					<path class="st7" d="M177.8,56.4c0,0.1-0.2,0.1-0.3,0.1c-0.9,2.1-2.4,4.2-3.9,5.6c-0.2-0.2-0.6-0.5-0.8-0.6
						c1.5-1.2,2.9-3.4,3.8-5.5L177.8,56.4z M179.3,61.1c0,0.1-0.2,0.2-0.4,0.2c-0.7,1.7-1.7,3.9-2.6,5.6c2-0.1,4.3-0.1,6.6-0.2
						c-0.7-1-1.5-2-2.2-2.8l0.9-0.4c1.3,1.5,2.8,3.5,3.5,4.7l-0.9,0.5c-0.2-0.4-0.4-0.8-0.7-1.2c-3.5,0.2-7.3,0.4-9.6,0.5
						c0,0.1-0.1,0.2-0.2,0.2l-0.4-1.2l2-0.1c1-1.7,2.1-4.3,2.7-6.2L179.3,61.1z M181.5,56c1,1.9,2.8,4.2,4.1,5.4
						c-0.3,0.2-0.6,0.5-0.8,0.8c-1.3-1.3-3.1-3.8-4.2-5.8L181.5,56z"/>
					<path class="st7" d="M187.2,56.2H199v12.4h-0.9V68h-10v0.6h-0.9V56.2z M188.1,67.1h10v-10h-10V67.1z M193.6,63.5
						c0.3,0.4,0.7,0.7,1.2,1c0.6-0.4,1.3-0.9,1.8-1.3l0.8,0.5c0,0.1-0.1,0.1-0.3,0.1c-0.4,0.3-1.1,0.7-1.7,1.1
						c0.7,0.4,1.5,0.8,2.3,1c-0.2,0.1-0.4,0.4-0.5,0.6c-1.4-0.4-2.9-1.3-3.8-2.4v2.5h-0.9v-2.2c-1,0.7-2.2,1.2-3.3,1.7
						c-0.1-0.2-0.4-0.4-0.5-0.6c1.3-0.4,2.8-1.2,3.9-2H190v-2.4h6.2v2.4H193.6z M197.3,59.8v0.6h-8.5v-0.6h3.8v-0.9h-2.9v-0.6h2.9
						v-0.9l1.1,0.1c0,0.1-0.1,0.2-0.3,0.2v0.6h3v0.6h-3v0.9H197.3z M190.8,61.8V63h4.5v-1.2H190.8z"/>
				</g>
				<g class="st8">
					<path class="st7" d="M164.5,93.3h3.6v0.8h-5.9v1.1h4.4v4.8H157v-4.8h4.2v-1.1h-5.8v-0.8h3.6v-1.5h-2.6V91h2.6v-1.3l1.2,0.1
						c0,0.1-0.1,0.2-0.3,0.2v1h3.6v-1.3l1.2,0.1c0,0.1-0.1,0.2-0.3,0.2v1h2.7v0.8h-2.7V93.3z M160.6,101c0,0.1-0.1,0.1-0.3,0.1
						c-1,0.6-2.7,1.3-4.2,1.7c-0.1-0.2-0.4-0.5-0.6-0.7c1.4-0.4,3.2-1.1,4.2-1.6L160.6,101z M157.9,96v1.3h3.3V96H157.9z M157.9,98
						v1.4h3.3V98H157.9z M160,91.8v1.5h3.6v-1.5H160z M165.6,96h-3.5v1.3h3.5V96z M165.6,99.4V98h-3.5v1.4H165.6z M167.3,102.7
						c-1-0.5-2.6-1.1-4.2-1.7c0.4-0.3,0.5-0.5,0.6-0.6c1.6,0.5,3.3,1.2,4.4,1.7L167.3,102.7z"/>
					<path class="st7" d="M176.2,97.8v3.6h5.7v0.8h-12.2v-0.8h5.5v-3.6h-4.9V97h4.9v-2h-3v-0.8c-0.8,0.6-1.6,1.1-2.4,1.6
						c-0.1-0.2-0.4-0.5-0.6-0.7c2.5-1.3,4.9-3.5,6-5.4l1.4,0.1c0,0.1-0.1,0.2-0.3,0.2c1.4,1.9,3.9,3.9,6.1,5
						c-0.2,0.2-0.5,0.5-0.6,0.8c-2.2-1.2-4.7-3.2-6-5.1c-0.7,1.1-2,2.4-3.4,3.5h7V95h-3.1v2h5v0.8H176.2z M172.9,101.2
						c-0.2-0.7-0.7-1.8-1.3-2.6l0.8-0.3c0.6,0.8,1.2,1.9,1.4,2.6L172.9,101.2z M180.1,98.6c0,0.1-0.2,0.1-0.3,0.1
						c-0.4,0.7-1.1,1.8-1.6,2.4l-0.7-0.4c0.5-0.7,1.2-1.8,1.6-2.7L180.1,98.6z"/>
					<path class="st7" d="M194.4,93.1l1.2,0.1c0,0.1-0.1,0.2-0.3,0.2v9.1h-1v-1.1h-9.3v1.2h-1v-9.5l1.2,0.1c0,0.1-0.1,0.2-0.3,0.2v7
						h4.1V90l1.3,0.1c0,0.1-0.1,0.2-0.3,0.2v10.1h4.2V93.1z"/>
					<path class="st7" d="M200.3,95.3v4.6c1.1,1.7,3.1,1.7,5.7,1.7c1.5,0,3.3,0,4.4-0.1c-0.1,0.2-0.3,0.6-0.3,0.9
						c-1,0-2.5,0.1-3.9,0.1c-3.1,0-5,0-6.4-1.8c-0.7,0.6-1.5,1.3-2.1,1.7c0,0.1,0,0.2-0.1,0.2l-0.5-1c0.7-0.4,1.5-1.1,2.3-1.7v-3.8
						h-2.1v-0.9H200.3z M198.2,90c0.9,0.6,2,1.6,2.4,2.3l-0.7,0.6c-0.4-0.7-1.5-1.7-2.4-2.4L198.2,90z M206,93.3
						c-0.9-0.4-2-0.9-2.9-1.2l0.6-0.5c0.6,0.2,1.3,0.5,2,0.8c0.7-0.3,1.5-0.8,2.1-1.2h-6.1v-0.8h7.1l0.2,0l0.7,0.5
						c0,0.1-0.1,0.1-0.2,0.1c-0.7,0.6-1.8,1.3-2.9,1.8c0.4,0.2,0.8,0.4,1.1,0.6h1.8v6.4c0,0.9-0.3,1-2.4,1c0-0.3-0.2-0.6-0.3-0.8
						c0.4,0,0.8,0,1.1,0c0.6,0,0.7,0,0.7-0.3v-1.4h-2.6v2.4h-0.9v-2.4h-2.5v2.4h-0.9v-7.4H206z M205.2,94h-2.5v1.3h2.5V94z
						 M202.7,97.5h2.5v-1.4h-2.5V97.5z M208.7,95.4V94h-2.6v1.3H208.7z M206.1,97.5h2.6v-1.4h-2.6V97.5z"/>
					<path class="st7" d="M212.6,98c-0.3-0.8-0.4-1.8-0.4-2.6c0-1.3,0.1-2.8,0.5-4.6l1.4,0.2c-0.1,0.2-0.2,0.2-0.4,0.2
						c-0.3,1.2-0.5,2.9-0.5,4.1c0,0.3,0,0.6,0,0.8c0.3-0.7,0.8-1.6,1.1-2.2c0.1,0.2,0.4,0.5,0.5,0.6c-1,1.9-1.3,2.4-1.3,3
						c0,0.1,0,0.2,0,0.4L212.6,98z M220.2,90.4c0,0.2-0.1,0.2-0.4,0.3c0.1,1.2,0.2,3.2,0.2,4.9c0,2.7-1,5.1-5.2,6.9
						c-0.2-0.2-0.5-0.6-0.7-0.8c3.8-1.5,4.8-3.8,4.8-6.1c0-1.7-0.2-3.8-0.3-5.3L220.2,90.4z"/>
				</g>
				<rect x="2.7" y="139.9" class="st7" width="66.1" height="36.7"/>
				<g class="st8">
					<path class="st10" d="M17.5,150.5v1.4h-4.7v2c0,1.4-0.6,1.7-3.3,1.7c-0.1-0.4-0.4-1.1-0.6-1.5c0.8,0,1.7,0,2,0
						c0.2,0,0.3-0.1,0.3-0.3v-2H6.7v-1.4h4.6V149H8.7v-1.4h6.7v1.4h-2.5v1.5H17.5z M8.3,146.8v1.8H6.9v-3.1h4.4V144l1.9,0.1
						c0,0.1-0.1,0.2-0.4,0.2v1h4.5v3.1h-1.5v-1.8H8.3z"/>
					<path class="st10" d="M19.1,155.6v-5.4h4.7v5.3h-1.5v-0.4h-1.9v0.5H19.1z M22.4,151.6h-1.9v2.1h1.9V151.6z M27.7,144.4v4.8
						h-6.5v-4.8H27.7z M26.2,147.8v-1.9h-3.6v1.9H26.2z M24.9,150.2h4.9v5.3h-1.5v-0.4h-2v0.4h-1.4V150.2z M26.3,153.7h2v-2.1h-2
						V153.7z"/>
					<path class="st10" d="M31.2,152.8h11v1.6h-11V152.8z M32.2,145.7h9v1.6h-9V145.7z"/>
					<path class="st10" d="M54.5,145v1.5h-4.7v7.3c0,1.5-0.5,1.9-3.6,1.8c-0.1-0.4-0.4-1.2-0.6-1.6c0.6,0,1.2,0,1.7,0
						c0.9,0,1,0,1-0.3v-7.3h-4.8V145H54.5z"/>
					<path class="st10" d="M56.7,144.8h8.6v10.8h-1.6v-0.8h-5.6v0.8h-1.5V144.8z M63.8,146.3h-5.6v1.4h5.6V146.3z M63.8,149.1h-5.6
						v1.5h5.6V149.1z M58.2,153.4h5.6v-1.5h-5.6V153.4z"/>
				</g>
				<g class="st8">
					<path class="st10" d="M8,163.3v1.5H6.7v-2.5h4.7v-0.5H7.5v-1.1h9.1v1.1h-3.9v0.5h4.8v2.5h-1.4v-1.5h-3.4v2.6h-1.4v-2.6H8z
						 M12.7,170.2c0,0.5,0.1,0.6,0.9,0.6h2.3c0.6,0,0.7-0.2,0.8-1.2c0.3,0.2,0.8,0.4,1.2,0.5c-0.2,1.5-0.6,1.9-1.9,1.9h-2.6
						c-1.8,0-2.2-0.4-2.2-1.7H9.2v0.5H7.8v-4.5h8.6v4H12.7z M8.2,165.8V165h2.7v0.8H8.2z M8.4,163.8h2.4v0.8H8.4V163.8z M11.2,167.3
						H9.2v0.6h2.1V167.3z M9.2,169.2h2.1v-0.5H9.2V169.2z M14.9,167.8v-0.6h-2.2v0.6H14.9z M12.7,169.2h2.2v-0.5h-2.2V169.2z
						 M13.2,163.8h2.4v0.8h-2.4V163.8z M13.2,165.8V165h2.7v0.8H13.2z"/>
					<path class="st10" d="M20,165.7c-0.3,0.5-0.6,0.9-1,1.3c-0.1-0.4-0.5-1.1-0.7-1.5c1-1.2,2.1-3.2,2.7-5.1l1.6,0.6
						c0,0.1-0.2,0.2-0.3,0.1c-0.3,0.7-0.6,1.5-1,2.2l0.4,0.1c0,0.1-0.1,0.2-0.3,0.2v8.3H20V165.7z M21.9,166.3h8.3v2.4h-1.4v-1.3
						h-5.7v1.3h-1.3V166.3z M22.2,161.5h3.1v-1.1l1.8,0.1c0,0.1-0.1,0.2-0.3,0.2v0.7h3.3v1.3h-7.9V161.5z M29.3,165.8H23v-2.6h6.3
						V165.8z M23.6,169.1v-1.2h4.9v1.2h-1.7v1.4c0,1.3-0.7,1.5-3.1,1.5c-0.1-0.4-0.3-1-0.5-1.3c0.5,0,1,0,1.3,0c0.7,0,0.8,0,0.8-0.2
						v-1.4H23.6z M24.4,164.1v0.7h3.4v-0.7H24.4z"/>
				</g>
				<g class="st8">
					<path class="st11" d="M82,253.5H71.3v2.9c0,2.1-0.2,5.2-1.5,7.2c-0.2-0.2-0.6-0.4-0.8-0.5c1.3-2,1.4-4.7,1.4-6.7v-3.8h5.2v-2
						l1.2,0.1c0,0.1-0.1,0.2-0.3,0.2v1.7H82V253.5z M78.9,258c1.3,1.6,2.7,3.8,3.3,5.2l-0.9,0.5c-0.1-0.4-0.4-0.8-0.6-1.3
						c-3.2,0.2-6.5,0.4-8.6,0.5c0,0.1-0.1,0.2-0.2,0.2l-0.4-1.1l1.7-0.1c0.8-2,1.8-5.1,2.4-7.4l1.3,0.3c0,0.1-0.2,0.2-0.3,0.2
						c-0.5,2-1.5,4.9-2.3,6.8l6.1-0.3c-0.6-1.1-1.4-2.2-2.1-3.1L78.9,258z"/>
					<path class="st11" d="M77.6,276.5h-6.8v0.7h-0.9v-3l1.1,0.1c0,0.1-0.1,0.2-0.3,0.2v1.2h2.5v-1.8l1.2,0.1c0,0.1-0.1,0.2-0.3,0.2
						v1.6h2.5v-1.6l1.2,0.1c0,0.1-0.1,0.2-0.3,0.2V276.5z M81.9,271.9H72v1.1h8.7l0.2,0l0.5,0.1c0,0.1,0,0.2-0.1,0.3
						c-0.2,2.5-0.4,3.5-0.8,3.9c-0.3,0.3-0.6,0.4-1.4,0.4c-0.4,0-0.8,0-1.3,0c0-0.3-0.1-0.6-0.2-0.8c0.7,0.1,1.4,0.1,1.7,0.1
						c0.3,0,0.4,0,0.5-0.1c0.2-0.2,0.4-1,0.6-2.9h-9.3v-8.1h3.3c0.2-0.4,0.4-0.9,0.5-1.2l1.2,0.3c0,0.1-0.1,0.1-0.3,0.1
						c-0.1,0.2-0.3,0.5-0.4,0.8h4.4v4.4H72v1h9.9V271.9z M78.8,266.4H72v1.1h6.8V266.4z M72,269.4h6.8v-1.2H72V269.4z"/>
					<path class="st11" d="M75.1,284.9v-3.3h-4.6v2h-0.9v-2.7h5.5v-0.9h-4.7v-0.8h10.3v0.8H76v0.9h5.6v2.7h-0.9v-2H76v3.3H75.1z
						 M76,290.1c0,0.5,0.2,0.6,1.1,0.6h3.3c0.8,0,0.9-0.3,1-1.7c0.2,0.1,0.6,0.3,0.8,0.3c-0.1,1.7-0.4,2.2-1.8,2.2H77
						c-1.5,0-1.9-0.3-1.9-1.4v-0.5h-3.3v0.7h-0.9v-4.9h9.6v4.2H76V290.1z M71,284.5v-0.6h3.3v0.6H71z M71.3,282.4h3v0.6h-3V282.4z
						 M75.1,286.1h-3.3v1h3.3V286.1z M71.7,288.9h3.3v-1.1h-3.3V288.9z M79.5,287.2v-1H76v1H79.5z M76,288.9h3.5v-1.1H76V288.9z
						 M76.8,282.4h3.1v0.6h-3.1V282.4z M76.8,284.5v-0.6h3.5v0.6H76.8z"/>
					<path class="st11" d="M72.4,303.4c0.7-0.1,1.5-0.2,2.2-0.4l0.1,0.8c-1.9,0.4-3.9,0.7-5.1,0.9c0,0.1-0.1,0.2-0.2,0.2l-0.3-1.1
						l2.5-0.4v-4.1h-2.3v-0.8h2.3v-1.6H70v-0.3c-0.1,0.2-0.3,0.3-0.4,0.5c-0.1-0.2-0.4-0.5-0.7-0.6c1.2-1.2,2.1-2.8,2.7-3.9l1.1,0.2
						c0,0.1-0.1,0.2-0.3,0.2l0,0.1c0.9,0.7,1.9,1.7,2.4,2.3l-0.6,0.7c-0.5-0.6-1.4-1.5-2.2-2.3c-0.4,0.8-0.9,1.6-1.5,2.4H74v0.8
						h-1.6v1.6h2.1v0.8h-2.1V303.4z M70.2,302.9c0-0.7-0.3-1.8-0.6-2.7l0.7-0.2c0.3,0.8,0.6,1.9,0.7,2.6L70.2,302.9z M74.5,300.3
						c0,0.1-0.1,0.1-0.3,0.1c-0.2,0.7-0.5,1.7-0.7,2.4l-0.6-0.2c0.2-0.7,0.6-1.8,0.7-2.6L74.5,300.3z M82.1,299.9h-3
						c0.5,2.2,1.6,4.1,3.2,5c-0.2,0.2-0.5,0.5-0.6,0.8c-1.5-1-2.6-2.7-3.2-4.9c-0.5,1.8-1.6,3.6-4,4.9c-0.1-0.2-0.4-0.5-0.6-0.7
						c2.6-1.3,3.5-3.2,3.9-5h-3.1V299h3.2c0.1-0.7,0.1-1.3,0.1-1.9v-0.9h-1.6c-0.2,0.8-0.5,1.6-0.9,2.2c-0.2-0.1-0.5-0.3-0.7-0.4
						c0.7-1.1,1.1-2.9,1.4-4.8l1.1,0.3c0,0.1-0.1,0.2-0.3,0.2c-0.1,0.6-0.2,1.1-0.3,1.7h1.4v-2.7l1.2,0.1c0,0.1-0.1,0.2-0.3,0.2v2.4
						h2.7v0.9h-2.7v0.9c0,0.6,0,1.3-0.1,1.9h3.4V299.9z"/>
				</g>
				<g class="st8">
					<path class="st11" d="M81.9,317.3v0.9h-5.8v3.4c0,1.2-0.8,1.2-3.2,1.2c-0.1-0.3-0.2-0.7-0.4-0.9c0.5,0,1,0,1.4,0
						c1.1,0,1.2,0,1.2-0.3v-3.4h-5.7v-0.9h5.7V315h-3.6v-0.9h8.2v0.9h-3.6v2.4H81.9z M70.7,312.4v2.3h-0.9v-3.2h5.3v-1.7l1.3,0.1
						c0,0.1-0.1,0.2-0.3,0.2v1.5h5.4v3.2h-1v-2.3H70.7z"/>
					<path class="st11" d="M69.7,336.8v-6.1h5.1v6h-0.9v-0.6h-3.2v0.7H69.7z M73.9,331.6h-3.2v3.6h3.2V331.6z M79.2,324.3v4.9H72
						v-4.9H79.2z M78.3,328.4v-3.1h-5.4v3.1H78.3z M76.3,330.7h5.3v6h-0.9v-0.6h-3.4v0.7h-0.9V330.7z M77.2,335.2h3.4v-3.6h-3.4
						V335.2z"/>
					<path class="st11" d="M73,342.4c0.6,0.9,1.3,2.1,1.6,2.9l-0.8,0.4c-0.1-0.3-0.2-0.5-0.3-0.8c-0.4,0-0.8,0-1.2,0.1v6h-0.8v-6
						c-0.8,0-1.5,0.1-2,0.1c0,0.1-0.1,0.2-0.2,0.2l-0.3-1.1h1c0.3-0.4,0.6-0.8,1-1.3c-0.4-0.6-1.2-1.5-1.8-2.1l0.5-0.6
						c0.1,0.1,0.3,0.3,0.4,0.4c0.5-0.8,1-1.9,1.3-2.7l1,0.4c0,0.1-0.1,0.1-0.3,0.1c-0.4,0.8-1,1.9-1.5,2.7c0.3,0.3,0.6,0.7,0.8,1
						c0.6-0.9,1.2-1.9,1.6-2.7l1,0.5c0,0.1-0.2,0.1-0.3,0.1c-0.7,1.2-1.8,2.9-2.8,4.1l2.4,0c-0.3-0.5-0.5-1-0.8-1.4L73,342.4z
						 M70.9,346.2c0,0.1-0.1,0.1-0.3,0.1c-0.2,1.2-0.5,2.5-0.9,3.4c-0.2-0.1-0.5-0.3-0.7-0.4c0.4-0.8,0.7-2.1,0.9-3.4L70.9,346.2z
						 M73.5,345.9c0.4,0.8,0.8,1.9,0.9,2.6c-0.2,0.1-0.3,0.1-0.8,0.3c-0.1-0.7-0.5-1.8-0.9-2.6L73.5,345.9z M76.8,345.5l0.5,0.2
						c0,0.1-0.1,0.1-0.1,0.1c-0.5,2.2-1.6,3.7-3,4.5c-0.1-0.2-0.4-0.5-0.6-0.7c1.2-0.6,2.2-1.7,2.6-3.3h-2v-0.8h2.4L76.8,345.5z
						 M78.5,344.3c0,0.6,0.5,1.8,0.8,2.4c0.7-0.5,1.4-1.2,1.9-1.8c0.7,0.5,0.8,0.6,0.9,0.7c0,0.1-0.2,0.1-0.3,0.1
						c-0.5,0.5-1.4,1.2-2.1,1.7c0.6,0.9,1.4,1.7,2.6,2.2c-0.2,0.2-0.4,0.5-0.6,0.8c-1.6-0.9-2.6-2.3-3.2-3.7v3.1c0,1-0.4,1-2.2,1
						c0-0.3-0.2-0.6-0.3-0.8c0.7,0,1.2,0,1.4,0c0.2,0,0.2-0.1,0.2-0.2v-5.5h-2.8v-5h2.2c0.2-0.5,0.5-1.1,0.6-1.5l1.2,0.3
						c0,0.1-0.1,0.1-0.3,0.1c-0.1,0.3-0.3,0.7-0.5,1.1h3.5v5H78.5z M75.7,340.1v1.3h4.9v-1.3H75.7z M75.7,342.1v1.3h4.9v-1.3H75.7z"
						/>
				</g>
				<g class="st8">
					<path class="st7" d="M82,253.5H71.3v2.9c0,2.1-0.2,5.2-1.5,7.2c-0.2-0.2-0.6-0.4-0.8-0.5c1.3-2,1.4-4.7,1.4-6.7v-3.8h5.2v-2
						l1.2,0.1c0,0.1-0.1,0.2-0.3,0.2v1.7H82V253.5z M78.9,258c1.3,1.6,2.7,3.8,3.3,5.2l-0.9,0.5c-0.1-0.4-0.4-0.8-0.6-1.3
						c-3.2,0.2-6.5,0.4-8.6,0.5c0,0.1-0.1,0.2-0.2,0.2l-0.4-1.1l1.7-0.1c0.8-2,1.8-5.1,2.4-7.4l1.3,0.3c0,0.1-0.2,0.2-0.3,0.2
						c-0.5,2-1.5,4.9-2.3,6.8l6.1-0.3c-0.6-1.1-1.4-2.2-2.1-3.1L78.9,258z"/>
					<path class="st7" d="M77.6,276.5h-6.8v0.7h-0.9v-3l1.1,0.1c0,0.1-0.1,0.2-0.3,0.2v1.2h2.5v-1.8l1.2,0.1c0,0.1-0.1,0.2-0.3,0.2
						v1.6h2.5v-1.6l1.2,0.1c0,0.1-0.1,0.2-0.3,0.2V276.5z M81.9,271.9H72v1.1h8.7l0.2,0l0.5,0.1c0,0.1,0,0.2-0.1,0.3
						c-0.2,2.5-0.4,3.5-0.8,3.9c-0.3,0.3-0.6,0.4-1.4,0.4c-0.4,0-0.8,0-1.3,0c0-0.3-0.1-0.6-0.2-0.8c0.7,0.1,1.4,0.1,1.7,0.1
						c0.3,0,0.4,0,0.5-0.1c0.2-0.2,0.4-1,0.6-2.9h-9.3v-8.1h3.3c0.2-0.4,0.4-0.9,0.5-1.2l1.2,0.3c0,0.1-0.1,0.1-0.3,0.1
						c-0.1,0.2-0.3,0.5-0.4,0.8h4.4v4.4H72v1h9.9V271.9z M78.8,266.4H72v1.1h6.8V266.4z M72,269.4h6.8v-1.2H72V269.4z"/>
					<path class="st7" d="M75.1,284.9v-3.3h-4.6v2h-0.9v-2.7h5.5v-0.9h-4.7v-0.8h10.3v0.8H76v0.9h5.6v2.7h-0.9v-2H76v3.3H75.1z
						 M76,290.1c0,0.5,0.2,0.6,1.1,0.6h3.3c0.8,0,0.9-0.3,1-1.7c0.2,0.1,0.6,0.3,0.8,0.3c-0.1,1.7-0.4,2.2-1.8,2.2H77
						c-1.5,0-1.9-0.3-1.9-1.4v-0.5h-3.3v0.7h-0.9v-4.9h9.6v4.2H76V290.1z M71,284.5v-0.6h3.3v0.6H71z M71.3,282.4h3v0.6h-3V282.4z
						 M75.1,286.1h-3.3v1h3.3V286.1z M71.7,288.9h3.3v-1.1h-3.3V288.9z M79.5,287.2v-1H76v1H79.5z M76,288.9h3.5v-1.1H76V288.9z
						 M76.8,282.4h3.1v0.6h-3.1V282.4z M76.8,284.5v-0.6h3.5v0.6H76.8z"/>
					<path class="st7" d="M72.4,303.4c0.7-0.1,1.5-0.2,2.2-0.4l0.1,0.8c-1.9,0.4-3.9,0.7-5.1,0.9c0,0.1-0.1,0.2-0.2,0.2l-0.3-1.1
						l2.5-0.4v-4.1h-2.3v-0.8h2.3v-1.6H70v-0.3c-0.1,0.2-0.3,0.3-0.4,0.5c-0.1-0.2-0.4-0.5-0.7-0.6c1.2-1.2,2.1-2.8,2.7-3.9l1.1,0.2
						c0,0.1-0.1,0.2-0.3,0.2l0,0.1c0.9,0.7,1.9,1.7,2.4,2.3l-0.6,0.7c-0.5-0.6-1.4-1.5-2.2-2.3c-0.4,0.8-0.9,1.6-1.5,2.4H74v0.8
						h-1.6v1.6h2.1v0.8h-2.1V303.4z M70.2,302.9c0-0.7-0.3-1.8-0.6-2.7l0.7-0.2c0.3,0.8,0.6,1.9,0.7,2.6L70.2,302.9z M74.5,300.3
						c0,0.1-0.1,0.1-0.3,0.1c-0.2,0.7-0.5,1.7-0.7,2.4l-0.6-0.2c0.2-0.7,0.6-1.8,0.7-2.6L74.5,300.3z M82.1,299.9h-3
						c0.5,2.2,1.6,4.1,3.2,5c-0.2,0.2-0.5,0.5-0.6,0.8c-1.5-1-2.6-2.7-3.2-4.9c-0.5,1.8-1.6,3.6-4,4.9c-0.1-0.2-0.4-0.5-0.6-0.7
						c2.6-1.3,3.5-3.2,3.9-5h-3.1V299h3.2c0.1-0.7,0.1-1.3,0.1-1.9v-0.9h-1.6c-0.2,0.8-0.5,1.6-0.9,2.2c-0.2-0.1-0.5-0.3-0.7-0.4
						c0.7-1.1,1.1-2.9,1.4-4.8l1.1,0.3c0,0.1-0.1,0.2-0.3,0.2c-0.1,0.6-0.2,1.1-0.3,1.7h1.4v-2.7l1.2,0.1c0,0.1-0.1,0.2-0.3,0.2v2.4
						h2.7v0.9h-2.7v0.9c0,0.6,0,1.3-0.1,1.9h3.4V299.9z"/>
				</g>
				<g class="st8">
					<path class="st7" d="M81.9,317.3v0.9h-5.8v3.4c0,1.2-0.8,1.2-3.2,1.2c-0.1-0.3-0.2-0.7-0.4-0.9c0.5,0,1,0,1.4,0
						c1.1,0,1.2,0,1.2-0.3v-3.4h-5.7v-0.9h5.7V315h-3.6v-0.9h8.2v0.9h-3.6v2.4H81.9z M70.7,312.4v2.3h-0.9v-3.2h5.3v-1.7l1.3,0.1
						c0,0.1-0.1,0.2-0.3,0.2v1.5h5.4v3.2h-1v-2.3H70.7z"/>
					<path class="st7" d="M69.7,336.8v-6.1h5.1v6h-0.9v-0.6h-3.2v0.7H69.7z M73.9,331.6h-3.2v3.6h3.2V331.6z M79.2,324.3v4.9H72
						v-4.9H79.2z M78.3,328.4v-3.1h-5.4v3.1H78.3z M76.3,330.7h5.3v6h-0.9v-0.6h-3.4v0.7h-0.9V330.7z M77.2,335.2h3.4v-3.6h-3.4
						V335.2z"/>
					<path class="st7" d="M73,342.4c0.6,0.9,1.3,2.1,1.6,2.9l-0.8,0.4c-0.1-0.3-0.2-0.5-0.3-0.8c-0.4,0-0.8,0-1.2,0.1v6h-0.8v-6
						c-0.8,0-1.5,0.1-2,0.1c0,0.1-0.1,0.2-0.2,0.2l-0.3-1.1h1c0.3-0.4,0.6-0.8,1-1.3c-0.4-0.6-1.2-1.5-1.8-2.1l0.5-0.6
						c0.1,0.1,0.3,0.3,0.4,0.4c0.5-0.8,1-1.9,1.3-2.7l1,0.4c0,0.1-0.1,0.1-0.3,0.1c-0.4,0.8-1,1.9-1.5,2.7c0.3,0.3,0.6,0.7,0.8,1
						c0.6-0.9,1.2-1.9,1.6-2.7l1,0.5c0,0.1-0.2,0.1-0.3,0.1c-0.7,1.2-1.8,2.9-2.8,4.1l2.4,0c-0.3-0.5-0.5-1-0.8-1.4L73,342.4z
						 M70.9,346.2c0,0.1-0.1,0.1-0.3,0.1c-0.2,1.2-0.5,2.5-0.9,3.4c-0.2-0.1-0.5-0.3-0.7-0.4c0.4-0.8,0.7-2.1,0.9-3.4L70.9,346.2z
						 M73.5,345.9c0.4,0.8,0.8,1.9,0.9,2.6c-0.2,0.1-0.3,0.1-0.8,0.3c-0.1-0.7-0.5-1.8-0.9-2.6L73.5,345.9z M76.8,345.5l0.5,0.2
						c0,0.1-0.1,0.1-0.1,0.1c-0.5,2.2-1.6,3.7-3,4.5c-0.1-0.2-0.4-0.5-0.6-0.7c1.2-0.6,2.2-1.7,2.6-3.3h-2v-0.8h2.4L76.8,345.5z
						 M78.5,344.3c0,0.6,0.5,1.8,0.8,2.4c0.7-0.5,1.4-1.2,1.9-1.8c0.7,0.5,0.8,0.6,0.9,0.7c0,0.1-0.2,0.1-0.3,0.1
						c-0.5,0.5-1.4,1.2-2.1,1.7c0.6,0.9,1.4,1.7,2.6,2.2c-0.2,0.2-0.4,0.5-0.6,0.8c-1.6-0.9-2.6-2.3-3.2-3.7v3.1c0,1-0.4,1-2.2,1
						c0-0.3-0.2-0.6-0.3-0.8c0.7,0,1.2,0,1.4,0c0.2,0,0.2-0.1,0.2-0.2v-5.5h-2.8v-5h2.2c0.2-0.5,0.5-1.1,0.6-1.5l1.2,0.3
						c0,0.1-0.1,0.1-0.3,0.1c-0.1,0.3-0.3,0.7-0.5,1.1h3.5v5H78.5z M75.7,340.1v1.3h4.9v-1.3H75.7z M75.7,342.1v1.3h4.9v-1.3H75.7z"
						/>
				</g>
				<g class="st8">
					<path class="st7" d="M60.6,387h5.9v0.9H53.8V387h5.8v-2.9h-4.5v-0.9h4.5v-2.1l1.2,0.1c0,0.1-0.1,0.2-0.3,0.2v1.8h4.7v0.9h-4.7
						V387z M65.5,381.9c-0.3-0.3-0.6-0.7-1-1.1c-3.5,0.1-7.2,0.3-9.5,0.3c0,0.1-0.1,0.2-0.2,0.2l-0.3-1.1c0.6,0,1.4,0,2.2,0
						c0.5-0.8,1.1-1.9,1.5-2.9h-4v-0.9h12.1v0.9h-6.7c-0.1,0.1-0.2,0.1-0.3,0.1c-0.4,0.8-1,1.9-1.6,2.7c1.8,0,3.9-0.1,5.9-0.1
						c-0.7-0.6-1.4-1.2-2.1-1.7l0.8-0.5c1.4,1,3.2,2.5,4,3.5L65.5,381.9z"/>
				</g>
				<g class="st8">
					<path class="st7" d="M66.6,395.6H55.8v2.9c0,2.1-0.2,5.2-1.5,7.2c-0.2-0.2-0.6-0.4-0.8-0.5c1.3-2,1.4-4.7,1.4-6.7v-3.8h5.2v-2
						l1.2,0.1c0,0.1-0.1,0.2-0.3,0.2v1.7h5.5V395.6z M63.5,400.2c1.3,1.6,2.7,3.8,3.3,5.2l-0.9,0.5c-0.1-0.4-0.4-0.8-0.6-1.3
						c-3.2,0.2-6.5,0.4-8.6,0.5c0,0.1-0.1,0.2-0.2,0.2L56,404l1.7-0.1c0.8-2,1.8-5.1,2.4-7.4l1.3,0.3c0,0.1-0.2,0.2-0.3,0.2
						c-0.5,2-1.5,4.9-2.3,6.8l6.1-0.3c-0.6-1.1-1.4-2.2-2.1-3.1L63.5,400.2z"/>
					<path class="st7" d="M62.2,418.7h-6.8v0.7h-0.9v-3l1.1,0.1c0,0.1-0.1,0.2-0.3,0.2v1.2h2.5v-1.8l1.2,0.1c0,0.1-0.1,0.2-0.3,0.2
						v1.6h2.5v-1.6l1.2,0.1c0,0.1-0.1,0.2-0.3,0.2V418.7z M66.5,414.1h-9.9v1.1h8.7l0.2,0l0.5,0.1c0,0.1,0,0.2-0.1,0.3
						c-0.2,2.5-0.4,3.5-0.8,3.9c-0.3,0.3-0.6,0.4-1.4,0.4c-0.4,0-0.8,0-1.3,0c0-0.3-0.1-0.6-0.2-0.8c0.7,0.1,1.4,0.1,1.7,0.1
						c0.3,0,0.4,0,0.5-0.1c0.2-0.2,0.4-1,0.6-2.9h-9.3v-8.1h3.3c0.2-0.4,0.4-0.9,0.5-1.2l1.2,0.3c0,0.1-0.1,0.1-0.3,0.1
						c-0.1,0.2-0.3,0.5-0.4,0.8h4.4v4.4h-7.8v1h9.9V414.1z M63.4,408.6h-6.8v1.1h6.8V408.6z M56.6,411.6h6.8v-1.2h-6.8V411.6z"/>
					<path class="st7" d="M54.1,424.7c0.9,0.4,1.9,1,2.5,1.4l-0.5,0.8c-0.5-0.5-1.6-1.1-2.5-1.5L54.1,424.7z M66.8,426.1h-2.6
						c0.6,1.2,1.7,2.3,2.8,2.9c-0.2,0.2-0.5,0.5-0.7,0.7c-0.8-0.5-1.5-1.2-2.1-2.1v3.1h-4.5v1.6c0,0.4,0.2,0.5,1.1,0.5H64
						c0.7,0,0.8-0.2,0.9-1.5c0.2,0.2,0.6,0.3,0.9,0.4c-0.1,1.6-0.4,2-1.7,2h-3.3c-1.5,0-2-0.2-2-1.3V430h4.5v-1.6h-3.9v-0.6
						c-0.6,0.9-1.4,1.6-2.1,2.1c-0.1-0.2-0.3-0.3-0.4-0.5c-0.6,1.4-1.4,2.9-1.9,3.9c0.1,0.1,0.1,0.1,0.1,0.2c0,0.1,0,0.1,0,0.2
						l-1-0.6c0.7-1.1,1.6-3,2.3-4.6l0.7,0.6c0.9-0.7,1.8-1.8,2.4-2.8h-2.6v-0.9h2.6v-1.8h-1.9v-0.9h1.9v-1.8l1.2,0.1
						c0,0.1-0.1,0.2-0.3,0.2v1.5h2.9v-1.8l1.2,0.1c0,0.1-0.1,0.2-0.3,0.2v1.5h2.2v0.9h-2.2v1.8h2.6V426.1z M54.8,420.9
						c0.9,0.4,1.9,1.1,2.4,1.6l-0.6,0.8c-0.5-0.5-1.5-1.2-2.4-1.6L54.8,420.9z M60.4,426.1c-0.2,0.5-0.5,1-0.9,1.5h4.6
						c-0.4-0.5-0.6-1-0.9-1.5H60.4z M60.3,423.4v1.8h2.9v-1.8H60.3z"/>
				</g>
				<path class="st12" d="M354.8,189c-3.2,0-5.8,2.6-5.8,5.8c0,3.2,2.6,5.8,5.8,5.8h20.9c3.2,0,5.8-2.6,5.8-5.8
					c0-3.2-2.6-5.8-5.8-5.8H354.8z"/>
				<circle class="st13" cx="354.8" cy="194.8" r="4.7"/>
				<circle class="st14" cx="365.3" cy="194.8" r="4.7"/>
				<circle class="st15" cx="375.8" cy="194.8" r="4.7"/>
				<path class="st12" d="M354.8,447.9c-3.2,0-5.8,2.6-5.8,5.8s2.6,5.8,5.8,5.8c0,0,0,0,0,0h20.9c3.2,0,5.8-2.6,5.8-5.8
					s-2.6-5.8-5.8-5.8c0,0,0,0,0,0H354.8z"/>
				<circle class="st13" cx="354.8" cy="453.7" r="4.7"/>
				<circle class="st14" cx="365.3" cy="453.7" r="4.7"/>
				<circle class="st15" cx="375.8" cy="453.7" r="4.7"/>
				<path class="st12" d="M371.5,90.8c-3.2,0-5.8,2.6-5.8,5.8s2.6,5.8,5.8,5.8h20.9c3.2,0,5.8-2.6,5.8-5.8s-2.6-5.8-5.8-5.8H371.5z"
					/>
				<circle class="st13" cx="371.5" cy="96.6" r="4.7"/>
				<circle class="st14" cx="382" cy="96.6" r="4.7"/>
				<circle class="st15" cx="392.5" cy="96.6" r="4.7"/>
				<path class="st12" d="M65.7,189.4c-3.2,0-5.8,2.6-5.8,5.8c0,3.2,2.6,5.8,5.8,5.8h20.9c3.2,0,5.8-2.6,5.8-5.8
					c0-3.2-2.6-5.8-5.8-5.8H65.7z"/>
				<circle class="st13" cx="65.7" cy="195.2" r="4.7"/>
				<circle class="st14" cx="76.2" cy="195.2" r="4.7"/>
				<circle class="st15" cx="86.7" cy="195.2" r="4.7"/>
				<polygon class="st16" points="138.4,76.1 124.8,76.1 118,87.8 124.8,99.6 138.4,99.6 145.2,87.8 				"/>
				<g class="st8">
					<path class="st10" d="M126.3,87.7c-1.1-0.5-1.6-1.4-1.6-2.4c0-1.7,1.4-2.8,3.1-2.8c2,0,3,1.3,3,2.6c0,0.9-0.5,1.8-1.6,2.4v0
						c1.1,0.5,2,1.4,2,2.7c0,1.8-1.5,3.1-3.4,3.1c-2.2,0-3.3-1.3-3.3-2.8C124.4,89.2,125.2,88.3,126.3,87.7L126.3,87.7z M129.5,90.5
						c0-1.2-0.8-1.8-1.9-2.2c-1,0.4-1.6,1.2-1.6,2.1c0,1,0.7,1.9,1.8,1.9C128.9,92.2,129.5,91.4,129.5,90.5z M126.3,85.2
						c0,1,0.7,1.5,1.7,1.9c0.7-0.3,1.3-1,1.3-1.8c0-0.8-0.4-1.6-1.5-1.6C126.8,83.7,126.3,84.4,126.3,85.2z"/>
					<path class="st10" d="M133.8,87.4c0.5-0.6,1.3-1.1,2.3-1.1c1.7,0,2.9,1.3,2.9,3.3c0,2-1.2,3.7-3.3,3.7c-2.2,0-3.6-1.8-3.6-4.5
						c0-2.1,0.7-3.7,1.7-4.8c1.1-1.1,2.7-1.6,4.2-1.6l0,1.3C135.1,83.8,134,85.9,133.8,87.4L133.8,87.4z M137.4,89.8
						c0-1.4-0.7-2.3-1.8-2.3c-0.9,0-1.8,0.9-1.8,1.8c0,1.7,0.7,2.8,1.9,2.8C136.8,92.2,137.4,91.2,137.4,89.8z"/>
				</g>
				<rect x="80.4" y="156.6" class="st14" width="6.8" height="21.3"/>
				<rect x="64.9" y="212.2" class="st14" width="6.8" height="21.3"/>
				<circle class="st17" cx="291.6" cy="95.2" r="5.9"/>
				<line class="st18" x1="291.6" y1="100.8" x2="291.6" y2="114.5"/>
				<line class="st18" x1="286.5" y1="114.9" x2="296.7" y2="114.9"/>
				<circle class="st17" cx="325.6" cy="69" r="5.9"/>
				<line class="st18" x1="325.6" y1="74.6" x2="325.6" y2="88.3"/>
				<line class="st18" x1="320.5" y1="88.7" x2="330.8" y2="88.7"/>
				<rect x="228.3" y="38.6" class="st7" width="96.4" height="20.4"/>
				<g class="st8">
					<path class="st10" d="M236.7,52.6c-0.1,0.1-0.2,0.1-0.3,0.1c-0.7,0.7-1.9,1.7-2.9,2.3c-0.3-0.3-0.9-0.8-1.2-1
						c1-0.5,2.1-1.3,2.7-2L236.7,52.6z M243.7,51.6h-4.9v3.5h-1.6v-3.5h-2.8v0.3h-1.5v-7.4l1.9,0.1c0,0.1-0.1,0.2-0.3,0.2v5.5h9.3
						V51.6z M242.4,43.7v5.9h-7.1v-5.9H242.4z M240.9,45.4v-0.6h-4.2v0.6H240.9z M240.9,47v-0.7h-4.2V47H240.9z M240.9,48.6v-0.7
						h-4.2v0.7H240.9z M242.5,55c-0.6-0.6-1.9-1.7-2.9-2.4l1.3-0.8c0.9,0.6,2.3,1.6,3,2.2L242.5,55z"/>
					<path class="st10" d="M251.9,44.7h4.5V46H248v2.4c0,2-0.3,4.9-2,6.6c-0.2-0.3-0.8-0.8-1.1-1c0.8-0.8,1.2-1.9,1.5-2.9
						c-0.4,0.3-0.8,0.5-1.2,0.7c0,0.1-0.1,0.2-0.2,0.2l-0.5-1.5c0.5-0.2,1.3-0.6,2-1c0-0.4,0-0.7,0-1.5l-1.1,0.6
						c-0.1-0.6-0.5-1.6-0.9-2.4l1.1-0.5c0.3,0.6,0.7,1.4,0.9,2v-3h3.7v-1.4l1.9,0.1c0,0.1-0.1,0.2-0.4,0.2V44.7z M248.4,48.1v-1.3
						h7.9v1.3h-3.4V49h3.1v4.6c0,1.1-0.3,1.5-2.4,1.5c-0.1-0.4-0.3-1-0.5-1.3c0.3,0,0.6,0,0.9,0c0.5,0,0.6,0,0.6-0.2v-1l-0.8,0.7
						c-0.3-0.4-0.9-1-1.5-1.5c-0.4,0.6-0.9,1.1-1.7,1.6c-0.1-0.2-0.3-0.5-0.6-0.7v2.3h-1.3V49h2.8v-0.9H248.4z M250,50.2v2.1
						c1-0.6,1.3-1.3,1.5-2.1H250z M252.8,50.2c0,0.2,0,0.3-0.1,0.5c0.6,0.5,1.3,1.2,1.8,1.6v-2.1H252.8z"/>
					<path class="st10" d="M260.7,43.8l0.9,0.5c0,0.1-0.1,0.2-0.1,0.2c-0.3,1-0.7,2.3-1,3.3c0.8,1,1.1,1.7,1.1,2.5
						c0,1.9-1.1,2-2.2,2c0-0.4-0.1-0.9-0.3-1.2c0.2,0,0.4,0,0.6,0c0.4,0,0.6-0.2,0.6-0.9c0-0.6-0.3-1.3-1-2.2
						c0.3-0.8,0.5-1.9,0.7-2.8h-1v9.9h-1.3V43.8h2.8L260.7,43.8z M266.9,53.1c0,0.4,0,0.4,0.2,0.4h0.4c0.2,0,0.2-0.2,0.3-1.4
						c0.3,0.2,0.9,0.5,1.3,0.6c-0.1,1.7-0.5,2.2-1.4,2.2h-0.9c-1.1,0-1.3-0.4-1.3-1.7v-2.5h-1c-0.2,2.1-0.6,3.6-3.1,4.5
						c-0.1-0.4-0.5-0.9-0.8-1.2c2-0.6,2.4-1.6,2.5-3.3h-1.4v-1.3h7.1v1.3h-1.9V53.1z M261.5,44.7h2.8v-1.5l1.8,0.1
						c0,0.1-0.1,0.2-0.3,0.2v1.1h3v2.6h-1v1h-5.4v-0.9h-0.9V44.7z M267.4,47v-1h-4.5v1H267.4z"/>
					<path class="st10" d="M279.9,43.9c-0.1,0.1-0.2,0.1-0.4,0.1c-0.3,0.4-0.7,0.8-1.1,1.2h2.8v1.4h-11.4v-1.4h2.9
						c-0.3-0.4-0.7-1-1.1-1.4l1.4-0.6c0.5,0.5,1.2,1.2,1.5,1.7l-0.6,0.3h3.6l-0.6-0.3c0.5-0.5,1-1.2,1.3-1.7L279.9,43.9z
						 M275.3,47.4v6.2c0,1.3-0.6,1.4-2.3,1.4c-0.1-0.4-0.3-0.9-0.5-1.3c0.3,0,0.6,0,0.8,0c0.5,0,0.6,0,0.6-0.2v-1.1h-1.8v2.6h-1.4
						v-7.6H275.3z M273.9,48.7h-1.8v0.8h1.8V48.7z M272.1,51.4h1.8v-0.8h-1.8V51.4z M278,47.7c0,0.1-0.1,0.2-0.3,0.2v4.8h-1.4v-5.2
						L278,47.7z M280.4,53.5c0,1.3-0.5,1.6-2.7,1.6c-0.1-0.4-0.3-1-0.5-1.4c0.4,0,0.8,0,1.1,0c0.5,0,0.7,0,0.7-0.2v-6.3l1.8,0.1
						c0,0.1-0.1,0.2-0.3,0.2V53.5z"/>
					<path class="st10" d="M287,45.8c0,0.1-0.2,0.2-0.4,0.2c-0.5,2.9-1.5,6.1-2.9,8c-0.4-0.3-1-0.6-1.5-0.8c1.4-1.8,2.4-4.7,2.7-7.8
						L287,45.8z M292.2,54c-0.6-2-1.9-5.5-3.1-7.9l1.5-0.7c1.3,2.3,2.6,5.7,3.3,7.9L292.2,54z M291.1,43.5c0.5,0.5,1.1,1.3,1.4,1.8
						l-0.7,0.5c-0.3-0.5-0.9-1.4-1.4-1.8L291.1,43.5z M292.9,43c0.5,0.5,1.1,1.2,1.4,1.7l-0.8,0.6c-0.3-0.5-0.9-1.3-1.4-1.8
						L292.9,43z"/>
					<path class="st10" d="M303.6,45.1c0,0.1-0.1,0.2-0.2,0.2c-0.7,1.6-1.4,2.8-2.3,4.1c1.2,1,3.1,2.7,4.2,3.9l-1.4,1.2
						c-1-1.2-2.8-3-3.8-3.8c-1.2,1.3-2.8,2.9-4.4,3.8c-0.2-0.3-0.8-0.9-1.2-1.2c3.1-1.7,5.7-4.7,6.8-7.3h-5.6v-1.5h6.5l0.3-0.1
						L303.6,45.1z"/>
					<path class="st10" d="M307.3,48.7c-0.3,0.5-0.7,0.9-1,1.3c-0.1-0.4-0.5-1.2-0.7-1.5c1-1.2,2.1-3.2,2.7-5.2l1.7,0.6
						c-0.1,0.1-0.2,0.2-0.4,0.1c-0.3,0.8-0.6,1.5-1,2.3l0.4,0.1c0,0.1-0.1,0.2-0.3,0.2v8.4h-1.5V48.7z M309.3,49.3h8.5v2.4h-1.4
						v-1.3h-5.8v1.3h-1.3V49.3z M309.6,44.4h3.2v-1.1l1.8,0.1c0,0.1-0.1,0.2-0.3,0.2v0.7h3.3v1.3h-8V44.4z M316.8,48.8h-6.4v-2.7
						h6.4V48.8z M311.1,52.2V51h5v1.2h-1.8v1.5c0,1.4-0.7,1.5-3.2,1.5c-0.1-0.4-0.3-1-0.5-1.4c0.5,0,1,0,1.4,0c0.7,0,0.8,0,0.8-0.2
						v-1.4H311.1z M311.9,47.1v0.7h3.4v-0.7H311.9z"/>
				</g>
				<line class="st19" x1="132.4" y1="195.2" x2="151.8" y2="195.2"/>
				<polygon class="st6" points="150.6,199.1 157.5,195.2 150.6,191.2 				"/>
				<line class="st20" x1="60.5" y1="438.7" x2="60.5" y2="453.1"/>
				<polygon class="st7" points="53,450.9 60.5,463.9 67.9,450.9 				"/>
				<g class="st8">
					<path class="st7" d="M65.6,52.9h5.9v0.9H58.8v-0.9h5.8V50h-4.5v-0.9h4.5V47l1.2,0.1c0,0.1-0.1,0.2-0.3,0.2v1.8h4.7V50h-4.7
						V52.9z M70.5,47.8c-0.3-0.3-0.6-0.7-1-1.1C66,46.9,62.3,47,60,47.1c0,0.1-0.1,0.2-0.2,0.2l-0.3-1.1c0.6,0,1.4,0,2.2,0
						c0.5-0.8,1.1-1.9,1.5-2.9h-4v-0.9h12.1v0.9h-6.7c-0.1,0.1-0.2,0.1-0.3,0.1c-0.4,0.8-1,1.9-1.6,2.7c1.8,0,3.9-0.1,5.9-0.1
						c-0.7-0.6-1.4-1.2-2.1-1.7l0.8-0.5c1.4,1,3.2,2.5,4,3.5L70.5,47.8z"/>
				</g>
				<g class="st8">
					<path class="st7" d="M71.6,61.6H60.8v2.9c0,2.1-0.2,5.2-1.5,7.2c-0.2-0.2-0.6-0.4-0.8-0.5c1.3-2,1.4-4.7,1.4-6.7v-3.8h5.2v-2
						l1.2,0.1c0,0.1-0.1,0.2-0.3,0.2v1.7h5.5V61.6z M68.5,66.1c1.3,1.6,2.7,3.8,3.3,5.2l-0.9,0.5c-0.1-0.4-0.4-0.8-0.6-1.3
						c-3.2,0.2-6.5,0.4-8.6,0.5c0,0.1-0.1,0.2-0.2,0.2L61,70l1.7-0.1c0.8-2,1.8-5.1,2.4-7.4l1.3,0.3c0,0.1-0.2,0.2-0.3,0.2
						c-0.5,2-1.5,4.9-2.3,6.8l6.1-0.3c-0.6-1.1-1.4-2.2-2.1-3.1L68.5,66.1z"/>
					<path class="st7" d="M67.2,84.6h-6.8v0.7h-0.9v-3l1.1,0.1c0,0.1-0.1,0.2-0.3,0.2v1.2h2.5V82l1.2,0.1c0,0.1-0.1,0.2-0.3,0.2v1.6
						h2.5v-1.6l1.2,0.1c0,0.1-0.1,0.2-0.3,0.2V84.6z M71.5,80h-9.9v1.1h8.7l0.2,0l0.5,0.1c0,0.1,0,0.2-0.1,0.3
						c-0.2,2.5-0.4,3.5-0.8,3.9c-0.3,0.3-0.6,0.4-1.4,0.4c-0.4,0-0.8,0-1.3,0c0-0.3-0.1-0.6-0.2-0.8c0.7,0.1,1.4,0.1,1.7,0.1
						c0.3,0,0.4,0,0.5-0.1c0.2-0.2,0.4-1,0.6-2.9h-9.3v-8.1h3.3c0.2-0.4,0.4-0.9,0.5-1.2l1.2,0.3c0,0.1-0.1,0.1-0.3,0.1
						c-0.1,0.2-0.3,0.5-0.4,0.8h4.4v4.4h-7.8v1h9.9V80z M68.4,74.5h-6.8v1.1h6.8V74.5z M61.6,77.5h6.8v-1.2h-6.8V77.5z"/>
					<path class="st7" d="M59.8,95.5c-0.1,1.3-0.2,2.7-0.8,3.5l-0.5-0.3c0.5-0.7,0.7-2,0.7-3.3L59.8,95.5z M64.2,93.7l0.4,0.1l0,0.3
						c-0.2,3.6-0.4,4.9-0.7,5.3c-0.3,0.3-0.5,0.4-1.2,0.4c-0.3,0-0.6,0-0.9,0c0-0.2-0.1-0.6-0.2-0.8c0.5,0,1,0.1,1.2,0.1
						c0.4,0,0.6-0.1,0.8-2l-0.5,0.2c-0.1-0.5-0.5-1.3-0.9-1.9l0.5-0.2c0.4,0.5,0.7,1.3,0.8,1.8h0c0.1-0.6,0.1-1.4,0.2-2.3h-3.7v0.4
						h-0.8v-7.6h5.2v0.8h-2.1v1.3h1.8v0.8h-1.8v1.4h1.8v0.8h-1.8v1.4H64L64.2,93.7z M61.6,88.1h-1.5v1.3h1.5V88.1z M61.6,91.5v-1.4
						h-1.5v1.4H61.6z M60.1,92.3v1.4h1.5v-1.4H60.1z M60.4,98.3c0-0.7-0.1-1.8-0.2-2.6l0.5-0.1c0.2,0.8,0.3,1.9,0.3,2.6L60.4,98.3z
						 M61.8,95.4c0.3,0.7,0.6,1.7,0.6,2.3l-0.5,0.1c-0.1-0.6-0.3-1.6-0.6-2.3L61.8,95.4z M71.2,93h-2.3c0.4,2.7,1.3,4.9,3,6
						c-0.2,0.2-0.5,0.5-0.6,0.8C69.3,98.4,68.4,96,68,93h-1.4c0,2.1-0.3,4.9-1.6,6.7c-0.2-0.2-0.5-0.4-0.8-0.5
						c1.4-1.8,1.5-4.5,1.5-6.6v-5.4h5.5V93z M70.3,88.1h-3.7v4h3.7V88.1z"/>
				</g>
				<line class="st20" x1="65.4" y1="35.5" x2="65.4" y2="21"/>
				<polygon class="st7" points="72.9,23.2 65.4,10.3 58,23.2 				"/>
				<g class="st8">
					<path class="st7" d="M424.2,84.7h5.9v0.9h-12.7v-0.9h5.8v-2.9h-4.5v-0.9h4.5v-2.1l1.2,0.1c0,0.1-0.1,0.2-0.3,0.2v1.8h4.7v0.9
						h-4.7V84.7z M429,79.6c-0.3-0.3-0.6-0.7-1-1.1c-3.5,0.1-7.2,0.3-9.5,0.3c0,0.1-0.1,0.2-0.2,0.2l-0.3-1.1c0.6,0,1.4,0,2.2,0
						c0.5-0.8,1.1-1.9,1.5-2.9h-4v-0.9h12.1V75h-6.7c-0.1,0.1-0.2,0.1-0.3,0.1c-0.4,0.8-1,1.9-1.6,2.7c1.8,0,3.9-0.1,5.9-0.1
						c-0.7-0.6-1.4-1.2-2.1-1.7l0.8-0.5c1.4,1,3.2,2.5,4,3.5L429,79.6z"/>
					<path class="st7" d="M436.5,78.2c-0.6,0.9-1.2,1.7-1.8,2.4c-0.1-0.2-0.4-0.7-0.5-0.9c1.4-1.5,2.8-3.9,3.6-6.4l1.1,0.4
						c-0.1,0.1-0.2,0.1-0.3,0.1c-0.4,1-0.8,2-1.3,3l0.4,0.1c0,0.1-0.1,0.2-0.3,0.2v9.1h-0.9V78.2z M438.7,84.2h8.8v0.9h-8.8V84.2z
						 M446.9,75.5v0.9h-7.5v-0.9H446.9z"/>
					<path class="st7" d="M450.4,78.2c-0.5,0.9-1.1,1.7-1.7,2.3c-0.1-0.2-0.3-0.7-0.5-0.9c1.3-1.5,2.7-3.9,3.5-6.3l1.1,0.4
						c-0.1,0.1-0.2,0.1-0.3,0.1c-0.4,1-0.8,2-1.3,2.9l0.4,0.1c0,0.1-0.1,0.2-0.3,0.2v9.3h-0.9V78.2z M461.4,81.1H458
						c0.9,1.5,2.4,3,3.8,3.8c-0.2,0.2-0.5,0.5-0.7,0.8c-1.4-0.9-2.8-2.4-3.8-4v4.6h-0.9v-4.6c-1,1.6-2.5,3.1-4,3.9
						c-0.2-0.2-0.4-0.6-0.7-0.8c1.5-0.7,3.1-2.2,4-3.8h-3.6v-0.9h4.2v-1.6h-3.2v-4.7h7.4v4.7h-3.3v1.6h4V81.1z M454.2,74.7v3h5.5v-3
						H454.2z"/>
				</g>
				<line class="st20" x1="437.5" y1="96.8" x2="451.9" y2="96.8"/>
				<polygon class="st7" points="449.7,104.2 462.6,96.8 449.7,89.3 				"/>
				<line class="st19" x1="286.3" y1="195.2" x2="305.8" y2="195.2"/>
				<polygon class="st6" points="304.6,199.1 311.5,195.2 304.6,191.2 				"/>
				<line class="st19" x1="365.4" y1="124.3" x2="365.4" y2="143.8"/>
				<polygon class="st6" points="361.4,142.6 365.4,149.5 369.4,142.6 				"/>
				<line class="st19" x1="365.4" y1="224.2" x2="365.4" y2="243.7"/>
				<polygon class="st6" points="361.4,242.5 365.4,249.4 369.4,242.5 				"/>
				<polyline class="st19" points="365.8,331.8 365.8,346.7 353.8,346.7 				"/>
				<polygon class="st6" points="354.9,342.7 348,346.7 354.9,350.7 				"/>
				<path class="st16" d="M90.9,114.1c0,3.7-6.4,14.7-14.3,14.7s-14.3-11-14.3-14.7s6.4-5.4,14.3-5.4S90.9,110.4,90.9,114.1z"/>
				<g class="st8">
					<path class="st10" d="M71.9,123.3h-1.4v-2.8h-4.1v-1.1l3.8-6.7h1.7v6.5h1.2v1.2h-1.2V123.3z M67.8,119.3h2.7v-3.2
						c0-0.6,0-1.2,0.1-1.8h-0.1c-0.3,0.7-0.5,1.2-0.8,1.8L67.8,119.3L67.8,119.3z"/>
					<path class="st10" d="M75.7,117.7c-1-0.5-1.5-1.4-1.5-2.4c0-1.7,1.3-2.8,2.9-2.8c1.9,0,2.7,1.3,2.7,2.6c0,0.9-0.4,1.8-1.5,2.4
						v0c1.1,0.5,1.8,1.4,1.8,2.7c0,1.8-1.4,3.1-3.2,3.1c-2,0-3.1-1.3-3.1-2.8C73.9,119.3,74.7,118.3,75.7,117.7L75.7,117.7z
						 M78.7,120.5c0-1.2-0.7-1.8-1.8-2.2c-1,0.4-1.5,1.2-1.5,2.1c0,1,0.6,1.9,1.6,1.9C78.1,122.3,78.7,121.5,78.7,120.5z
						 M75.7,115.3c0,1,0.6,1.5,1.6,1.9c0.7-0.3,1.2-1,1.2-1.8c0-0.8-0.4-1.6-1.4-1.6C76.2,113.7,75.7,114.5,75.7,115.3z"/>
					<path class="st10" d="M81.5,112.7h5.9v1l-3.9,9.5H82l3.9-9.2v0h-4.4V112.7z"/>
				</g>
				<polyline class="st21" points="292.3,89 299,58.5 319.9,66.8 				"/>
				<line class="st4" x1="368.8" y1="411.5" x2="479.1" y2="411.5"/>
				<polygon class="st6" points="325.6,368.9 330.6,337.5 305.6,368.9 184.7,368.9 184.7,443.3 332.8,443.3 332.8,368.9 				"/>
				<g class="st8">
					<path class="st10" d="M216.4,394.5c0,4.4-2.8,6.2-5.4,6.2c-3.1,0-5.4-2.2-5.4-6c0-3.9,2.4-6.1,5.5-6.1
						C214.3,388.5,216.4,390.9,216.4,394.5z M211,390.7c-1.7,0-2.3,2-2.3,3.8c0,2.1,0.8,3.8,2.3,3.8c1.5,0,2.3-1.7,2.3-3.8
						C213.2,392.7,212.6,390.7,211,390.7z"/>
					<path class="st10" d="M228.6,400.4h-3.1v-6.8c0-1.4-0.5-2.6-1.8-2.6c-0.8,0-2,0.7-2,2.4v6.9h-3.1v-8.1c0-1.4,0-2.5-0.1-3.5h2.7
						l0.1,1.6h0.1c0.5-0.9,1.7-1.8,3.4-1.8c2.1,0,3.8,1.5,3.8,4.8V400.4z"/>
					<path class="st10" d="M246.2,400.4h-3.7l-2.7-5l-0.8,1.1v3.9h-3.1v-16.8h3.1v10.3h0.1c0.3-0.5,0.5-1,0.8-1.4l2.3-3.6h3.6
						l-3.8,4.8L246.2,400.4z"/>
					<path class="st10" d="M256.1,397.6c0,1,0,2.1,0.2,2.8h-2.8l-0.2-1.2h-0.1c-0.7,0.9-1.8,1.4-3.1,1.4c-2.2,0-3.5-1.6-3.5-3.5
						c0-3,2.7-4.4,6.4-4.4c0-1.2-0.4-2-2.1-2c-1.1,0-2.1,0.3-2.9,0.8l-0.6-2c0.8-0.5,2.2-1,4-1c3.6,0,4.6,2.3,4.6,4.9V397.6z
						 M253.1,394.7c-1.7,0-3.4,0.4-3.4,2.1c0,1.1,0.7,1.6,1.5,1.6c0.7,0,1.9-0.5,1.9-2V394.7z"/>
					<path class="st10" d="M259.3,386.6l3.1-0.9v3h2.6v2.3h-2.6v5.1c0,1.4,0.4,2,1.4,2c0.4,0,0.7,0,1-0.1l0,2.4
						c-0.4,0.2-1.2,0.3-2.1,0.3c-3.3,0-3.4-2.9-3.4-4.2V391h-1.5v-2.3h1.5V386.6z"/>
					<path class="st10" d="M273,391.3c-0.5-0.3-1.3-0.6-2.2-0.6c-0.9,0-1.4,0.5-1.4,1.1c0,0.6,0.4,1,1.8,1.5c2,0.8,2.9,1.9,2.9,3.6
						c0,2.2-1.7,3.7-4.6,3.7c-1.3,0-2.5-0.3-3.3-0.8l0.6-2.2c0.6,0.4,1.8,0.8,2.7,0.8c1.1,0,1.6-0.5,1.6-1.2c0-0.7-0.4-1.1-1.7-1.6
						c-2.2-0.9-3-2.1-3-3.4c0-2.1,1.7-3.7,4.3-3.7c1.2,0,2.2,0.3,2.9,0.6L273,391.3z"/>
					<path class="st10" d="M286,396.8c0,1.4,0.1,2.6,0.1,3.6h-2.7l-0.1-1.5h-0.1c-0.5,0.8-1.5,1.8-3.3,1.8c-2.2,0-3.7-1.4-3.7-4.9
						v-7h3.1v6.5c0,1.8,0.5,2.9,1.8,2.9c1,0,1.9-0.9,1.9-2.2v-7.2h3.1V396.8z"/>
					<path class="st10" d="M298.8,397.1c0,1.2,0,2.5,0.1,3.3h-2.7l-0.1-1.7H296c-0.6,1.2-1.9,1.9-3.3,1.9c-2.6,0-4.5-2.4-4.5-6
						c0-4,2.2-6.2,4.7-6.2c1.4,0,2.3,0.6,2.8,1.4h0v-6.3h3.1V397.1z M295.7,393.5c0-1.7-1-2.5-2.1-2.5c-1.6,0-2.4,1.6-2.4,3.7
						c0,2.1,0.9,3.5,2.3,3.5c0.9,0,2.1-0.7,2.1-2.5V393.5z"/>
					<path class="st10" d="M311.8,394.5c0,4.4-2.8,6.2-5.4,6.2c-3.1,0-5.4-2.2-5.4-6c0-3.9,2.4-6.1,5.5-6.1
						C309.8,388.5,311.8,390.9,311.8,394.5z M306.4,390.7c-1.7,0-2.3,2-2.3,3.8c0,2.1,0.8,3.8,2.3,3.8c1.5,0,2.3-1.7,2.3-3.8
						C308.7,392.7,308,390.7,306.4,390.7z"/>
				</g>
				<g class="st8">
					<path class="st10" d="M247.1,419.5v2.4h-8v3.5c0,2.4-1.1,2.9-5.5,2.9c-0.1-0.8-0.6-1.9-1.1-2.5c1.3,0.1,2.9,0.1,3.4,0.1
						c0.4,0,0.6-0.1,0.6-0.5v-3.4h-7.8v-2.4h7.8V417h-4.3v-2.3h11.3v2.3h-4.3v2.5H247.1z M231.4,413.1v3.1h-2.5v-5.4h7.5v-2.3
						l3.3,0.2c0,0.2-0.2,0.4-0.6,0.4v1.8h7.6v5.4h-2.6v-3.1H231.4z"/>
					<path class="st10" d="M249.7,428.2V419h8.1v9.1h-2.5v-0.6h-3.2v0.8H249.7z M255.3,421.4h-3.2v3.6h3.2V421.4z M264.3,409.2v8.1
						h-11.1v-8.1H264.3z M261.8,414.9v-3.3h-6.2v3.3H261.8z M259.6,419h8.3v9.1h-2.5v-0.6H262v0.7h-2.4V419z M262,425h3.4v-3.6H262
						V425z"/>
					<path class="st10" d="M281.6,411h7.7v2.4H274v2.9c0,3.4-0.3,8.6-2.2,11.9c-0.5-0.4-1.6-1.2-2.2-1.4c1.7-3,1.9-7.5,1.9-10.5V411
						h7.5v-2.4l3.2,0.2c0,0.2-0.2,0.3-0.6,0.4V411z M283,413.8c0,0.2-0.2,0.4-0.6,0.4v1.4h6.6v2.2h-6.6v2.3h5.4v8.1h-2.6v-0.8h-7.5
						v0.8h-2.4v-8.1h4.6v-6.5L283,413.8z M285.2,425.3v-2.9h-7.5v2.9H285.2z"/>
				</g>
			</g>
		</g>
	</g>
</g>
</svg>
