<svg xmlns="http://www.w3.org/2000/svg" width="78.01" height="18.002" viewBox="0 0 78.01 18.002">
  <path id="on_kastudo" data-name="on kastudo" d="M7.321,10.6a4.774,4.774,0,0,0-.207-1.426,3.442,3.442,0,0,0-.6-1.147,2.754,2.754,0,0,0-.97-.765,3.055,3.055,0,0,0-1.312-.278,2.813,2.813,0,0,0-1.223.276,3,3,0,0,0-.98.761,3.583,3.583,0,0,0-.651,1.146A4.326,4.326,0,0,0,1.14,10.6a4.987,4.987,0,0,0,.219,1.523,3.255,3.255,0,0,0,.623,1.142,2.683,2.683,0,0,0,.974.717,3.188,3.188,0,0,0,1.274.249,2.9,2.9,0,0,0,1.325-.3,2.865,2.865,0,0,0,.969-.808,3.672,3.672,0,0,0,.595-1.16A4.569,4.569,0,0,0,7.321,10.6ZM6.2,10.6a5.846,5.846,0,0,1-.121,1.242,3.125,3.125,0,0,1-.366.962,1.77,1.77,0,0,1-.614.621,1.684,1.684,0,0,1-.864.221,1.677,1.677,0,0,1-.841-.212,1.8,1.8,0,0,1-.622-.607,3.065,3.065,0,0,1-.385-.959A5.6,5.6,0,0,1,2.25,10.6a5.6,5.6,0,0,1,.132-1.267,3.065,3.065,0,0,1,.385-.959,1.8,1.8,0,0,1,.622-.607,1.677,1.677,0,0,1,.841-.212,1.665,1.665,0,0,1,.839.212,1.78,1.78,0,0,1,.616.607,3.074,3.074,0,0,1,.38.959A5.69,5.69,0,0,1,6.2,10.6Zm10.4,3.105a.367.367,0,0,0-.017-.118.207.207,0,0,0-.052-.084.222.222,0,0,0-.089-.051.425.425,0,0,0-.127-.017,2.7,2.7,0,0,1-.407-.024.614.614,0,0,1-.253-.087.331.331,0,0,1-.129-.174.894.894,0,0,1-.036-.285V8.916a2.488,2.488,0,0,0-.054-.522,2.026,2.026,0,0,0-.162-.472,1.685,1.685,0,0,0-.272-.4,1.564,1.564,0,0,0-.383-.3,2.027,2.027,0,0,0-.882-.267,2.415,2.415,0,0,0-.872.111,3.461,3.461,0,0,0-.8.373,4.31,4.31,0,0,0-.671.518v-.69a.4.4,0,0,0-.027-.15.256.256,0,0,0-.076-.105.232.232,0,0,0-.118-.049.351.351,0,0,0-.154.019l-1.32.405a.352.352,0,0,0-.195.131.262.262,0,0,0-.047.186.254.254,0,0,0,.1.166.373.373,0,0,0,.236.072,1.509,1.509,0,0,1,.371.032.29.29,0,0,1,.186.125.577.577,0,0,1,.065.26c.009.114.008.257.008.437v4.126a.674.674,0,0,1-.033.225.363.363,0,0,1-.108.159.481.481,0,0,1-.195.094,1.192,1.192,0,0,1-.295.031.4.4,0,0,0-.121.017.249.249,0,0,0-.091.051.24.24,0,0,0-.06.084.371.371,0,0,0-.028.118.323.323,0,0,0,.021.116.3.3,0,0,0,.059.1.275.275,0,0,0,.09.064A.281.281,0,0,0,9.766,14h2.37a.417.417,0,0,0,.127-.017.205.205,0,0,0,.141-.141.478.478,0,0,0,0-.254.205.205,0,0,0-.141-.141.417.417,0,0,0-.127-.017,3.472,3.472,0,0,1-.389-.016.564.564,0,0,1-.228-.065.241.241,0,0,1-.107-.141.828.828,0,0,1-.026-.244V8.8a2.458,2.458,0,0,1,.333-.359,3.923,3.923,0,0,1,.473-.366,3.029,3.029,0,0,1,.535-.285,1.438,1.438,0,0,1,.519-.115,1.49,1.49,0,0,1,.577.1.881.881,0,0,1,.391.315,1.493,1.493,0,0,1,.222.562,4.23,4.23,0,0,1,.07.841v3.24a2.188,2.188,0,0,1-.022.376.349.349,0,0,1-.106.213.481.481,0,0,1-.252.095,3.387,3.387,0,0,1-.46.022.417.417,0,0,0-.127.017.205.205,0,0,0-.141.141.478.478,0,0,0,0,.254.205.205,0,0,0,.141.141.417.417,0,0,0,.127.017h2.685a.248.248,0,0,0,.109-.024.216.216,0,0,0,.078-.064.261.261,0,0,0,.045-.1A.352.352,0,0,0,16.592,13.7Zm12.482,0a.377.377,0,0,0-.028-.118.245.245,0,0,0-.059-.084.239.239,0,0,0-.087-.051.349.349,0,0,0-.112-.017,2.112,2.112,0,0,1-.35-.024.889.889,0,0,1-.269-.087.925.925,0,0,1-.229-.174,2.279,2.279,0,0,1-.232-.285l-2.25-3.15,1.35-1.335a2.412,2.412,0,0,1,.387-.32,1.739,1.739,0,0,1,.393-.192,2.079,2.079,0,0,1,.427-.094,4.13,4.13,0,0,1,.488-.025.425.425,0,0,0,.127-.017.222.222,0,0,0,.089-.051.207.207,0,0,0,.052-.084.367.367,0,0,0,.017-.118.317.317,0,0,0-.01-.116.263.263,0,0,0-.05-.1.238.238,0,0,0-.083-.064.263.263,0,0,0-.112-.024l-2.91-.015a.417.417,0,0,0-.127.017.205.205,0,0,0-.141.141.417.417,0,0,0-.017.127.323.323,0,0,0,.021.116.3.3,0,0,0,.059.1.275.275,0,0,0,.09.064.281.281,0,0,0,.114.024,1.236,1.236,0,0,1,.328.038.4.4,0,0,1,.192.105.192.192,0,0,1,.048.161.443.443,0,0,1-.1.206l-2.265,2.28V3.83a.486.486,0,0,0-.023-.16.2.2,0,0,0-.069-.1.208.208,0,0,0-.117-.037.526.526,0,0,0-.166.025l-1.32.39a.323.323,0,0,0-.184.133.281.281,0,0,0-.041.191A.277.277,0,0,0,22,4.446a.332.332,0,0,0,.221.074,1.807,1.807,0,0,1,.345.022.292.292,0,0,1,.189.108.529.529,0,0,1,.079.257,4.472,4.472,0,0,1,.016.469v7.456a1.107,1.107,0,0,1-.031.29.385.385,0,0,1-.1.184.419.419,0,0,1-.194.1,1.293,1.293,0,0,1-.3.028.425.425,0,0,0-.127.017A.222.222,0,0,0,22,13.5a.207.207,0,0,0-.052.084.367.367,0,0,0-.017.118.317.317,0,0,0,.01.116.263.263,0,0,0,.05.1.238.238,0,0,0,.083.064.263.263,0,0,0,.112.024h2.37a.323.323,0,0,0,.116-.021.3.3,0,0,0,.1-.059.275.275,0,0,0,.064-.09.281.281,0,0,0,.024-.114.417.417,0,0,0-.017-.127.205.205,0,0,0-.141-.141.417.417,0,0,0-.127-.017,2.636,2.636,0,0,1-.389-.021.5.5,0,0,1-.228-.082.3.3,0,0,1-.107-.169,1.123,1.123,0,0,1-.026-.283v-1.53l1.005-1.02L26.718,13a.417.417,0,0,1,.079.176.163.163,0,0,1-.04.138.342.342,0,0,1-.172.09,1.3,1.3,0,0,1-.317.032.417.417,0,0,0-.127.017A.205.205,0,0,0,26,13.59a.478.478,0,0,0,0,.254.205.205,0,0,0,.141.141.417.417,0,0,0,.127.017H28.8a.265.265,0,0,0,.112-.024A.251.251,0,0,0,29,13.914a.292.292,0,0,0,.054-.1A.356.356,0,0,0,29.074,13.7Zm7.726-.3a.471.471,0,0,0-.093-.09.291.291,0,0,0-.1-.047.263.263,0,0,0-.1,0,.37.37,0,0,0-.11.036.644.644,0,0,1-.283.1.274.274,0,0,1-.212-.079.559.559,0,0,1-.134-.268,1.98,1.98,0,0,1-.046-.469V8.856a1.816,1.816,0,0,0-.186-.821,1.781,1.781,0,0,0-.481-.591,2.148,2.148,0,0,0-.661-.358,2.294,2.294,0,0,0-.726-.12h-.21a3.737,3.737,0,0,0-.8.1,3.947,3.947,0,0,0-.824.281,2.234,2.234,0,0,0-.655.452,1.007,1.007,0,0,0-.3.611.759.759,0,0,0,.043.343.593.593,0,0,0,.157.227.655.655,0,0,0,.211.126.6.6,0,0,0,.2.039.765.765,0,0,0,.273-.049A.667.667,0,0,0,32,8.94a.722.722,0,0,0,.165-.261,1.078,1.078,0,0,0,.062-.378.514.514,0,0,1,.087-.278.853.853,0,0,1,.252-.245,1.388,1.388,0,0,1,.4-.175,2.05,2.05,0,0,1,.535-.067,1.147,1.147,0,0,1,.562.138,1.181,1.181,0,0,1,.387.349,1.566,1.566,0,0,1,.224.462,1.67,1.67,0,0,1,.072.476v.8c-.21.045-.571.127-.994.252a9.236,9.236,0,0,0-1.368.518,4.207,4.207,0,0,0-1.211.83,1.7,1.7,0,0,0-.522,1.189,1.53,1.53,0,0,0,.2.782,1.453,1.453,0,0,0,.481.493,2.071,2.071,0,0,0,.608.256,2.394,2.394,0,0,0,.575.074,2.274,2.274,0,0,0,.59-.085,3.653,3.653,0,0,0,.6-.224,5.115,5.115,0,0,0,.571-.317,5.769,5.769,0,0,0,.506-.364,1.635,1.635,0,0,0,.054.279,1.081,1.081,0,0,0,.1.231.865.865,0,0,0,.141.186.909.909,0,0,0,.189.144.941.941,0,0,0,.307.106,1.16,1.16,0,0,0,.349,0,1.558,1.558,0,0,0,.377-.1,2.12,2.12,0,0,0,.391-.214.445.445,0,0,0,.086-.088.362.362,0,0,0,.053-.1.266.266,0,0,0,.013-.1A.214.214,0,0,0,36.8,13.4Zm-2.055-.975a5.52,5.52,0,0,1-.529.461,3.331,3.331,0,0,1-.508.321,2.079,2.079,0,0,1-.488.178,1.5,1.5,0,0,1-.47.03,2.526,2.526,0,0,1-.318-.041,1.106,1.106,0,0,1-.333-.122.7.7,0,0,1-.263-.265.955.955,0,0,1-.107-.472,1.227,1.227,0,0,1,.309-.781,2.944,2.944,0,0,1,.766-.628,6.261,6.261,0,0,1,.982-.467,8.39,8.39,0,0,1,.958-.3Zm9.166-.24a1.811,1.811,0,0,0-.238-.937,1.912,1.912,0,0,0-.606-.619,3.649,3.649,0,0,0-.814-.389c-.288-.1-.585-.178-.862-.245s-.554-.144-.789-.226a2.918,2.918,0,0,1-.6-.277,1.081,1.081,0,0,1-.372-.367.814.814,0,0,1-.1-.5,1.313,1.313,0,0,1,.254-.7,1.015,1.015,0,0,1,.5-.339,1.529,1.529,0,0,1,.609-.058,2.052,2.052,0,0,1,.592.148,3.515,3.515,0,0,1,.379.193,3.183,3.183,0,0,1,.4.282,3.308,3.308,0,0,1,.406.4,3.861,3.861,0,0,1,.387.539.415.415,0,0,0,.086.084.313.313,0,0,0,.1.047.264.264,0,0,0,.1.008.282.282,0,0,0,.1-.034.328.328,0,0,0,.086-.069.29.29,0,0,0,.054-.089.262.262,0,0,0-.006-.2l-.705-1.65a.365.365,0,0,0-.148-.177.282.282,0,0,0-.335.04.231.231,0,0,0-.072.152.651.651,0,0,1-.008.113.176.176,0,0,1-.024.068.045.045,0,0,1-.038.023.085.085,0,0,1-.05-.023,3.688,3.688,0,0,0-.347-.174,3.939,3.939,0,0,0-.4-.149,3.334,3.334,0,0,0-.418-.1,2.39,2.39,0,0,0-.415-.039A1.863,1.863,0,0,0,40,7.038a2.057,2.057,0,0,0-.624.361,1.852,1.852,0,0,0-.477.617,2.034,2.034,0,0,0-.19.885,1.775,1.775,0,0,0,.217.9,1.739,1.739,0,0,0,.563.583,3.667,3.667,0,0,0,.777.375c.28.1.573.188.858.274s.557.166.789.25a3,3,0,0,1,.595.278,1.115,1.115,0,0,1,.376.374,1.046,1.046,0,0,1,.131.537,1.075,1.075,0,0,1-.1.455,1.14,1.14,0,0,1-.267.361,1.336,1.336,0,0,1-.387.245,1.465,1.465,0,0,1-.462.109,2.161,2.161,0,0,1-.825-.112,2.954,2.954,0,0,1-.758-.387,3.833,3.833,0,0,1-.645-.573,3.915,3.915,0,0,1-.488-.669.341.341,0,0,0-.065-.1.2.2,0,0,0-.082-.051.221.221,0,0,0-.1-.006.432.432,0,0,0-.115.036.382.382,0,0,0-.1.065.226.226,0,0,0-.058.082.23.23,0,0,0-.016.1.393.393,0,0,0,.025.115l.66,1.8a.371.371,0,0,0,.12.173.284.284,0,0,0,.168.062.24.24,0,0,0,.163-.059.34.34,0,0,0,.1-.19c0-.026,0-.06.007-.095a.554.554,0,0,1,.012-.1.1.1,0,0,1,.04-.067.1.1,0,0,1,.091.007c.12.071.246.145.38.216a3.53,3.53,0,0,0,.432.193,2.727,2.727,0,0,0,.5.131,2.788,2.788,0,0,0,.591.03,2.349,2.349,0,0,0,.8-.173,2.112,2.112,0,0,0,.658-.427,1.955,1.955,0,0,0,.444-.64A2.055,2.055,0,0,0,43.91,12.187Zm6.271,1.155a.877.877,0,0,0,.045-.118.324.324,0,0,0,.015-.107.193.193,0,0,0-.03-.1.284.284,0,0,0-.09-.084.231.231,0,0,0-.1-.052.251.251,0,0,0-.109,0,.314.314,0,0,0-.106.044.367.367,0,0,0-.091.083,1.078,1.078,0,0,1-.231.2,2.045,2.045,0,0,1-.358.189,1.736,1.736,0,0,1-.42.116,1.024,1.024,0,0,1-.417-.022.924.924,0,0,1-.27-.124.523.523,0,0,1-.17-.207,1.138,1.138,0,0,1-.089-.345,4.454,4.454,0,0,1-.026-.538V7.716h1.89a.417.417,0,0,0,.127-.017.205.205,0,0,0,.141-.141.478.478,0,0,0,0-.254.205.205,0,0,0-.141-.141.417.417,0,0,0-.127-.017h-1.89v-2a.417.417,0,0,0-.017-.127.205.205,0,0,0-.141-.141.478.478,0,0,0-.254,0,.205.205,0,0,0-.141.141.417.417,0,0,0-.017.127,3,3,0,0,1-.107.827,2.012,2.012,0,0,1-.277.6,1.507,1.507,0,0,1-.381.385,1.188,1.188,0,0,1-.419.185.325.325,0,0,0-.212.121.257.257,0,0,0-.045.192.3.3,0,0,0,.1.178.325.325,0,0,0,.218.079h.72v5.041a1.863,1.863,0,0,0,.067.515,1.322,1.322,0,0,0,.19.4,1.206,1.206,0,0,0,.294.292,1.42,1.42,0,0,0,.38.186,1.776,1.776,0,0,0,.7.059,2.978,2.978,0,0,0,.732-.172,3.141,3.141,0,0,0,.639-.318A1.587,1.587,0,0,0,50.181,13.342Zm8.956.375a.281.281,0,0,0-.024-.114.275.275,0,0,0-.064-.09.3.3,0,0,0-.1-.059.323.323,0,0,0-.116-.021,3.147,3.147,0,0,1-.346-.015.843.843,0,0,1-.249-.06.32.32,0,0,1-.15-.128.417.417,0,0,1-.05-.218V7.221a.38.38,0,0,0-.022-.133.251.251,0,0,0-.066-.1.233.233,0,0,0-.108-.054.363.363,0,0,0-.149,0l-1.605.33a.326.326,0,0,0-.2.121.277.277,0,0,0,.037.371.332.332,0,0,0,.227.079c.2,0,.351,0,.474,0a.709.709,0,0,1,.283.052.264.264,0,0,1,.137.175,1.364,1.364,0,0,1,.036.372V12.4c-.131.12-.276.251-.432.381a4.864,4.864,0,0,1-.5.369,2.808,2.808,0,0,1-.564.279,1.856,1.856,0,0,1-.617.111,1.368,1.368,0,0,1-.45-.069.967.967,0,0,1-.405-.267,1.392,1.392,0,0,1-.293-.557,3.37,3.37,0,0,1-.113-.938V7.221a.348.348,0,0,0-.025-.133.246.246,0,0,0-.071-.1.237.237,0,0,0-.113-.05.361.361,0,0,0-.151.011L52,7.281a.33.33,0,0,0-.2.125.256.256,0,0,0-.045.187.273.273,0,0,0,.1.17.341.341,0,0,0,.223.074c.161,0,.283,0,.375,0a.327.327,0,0,1,.2.058.276.276,0,0,1,.076.185,3.422,3.422,0,0,1,.012.383v3.48a2.968,2.968,0,0,0,.188,1.1,1.835,1.835,0,0,0,.48.7,1.811,1.811,0,0,0,.649.369,2.242,2.242,0,0,0,.694.107,2.408,2.408,0,0,0,.579-.073,3.246,3.246,0,0,0,.586-.21,4.639,4.639,0,0,0,.589-.331,6.645,6.645,0,0,0,.587-.436v.54a.417.417,0,0,0,.017.127.205.205,0,0,0,.141.141.417.417,0,0,0,.127.017h1.47a.323.323,0,0,0,.116-.021.3.3,0,0,0,.1-.059.275.275,0,0,0,.064-.09A.281.281,0,0,0,59.137,13.717Zm8.7,0a.417.417,0,0,0-.017-.127.205.205,0,0,0-.141-.141.417.417,0,0,0-.127-.017,2.056,2.056,0,0,1-.346-.026.854.854,0,0,1-.249-.078.381.381,0,0,1-.15-.131.339.339,0,0,1-.05-.186V3.8a.3.3,0,0,0-.035-.15.243.243,0,0,0-.09-.092.3.3,0,0,0-.121-.039.352.352,0,0,0-.128.011l-1.755.555a.344.344,0,0,0-.188.137.258.258,0,0,0-.037.185.27.27,0,0,0,.1.163.341.341,0,0,0,.217.07c.244,0,.436,0,.587.014a.918.918,0,0,1,.341.076.309.309,0,0,1,.158.188,1.147,1.147,0,0,1,.039.352V8.016a2.825,2.825,0,0,0-.366-.349,2.551,2.551,0,0,0-.449-.286,2.481,2.481,0,0,0-.537-.193,2.728,2.728,0,0,0-.628-.071,2.4,2.4,0,0,0-1.2.306,2.657,2.657,0,0,0-.864.8,3.769,3.769,0,0,0-.523,1.126,4.681,4.681,0,0,0-.176,1.276,5.641,5.641,0,0,0,.188,1.5,3.448,3.448,0,0,0,.54,1.144,2.406,2.406,0,0,0,.855.728,2.5,2.5,0,0,0,1.133.255,2.407,2.407,0,0,0,.6-.076,2.6,2.6,0,0,0,.541-.207,3.044,3.044,0,0,0,.476-.305,3.59,3.59,0,0,0,.407-.372v.42a.417.417,0,0,0,.017.127.205.205,0,0,0,.141.141.417.417,0,0,0,.127.017h1.425a.417.417,0,0,0,.127-.017.205.205,0,0,0,.141-.141A.417.417,0,0,0,67.838,13.717Zm-2-1.365a3.179,3.179,0,0,1-.347.457,2.6,2.6,0,0,1-.427.377,2.023,2.023,0,0,1-.5.256,1.708,1.708,0,0,1-.558.094,1.463,1.463,0,0,1-.672-.165,1.753,1.753,0,0,1-.586-.5,2.576,2.576,0,0,1-.415-.847,4.274,4.274,0,0,1-.157-1.2,6.255,6.255,0,0,1,.057-.849,4.12,4.12,0,0,1,.254-.989,2.042,2.042,0,0,1,.575-.82,1.56,1.56,0,0,1,1.019-.342,1.711,1.711,0,0,1,1.176.45,2.136,2.136,0,0,1,.358.423,2.393,2.393,0,0,1,.222.432ZM76,10.6a4.774,4.774,0,0,0-.207-1.426,3.442,3.442,0,0,0-.6-1.147,2.754,2.754,0,0,0-.97-.765,3.055,3.055,0,0,0-1.312-.278,2.813,2.813,0,0,0-1.223.276,3,3,0,0,0-.98.761,3.583,3.583,0,0,0-.651,1.146,4.326,4.326,0,0,0-.236,1.432,4.987,4.987,0,0,0,.219,1.523,3.255,3.255,0,0,0,.623,1.142,2.683,2.683,0,0,0,.974.717,3.188,3.188,0,0,0,1.274.249,2.9,2.9,0,0,0,1.325-.3,2.865,2.865,0,0,0,.969-.808,3.671,3.671,0,0,0,.595-1.16A4.569,4.569,0,0,0,76,10.6Zm-1.125,0a5.846,5.846,0,0,1-.121,1.242,3.125,3.125,0,0,1-.366.962,1.77,1.77,0,0,1-.614.621,1.788,1.788,0,0,1-1.705.008,1.8,1.8,0,0,1-.622-.607,3.065,3.065,0,0,1-.385-.959,5.6,5.6,0,0,1-.132-1.267,5.6,5.6,0,0,1,.132-1.267,3.065,3.065,0,0,1,.385-.959,1.8,1.8,0,0,1,.622-.607,1.769,1.769,0,0,1,1.68,0,1.78,1.78,0,0,1,.616.607,3.074,3.074,0,0,1,.38.959A5.69,5.69,0,0,1,74.874,10.6Z" fill="#583c27"/>
</svg>
