<svg xmlns="http://www.w3.org/2000/svg" viewBox="0 0 422.08 121.83"><defs><style>.cls-1{fill:#583c27;}</style></defs><g id="レイヤー_2" data-name="レイヤー 2"><g id="レイヤー_1-2" data-name="レイヤー 1"><path class="cls-1" d="M158.63,64.46a19.53,19.53,0,0,1-1.14,6.78,15.12,15.12,0,0,1-3.32,5.33A14.73,14.73,0,0,1,149,80a18.4,18.4,0,0,1-6.78,1.19A17.83,17.83,0,0,1,135.5,80,14.81,14.81,0,0,1,127,71.22a19.45,19.45,0,0,1-1.13-6.76A19.71,19.71,0,0,1,127,57.62a14.86,14.86,0,0,1,3.29-5.3,14.31,14.31,0,0,1,5.18-3.39,19.63,19.63,0,0,1,13.49,0,14.62,14.62,0,0,1,8.51,8.74A19.37,19.37,0,0,1,158.63,64.46Zm-8.25,0q0-5-2.22-7.83a7.18,7.18,0,0,0-5.95-2.81A7.31,7.31,0,0,0,138,55.08a7.86,7.86,0,0,0-2.83,3.68,16.7,16.7,0,0,0,0,11.33,8.05,8.05,0,0,0,2.8,3.69,7.32,7.32,0,0,0,4.29,1.28,7.18,7.18,0,0,0,5.95-2.81Q150.38,69.43,150.38,64.46Z"/><path class="cls-1" d="M168.88,52.29v1a14.22,14.22,0,0,1,4.74-4.2,12.69,12.69,0,0,1,5.92-1.34,11.71,11.71,0,0,1,5.81,1.42,8.92,8.92,0,0,1,3.83,4,9.6,9.6,0,0,1,1,3.26,31.88,31.88,0,0,1,.25,4.45V76.18a5.45,5.45,0,0,1-1.13,3.73,4.05,4.05,0,0,1-5.92,0,5.38,5.38,0,0,1-1.15-3.7V62.47a13.62,13.62,0,0,0-1.13-6.22c-.75-1.44-2.25-2.15-4.5-2.15a6.64,6.64,0,0,0-4,1.31A7.51,7.51,0,0,0,170,59a25.79,25.79,0,0,0-.6,6.86V76.18a5.38,5.38,0,0,1-1.16,3.75,3.91,3.91,0,0,1-3,1.25,3.74,3.74,0,0,1-2.92-1.3,5.43,5.43,0,0,1-1.14-3.7V52.41a5.18,5.18,0,0,1,1-3.51,3.56,3.56,0,0,1,2.8-1.16,3.82,3.82,0,0,1,2,.51,3.69,3.69,0,0,1,1.4,1.54A5.43,5.43,0,0,1,168.88,52.29Z"/><path class="cls-1" d="M227.17,77.41l-7.26-11.93-4.46,4.22v6.54a5,5,0,0,1-1.25,3.66,3.91,3.91,0,0,1-2.87,1.28,3.72,3.72,0,0,1-3-1.27,5.55,5.55,0,0,1-1.09-3.73V41.11a6.94,6.94,0,0,1,1.06-4.17,3.51,3.51,0,0,1,3-1.43,3.75,3.75,0,0,1,3,1.3,5.71,5.71,0,0,1,1.11,3.82V60.57l9.25-9.7a23.72,23.72,0,0,1,2.62-2.47,3.65,3.65,0,0,1,2.2-.66,3.56,3.56,0,0,1,2.56,1,3.26,3.26,0,0,1,1,2.45q0,1.81-3.35,4.82l-4.36,4,8.43,13.25c.62,1,1.07,1.74,1.34,2.25a3.15,3.15,0,0,1,.41,1.46,4.35,4.35,0,0,1-1.07,3.09,3.74,3.74,0,0,1-2.82,1.13,3.15,3.15,0,0,1-2.32-.82A19.85,19.85,0,0,1,227.17,77.41Z"/><path class="cls-1" d="M259.13,76.54A25.91,25.91,0,0,1,253.37,80a16.22,16.22,0,0,1-6.25,1.16,11.9,11.9,0,0,1-5.56-1.25,9.19,9.19,0,0,1-3.69-3.39,8.84,8.84,0,0,1-1.3-4.64,8.35,8.35,0,0,1,2.14-5.76A10.75,10.75,0,0,1,244.59,63c.52-.12,1.81-.39,3.88-.81s3.84-.81,5.32-1.16,3.08-.78,4.8-1.28a8.55,8.55,0,0,0-1.31-4.78q-1.15-1.52-4.8-1.52a10,10,0,0,0-4.72.88,7.67,7.67,0,0,0-2.71,2.62c-.75,1.16-1.28,1.93-1.59,2.3a2.63,2.63,0,0,1-2,.56,3.51,3.51,0,0,1-2.39-.89,2.9,2.9,0,0,1-1-2.27,6.91,6.91,0,0,1,1.54-4.22A10.91,10.91,0,0,1,244.37,49a21.46,21.46,0,0,1,8.11-1.33A23,23,0,0,1,261,49a7.93,7.93,0,0,1,4.39,4,17.79,17.79,0,0,1,1.28,7.35c0,1.93,0,3.57,0,4.91s0,2.84,0,4.49a16.5,16.5,0,0,0,.76,4.83,14.87,14.87,0,0,1,.77,3.24A3.05,3.05,0,0,1,267,80.14a4,4,0,0,1-2.69,1,3.63,3.63,0,0,1-2.5-1.19A18,18,0,0,1,259.13,76.54Zm-.54-11.9a41,41,0,0,1-5.25,1.4c-2.3.49-3.89.85-4.78,1.08A6.67,6.67,0,0,0,246,68.48a3.48,3.48,0,0,0-1.2,2.82,4.16,4.16,0,0,0,1.41,3.17A5.23,5.23,0,0,0,250,75.78a9.69,9.69,0,0,0,4.5-1.06,7.18,7.18,0,0,0,3-2.76q1.11-1.87,1.11-6.15Z"/><path class="cls-1" d="M271.76,48.46h.9V43.52c0-1.32,0-2.36.11-3.12a4.61,4.61,0,0,1,.59-1.94,3.7,3.7,0,0,1,1.38-1.37,4,4,0,0,1,2-.53,4.08,4.08,0,0,1,2.83,1.18,3.49,3.49,0,0,1,1.07,1.91,17.33,17.33,0,0,1,.23,3.21v5.6h3a3.9,3.9,0,0,1,2.67.83,2.73,2.73,0,0,1,.91,2.13,2.36,2.36,0,0,1-1.31,2.31,8.35,8.35,0,0,1-3.75.67h-1.53V69.52a25,25,0,0,0,.13,3,3,3,0,0,0,.73,1.68,2.46,2.46,0,0,0,1.91.65,9.67,9.67,0,0,0,2-.26,10,10,0,0,1,1.92-.25,2.47,2.47,0,0,1,1.8.8,2.68,2.68,0,0,1,.79,2,3.3,3.3,0,0,1-2.16,3,14.58,14.58,0,0,1-6.24,1.06,10.77,10.77,0,0,1-5.84-1.3,6,6,0,0,1-2.61-3.58,24.45,24.45,0,0,1-.62-6.12V54.4h-1.08a3.86,3.86,0,0,1-2.71-.85,2.75,2.75,0,0,1-.94-2.13,2.67,2.67,0,0,1,1-2.13A4.32,4.32,0,0,1,271.76,48.46Z"/><path class="cls-1" d="M319.62,70.42a9.53,9.53,0,0,1-6.55,9.51,22,22,0,0,1-7.87,1.25,19.21,19.21,0,0,1-7.59-1.36,11,11,0,0,1-4.67-3.39,6.77,6.77,0,0,1-1.51-4.08,3.17,3.17,0,0,1,1-2.32,3.33,3.33,0,0,1,2.44-1,2.85,2.85,0,0,1,2,.63,6.81,6.81,0,0,1,1.33,1.78,9,9,0,0,0,3,3.28,9.13,9.13,0,0,0,4.8,1.08,6.87,6.87,0,0,0,4-1.1,3.07,3.07,0,0,0,1.58-2.51A3.42,3.42,0,0,0,310,69.07a19.93,19.93,0,0,0-5.41-1.9A45,45,0,0,1,297.65,65a11.45,11.45,0,0,1-4.26-3.06,7,7,0,0,1-1.6-4.67,8.2,8.2,0,0,1,1.48-4.67,10,10,0,0,1,4.35-3.51,16.72,16.72,0,0,1,6.94-1.31,22.87,22.87,0,0,1,5.74.66,14.39,14.39,0,0,1,4.25,1.78,8.8,8.8,0,0,1,2.59,2.47A4.85,4.85,0,0,1,318,55.3a3.06,3.06,0,0,1-.95,2.32,3.76,3.76,0,0,1-2.7.9,3.3,3.3,0,0,1-2.15-.72,13.82,13.82,0,0,1-2-2.17A7.75,7.75,0,0,0,308,53.7a7,7,0,0,0-3.44-.72,6.73,6.73,0,0,0-3.7,1,2.75,2.75,0,0,0-1.48,2.36,2.55,2.55,0,0,0,1.09,2.13,8.93,8.93,0,0,0,2.92,1.37q1.83.54,5.06,1.32a27.61,27.61,0,0,1,6.25,2.23,10.56,10.56,0,0,1,3.68,3.06A6.81,6.81,0,0,1,319.62,70.42Z"/><path class="cls-1" d="M344.24,76.54V75.48a18.85,18.85,0,0,1-3.1,3.14,11.5,11.5,0,0,1-3.56,1.88,14.43,14.43,0,0,1-4.4.62,11.39,11.39,0,0,1-5.34-1.24,9,9,0,0,1-3.66-3.4q-1.55-2.62-1.54-7.53V52.65A5.27,5.27,0,0,1,323.76,49a3.8,3.8,0,0,1,2.95-1.22,3.89,3.89,0,0,1,3,1.24,5.22,5.22,0,0,1,1.14,3.67V65.81a19.89,19.89,0,0,0,.49,4.81,5.72,5.72,0,0,0,1.73,3,5,5,0,0,0,3.39,1.1,6.84,6.84,0,0,0,3.91-1.24,7.11,7.11,0,0,0,2.68-3.22q.7-1.74.7-7.65v-10A5.22,5.22,0,0,1,344.9,49a4.2,4.2,0,0,1,5.94,0A5.32,5.32,0,0,1,352,52.65V76.48A5.09,5.09,0,0,1,350.88,80a3.8,3.8,0,0,1-5.54,0A4.92,4.92,0,0,1,344.24,76.54Z"/><path class="cls-1" d="M379,76.48v-.82a20.51,20.51,0,0,1-3.26,3.09,12.39,12.39,0,0,1-3.5,1.81,13.17,13.17,0,0,1-4.11.62,12.17,12.17,0,0,1-5.47-1.25,12.92,12.92,0,0,1-4.35-3.57,16.39,16.39,0,0,1-2.79-5.46,23.27,23.27,0,0,1-.95-6.77q0-7.71,3.77-12a12.53,12.53,0,0,1,9.91-4.31,13.32,13.32,0,0,1,6,1.22A16.47,16.47,0,0,1,379,52.77V40.63a6.13,6.13,0,0,1,1-3.82,3.43,3.43,0,0,1,2.88-1.3,3.6,3.6,0,0,1,2.88,1.19,5.31,5.31,0,0,1,1,3.51V76.48A5,5,0,0,1,385.66,80a3.65,3.65,0,0,1-2.8,1.18A3.61,3.61,0,0,1,380.07,80,5.06,5.06,0,0,1,379,76.48ZM362.8,64.4a13.9,13.9,0,0,0,1,5.69,7.9,7.9,0,0,0,2.84,3.54,7.07,7.07,0,0,0,3.95,1.19,7.28,7.28,0,0,0,4-1.13,7.78,7.78,0,0,0,2.86-3.46,14.06,14.06,0,0,0,1.07-5.83,13.69,13.69,0,0,0-1.07-5.65,8.37,8.37,0,0,0-2.89-3.61,6.84,6.84,0,0,0-4-1.25,6.76,6.76,0,0,0-4,1.27,8.26,8.26,0,0,0-2.75,3.68A14.49,14.49,0,0,0,362.8,64.4Z"/><path class="cls-1" d="M422.08,64.46a19.53,19.53,0,0,1-1.14,6.78,15.12,15.12,0,0,1-3.32,5.33A14.73,14.73,0,0,1,412.44,80a18.31,18.31,0,0,1-6.77,1.19A17.88,17.88,0,0,1,399,80a14.81,14.81,0,0,1-8.48-8.75,19.45,19.45,0,0,1-1.13-6.76,19.71,19.71,0,0,1,1.14-6.84,14.86,14.86,0,0,1,3.29-5.3A14.31,14.31,0,0,1,399,48.93a19.63,19.63,0,0,1,13.49,0A14.62,14.62,0,0,1,421,57.68,19.37,19.37,0,0,1,422.08,64.46Zm-8.25,0q0-5-2.21-7.83a7.21,7.21,0,0,0-5.95-2.81,7.32,7.32,0,0,0-4.25,1.26,7.86,7.86,0,0,0-2.83,3.68,16.7,16.7,0,0,0,0,11.33,8.05,8.05,0,0,0,2.8,3.69,7.33,7.33,0,0,0,4.3,1.28,7.21,7.21,0,0,0,5.95-2.81Q413.82,69.43,413.83,64.46Z"/><path class="cls-1" d="M53.22,121.83c10.2,0,15.3-6.34,15.3-13.55,0-13.47-12.27-18.87-12.27-46.21a3.42,3.42,0,0,0-3-3.46,3.42,3.42,0,0,0-3,3.46c0,27.34-12.26,32.54-12.26,46.21C37.92,115.49,42.27,121.83,53.22,121.83Z"/><path class="cls-1" d="M77.12,100.34a3.34,3.34,0,0,1-1.6-6.26,46.56,46.56,0,1,0-44.61,0,3.33,3.33,0,1,1-3.2,5.85,53.23,53.23,0,1,1,51,0A3.31,3.31,0,0,1,77.12,100.34Z"/></g></g></svg>